<?xml version="1.0" standalone="no"?><!DOCTYPE svg PUBLIC "-//W3C//DTD SVG 1.1//EN" "http://www.w3.org/Graphics/SVG/1.1/DTD/svg11.dtd"><svg height="1024" node-id="1" sillyvg="true" template-height="1024" template-width="1024" version="1.1" viewBox="0 0 1024 1024" width="1024" xmlns="http://www.w3.org/2000/svg" xmlns:xlink="http://www.w3.org/1999/xlink"><defs node-id="152"><linearGradient gradientUnits="objectBoundingBox" id="linearGradient-1" node-id="5" spreadMethod="pad" x1="-0.1358235" x2="0.5" y1="0.5" y2="0.47203198"><stop offset="0" stop-color="#98d6fa"></stop><stop offset="1" stop-color="#47b0f1"></stop></linearGradient><linearGradient gradientUnits="objectBoundingBox" id="linearGradient-2" node-id="8" spreadMethod="pad" x1="-0.0000000000000009337728" x2="1" y1="-0.031055901" y2="-0.031055901"><stop offset="0" stop-color="#fff5de"></stop><stop offset="1" stop-color="#fbd2ac"></stop></linearGradient><linearGradient gradientUnits="objectBoundingBox" id="linearGradient-3" node-id="11" spreadMethod="pad" x1="-0.1358235" x2="0.5" y1="0.5" y2="0.47628444"><stop offset="0" stop-color="#98d6fa"></stop><stop offset="1" stop-color="#47b0f1"></stop></linearGradient><linearGradient gradientUnits="objectBoundingBox" id="linearGradient-4" node-id="14" spreadMethod="pad" x1="-0.1358235" x2="0.5" y1="0.5" y2="0.47629464"><stop offset="0" stop-color="#98d6fa"></stop><stop offset="1" stop-color="#47b0f1"></stop></linearGradient><linearGradient gradientUnits="objectBoundingBox" id="linearGradient-5" node-id="17" spreadMethod="pad" x1="-0.1358235" x2="0.5" y1="0.5" y2="0.47629884"><stop offset="0" stop-color="#98d6fa"></stop><stop offset="1" stop-color="#47b0f1"></stop></linearGradient><linearGradient gradientUnits="objectBoundingBox" id="linearGradient-6" node-id="20" spreadMethod="pad" x1="-0.13582349" x2="0.49999997" y1="0.49999997" y2="0.43423018"><stop offset="0" stop-color="#98d6fa"></stop><stop offset="1" stop-color="#47b0f1"></stop></linearGradient><linearGradient gradientUnits="objectBoundingBox" id="linearGradient-7" node-id="23" spreadMethod="pad" x1="0.4313989" x2="0.6033656" y1="-0.06451612" y2="0"><stop offset="0.031572677" stop-color="#afdef9"></stop><stop offset="1" stop-color="#7cc9f9"></stop></linearGradient><linearGradient gradientUnits="objectBoundingBox" id="linearGradient-8" node-id="26" spreadMethod="pad" x1="0.05920258" x2="0.5996637" y1="0.60857147" y2="0.3705422"><stop offset="0" stop-color="#98d6fa"></stop><stop offset="1" stop-color="#47b0f1"></stop></linearGradient><linearGradient gradientUnits="objectBoundingBox" id="linearGradient-9" node-id="29" spreadMethod="pad" x1="0.44492638" x2="0.58298296" y1="-0.06451613" y2="0"><stop offset="0.031572677" stop-color="#afdef9"></stop><stop offset="1" stop-color="#7cc9f9"></stop></linearGradient><linearGradient gradientUnits="objectBoundingBox" id="linearGradient-10" node-id="32" spreadMethod="pad" x1="0.28403884" x2="0.5" y1="0.8700849" y2="0.30481097"><stop offset="0" stop-color="#98d6fa"></stop><stop offset="1" stop-color="#47b0f1"></stop></linearGradient><linearGradient gradientUnits="objectBoundingBox" id="linearGradient-11" node-id="35" spreadMethod="pad" x1="0.8017669" x2="0.40161258" y1="0.7812446" y2="0.012035674"><stop offset="0" stop-color="#98d6fa"></stop><stop offset="1" stop-color="#47b0f1"></stop></linearGradient><linearGradient gradientUnits="objectBoundingBox" id="linearGradient-12" node-id="38" spreadMethod="pad" x1="0.1696366" x2="0.73110634" y1="0.776033" y2="0.27310416"><stop offset="0" stop-color="#98d6fa"></stop><stop offset="1" stop-color="#47b0f1"></stop></linearGradient><linearGradient gradientUnits="objectBoundingBox" id="linearGradient-14" node-id="44" spreadMethod="pad" x1="0" x2="0.84977597" y1="0.6436173" y2="0.3819483"><stop offset="0" stop-color="#98d6fa"></stop><stop offset="1" stop-color="#47b0f1"></stop></linearGradient><linearGradient gradientUnits="objectBoundingBox" id="linearGradient-15" node-id="47" spreadMethod="pad" x1="0" x2="0.84977597" y1="0.63935465" y2="0.38545215"><stop offset="0" stop-color="#98d6fa"></stop><stop offset="1" stop-color="#47b0f1"></stop></linearGradient><linearGradient gradientUnits="objectBoundingBox" id="linearGradient-16" node-id="50" spreadMethod="pad" x1="1" x2="0" y1="-0.11764706" y2="-0.11764706"><stop offset="0" stop-color="#f5dda7"></stop><stop offset="1" stop-color="#fa9a41"></stop></linearGradient><linearGradient gradientUnits="objectBoundingBox" id="linearGradient-17" node-id="53" spreadMethod="pad" x1="0.5" x2="1.2718465" y1="0.28340417" y2="0.6884129"><stop offset="0" stop-color="#98d6fa"></stop><stop offset="1" stop-color="#47b0f1"></stop></linearGradient><linearGradient gradientUnits="objectBoundingBox" id="linearGradient-18" node-id="56" spreadMethod="pad" x1="0.5" x2="1.2718465" y1="0.021397227" y2="0.91632813"><stop offset="0" stop-color="#98d6fa"></stop><stop offset="1" stop-color="#47b0f1"></stop></linearGradient><linearGradient gradientUnits="objectBoundingBox" id="linearGradient-19" node-id="59" spreadMethod="pad" x1="0.27072352" x2="0.6696898" y1="0.22676362" y2="0.9064481"><stop offset="0" stop-color="#98d6fa"></stop><stop offset="1" stop-color="#47b0f1"></stop></linearGradient><linearGradient gradientUnits="objectBoundingBox" id="linearGradient-20" node-id="62" spreadMethod="pad" x1="0.4317056" x2="0.7126565" y1="0.076702476" y2="0.9064481"><stop offset="0" stop-color="#98d6fa"></stop><stop offset="1" stop-color="#47b0f1"></stop></linearGradient><linearGradient gradientUnits="objectBoundingBox" id="linearGradient-21" node-id="65" spreadMethod="pad" x1="0.15011948" x2="0.5" y1="0.3147246" y2="0.63610584"><stop offset="0" stop-color="#98d6fa"></stop><stop offset="1" stop-color="#47b0f1"></stop></linearGradient><linearGradient gradientUnits="objectBoundingBox" id="linearGradient-22" node-id="68" spreadMethod="pad" x1="0" x2="0.87005496" y1="0.40404868" y2="0.6427308"><stop offset="0" stop-color="#98d6fa"></stop><stop offset="1" stop-color="#47b0f1"></stop></linearGradient><linearGradient gradientUnits="objectBoundingBox" id="linearGradient-23" node-id="71" spreadMethod="pad" x1="0.31427655" x2="0.99999994" y1="0.4375255" y2="0.30132854"><stop offset="0" stop-color="#923629"></stop><stop offset="0.3" stop-color="#57352c"></stop><stop offset="0.5" stop-color="#42352c"></stop><stop offset="0.7" stop-color="#2c2422"></stop><stop offset="1" stop-color="#1d181c"></stop></linearGradient><linearGradient gradientUnits="objectBoundingBox" id="linearGradient-24" node-id="77" spreadMethod="pad" x1="0.13724975" x2="0.99999994" y1="-0.02805049" y2="-0.02805049"><stop offset="0" stop-color="#923629"></stop><stop offset="0.3" stop-color="#57352c"></stop><stop offset="0.5" stop-color="#42352c"></stop><stop offset="0.7" stop-color="#2c2422"></stop><stop offset="1" stop-color="#1d181c"></stop></linearGradient><linearGradient gradientUnits="objectBoundingBox" id="linearGradient-25" node-id="83" spreadMethod="pad" x1="0" x2="0.99418527" y1="-0.029698752" y2="-0.029698752"><stop offset="0" stop-color="#ffb859"></stop><stop offset="1" stop-color="#f97b61"></stop></linearGradient><linearGradient gradientUnits="objectBoundingBox" id="linearGradient-26" node-id="86" spreadMethod="pad" x1="-0.22360033" x2="0.5" y1="0.8700849" y2="0.30481097"><stop offset="0" stop-color="#98d6fa"></stop><stop offset="1" stop-color="#47b0f1"></stop></linearGradient><linearGradient gradientUnits="objectBoundingBox" id="linearGradient-27" node-id="89" spreadMethod="pad" x1="0.84080654" x2="0.06797705" y1="0.2543015" y2="1.2462928"><stop offset="0" stop-color="#98d6fa"></stop><stop offset="1" stop-color="#47b0f1"></stop></linearGradient><linearGradient gradientUnits="objectBoundingBox" id="linearGradient-28" node-id="92" spreadMethod="pad" x1="0.89443105" x2="0" y1="0.3207445" y2="1.0444766"><stop offset="0" stop-color="#98d6fa"></stop><stop offset="1" stop-color="#47b0f1"></stop></linearGradient><linearGradient gradientUnits="objectBoundingBox" id="linearGradient-29" node-id="95" spreadMethod="pad" x1="0.62333596" x2="0.34365335" y1="0.2543015" y2="1.2462928"><stop offset="0" stop-color="#98d6fa"></stop><stop offset="1" stop-color="#47b0f1"></stop></linearGradient><linearGradient gradientUnits="objectBoundingBox" id="linearGradient-30" node-id="98" spreadMethod="pad" x1="-0.54080534" x2="0.5" y1="0.6194856" y2="0.43698126"><stop offset="0" stop-color="#98d6fa"></stop><stop offset="1" stop-color="#47b0f1"></stop></linearGradient><linearGradient gradientUnits="objectBoundingBox" id="linearGradient-31" node-id="101" spreadMethod="pad" x1="0.89443105" x2="0" y1="0.44632098" y2="0.6630465"><stop offset="0" stop-color="#98d6fa"></stop><stop offset="1" stop-color="#47b0f1"></stop></linearGradient></defs><g node-id="345"><path d="M 0.00 0.00 L 1024.00 0.00 L 1024.00 1024.00 L 0.00 1024.00 Z" fill="#ffffff" fill-opacity="0" fill-rule="evenodd" group-id="1" id="矩形" node-id="105" stroke="none" target-height="1024" target-width="1024" target-x="0" target-y="0"></path></g><g node-id="346"><g node-id="350"><path d="M 76.80 581.77 L 73.83 568.49 L 71.97 559.38 L 69.82 547.84 L 67.80 535.55 L 65.82 521.45 L 64.17 506.83 L 62.88 491.00 L 62.32 480.31 L 62.04 469.36 L 62.05 458.15 L 62.42 446.95 L 63.20 435.75 L 64.39 424.55 L 66.06 413.42 L 68.25 402.53 L 70.95 391.87 L 73.38 383.98 L 76.16 376.33 L 79.29 368.94 L 82.78 361.77 L 86.68 354.81 L 91.00 348.19 L 95.75 341.89 L 100.92 335.90 L 106.51 330.33 L 112.60 325.15 L 119.24 320.35 L 126.45 315.93 L 132.34 312.86 L 138.66 310.07 L 145.42 307.58 L 152.66 305.39 L 160.40 303.51 L 178.10 300.08 L 194.86 297.29 L 210.72 295.10 L 226.66 293.29 L 241.76 291.87 L 256.05 290.83 L 277.25 289.66 L 296.81 288.85 L 315.85 288.13 L 333.44 287.30 L 344.99 286.55 L 355.96 285.55 L 366.35 284.30 L 376.69 282.65 L 386.56 280.55 L 395.98 278.01 L 402.93 275.71 L 409.70 273.04 L 416.31 269.98 L 422.76 266.54 L 428.94 262.74 L 435.06 258.41 L 441.11 253.52 L 447.10 248.05 L 456.03 239.55 L 464.00 232.33 L 471.08 226.27 L 478.37 220.45 L 484.92 215.65 L 490.79 211.76 L 496.88 208.19 L 502.50 205.35 L 507.67 203.18 L 513.00 201.39 L 518.16 200.08 L 523.16 199.21 L 528.22 198.69 L 533.39 198.46 L 538.68 198.51 L 546.76 198.96 L 555.68 199.75 L 575.59 201.60 L 582.89 201.85 L 590.28 201.53 L 597.79 200.63 L 605.24 199.25 L 612.69 197.44 L 620.16 195.20 L 627.52 192.63 L 634.75 189.78 L 641.86 186.68 L 652.27 181.65 L 662.07 176.43 L 671.50 171.00 L 679.96 165.81 L 694.70 156.20 L 705.47 148.96 L 708.73 147.00 L 714.62 143.93 L 721.41 140.81 L 730.35 137.21 L 736.61 134.98 L 743.59 132.79 L 751.34 130.64 L 759.13 128.82 L 767.44 127.29 L 776.27 126.05 L 785.14 125.28 L 794.32 125.01 L 803.83 125.28 L 810.91 125.87 L 818.07 126.88 L 825.33 128.30 L 832.69 130.15 L 839.85 132.42 L 847.04 135.22 L 854.26 138.58 L 861.53 142.51 L 868.42 146.86 L 875.30 151.89 L 882.17 157.65 L 889.04 164.20 L 894.08 169.58 L 899.09 175.53 L 904.06 182.06 L 909.00 189.21 L 913.89 197.03 L 918.24 204.72 L 922.51 213.10 L 926.70 222.22 L 930.79 232.13 L 934.77 242.86 L 938.20 253.22 L 941.49 264.41 L 944.62 276.49 L 947.58 289.51 L 950.35 303.51 L 951.86 326.93 L 953.22 350.50 L 954.29 374.03 L 954.96 397.17 L 955.14 412.56 L 955.02 427.53 L 954.62 442.08 L 953.86 456.63 L 952.72 470.53 L 951.21 483.79 L 949.74 493.77 L 948.00 503.26 L 946.01 512.28 L 943.77 520.85 L 941.11 529.43 L 938.14 537.43 L 934.87 544.88 L 931.33 551.81 L 928.10 557.25 L 924.65 562.30 L 920.97 566.96 L 917.06 571.27 L 912.91 575.24 L 907.58 580.33 L 903.24 585.14 L 899.78 589.70 L 897.11 594.04 L 894.81 598.79 L 893.19 603.30 L 892.20 607.60 L 891.78 611.74 L 891.86 615.97 L 892.40 620.04 L 893.40 623.97 L 894.87 627.79 L 896.71 631.46 L 898.90 634.98 L 901.43 638.38 L 904.32 641.65 L 908.52 645.67 L 913.11 649.38 L 918.09 652.77 L 923.32 655.79 L 928.66 658.40 L 934.12 660.61 L 939.72 662.43 L 945.12 663.75 L 950.35 664.62 L 953.51 665.26 L 956.01 666.20 L 957.99 667.41 L 959.51 668.87 L 960.66 670.60 L 961.58 673.06 L 961.99 675.94 L 961.82 679.34 L 960.97 683.39 L 959.71 687.14 L 957.90 691.28 L 955.47 695.88 L 952.32 700.96 L 947.83 707.28 L 942.35 714.05 L 935.76 721.31 L 928.84 728.20 L 921.05 735.24 L 912.32 742.43 L 903.29 749.20 L 893.54 755.83 L 883.04 762.30 L 874.99 766.81 L 866.64 771.08 L 857.96 775.11 L 848.95 778.90 L 843.66 781.07 L 836.30 783.68 L 826.40 786.78 L 810.77 791.13 L 790.68 796.12 L 769.11 800.94 L 743.83 806.04 L 717.35 810.87 L 687.89 815.68 L 657.52 820.08 L 624.90 824.17 L 602.89 826.57 L 580.23 828.73 L 556.89 830.63 L 533.55 832.18 L 509.89 833.37 L 485.91 834.19 L 461.93 834.59 L 437.96 834.52 L 413.99 833.98 L 390.06 832.93 L 366.45 831.31 L 343.18 829.14 L 325.71 827.08 L 308.62 824.67 L 291.88 821.90 L 275.50 818.78 L 259.09 815.19 L 243.22 811.19 L 227.86 806.81 L 212.99 802.04 L 204.36 798.02 L 196.16 793.63 L 188.36 788.88 L 180.95 783.75 L 173.79 778.21 L 166.99 772.40 L 160.52 766.31 L 154.39 759.94 L 146.65 751.04 L 139.45 741.84 L 132.78 732.32 L 126.55 722.51 L 120.82 712.60 L 115.56 702.60 L 110.67 692.40 L 106.23 682.36 L 102.22 672.46 L 96.77 657.57 L 92.21 643.60 L 88.21 629.92 L 84.99 617.74 L 82.19 606.11 L 80.04 596.56 L 76.80 581.77 Z" fill="#47b0f1" fill-opacity="0.05" fill-rule="nonzero" group-id="2,6" id="路径-58" node-id="107" stroke="none" target-height="709.58" target-width="899.95" target-x="62.04" target-y="125.01"></path></g><g node-id="351"><path d="M 158.00 329.00 L 158.00 329.15 L 159.66 329.70 L 161.07 330.55 L 162.28 331.73 L 163.21 333.13 L 163.78 334.71 L 164.00 336.50 L 164.00 337.50 L 163.73 339.51 L 162.98 341.29 L 161.80 342.80 L 160.29 343.98 L 158.51 344.73 L 156.50 345.00 L 77.50 345.00 L 75.49 344.73 L 73.71 343.98 L 72.20 342.80 L 71.02 341.29 L 70.27 339.51 L 70.00 337.50 L 70.00 336.50 L 70.27 334.49 L 71.02 332.71 L 72.20 331.20 L 73.71 330.02 L 75.49 329.27 L 77.50 329.00 L 109.00 329.00 L 110.86 328.74 L 112.47 328.09 L 113.87 327.03 L 114.97 325.66 L 115.68 324.08 L 116.00 322.24 L 116.00 322.00 L 115.74 320.14 L 115.09 318.53 L 114.03 317.13 L 112.66 316.03 L 111.08 315.32 L 109.24 315.00 L 109.00 315.00 L 106.00 315.00 L 106.00 314.85 L 104.34 314.30 L 102.93 313.45 L 101.72 312.28 L 100.79 310.87 L 100.22 309.29 L 100.00 307.50 L 100.00 306.50 L 100.27 304.49 L 101.02 302.71 L 102.20 301.20 L 103.71 300.02 L 105.49 299.27 L 107.50 299.00 L 186.50 299.00 L 188.51 299.27 L 190.29 300.02 L 191.80 301.20 L 192.98 302.71 L 193.73 304.49 L 194.00 306.50 L 194.00 307.50 L 193.73 309.51 L 192.98 311.29 L 191.80 312.80 L 190.29 313.98 L 188.51 314.73 L 186.50 315.00 L 155.00 315.00 L 153.14 315.26 L 151.53 315.91 L 150.13 316.97 L 149.03 318.34 L 148.32 319.92 L 148.00 321.76 L 148.00 322.00 L 148.26 323.86 L 148.91 325.47 L 149.97 326.87 L 151.34 327.97 L 152.92 328.68 L 154.76 329.00 L 155.00 329.00 L 158.00 329.00 Z" fill="url(#linearGradient-1)" fill-opacity="0.1" fill-rule="nonzero" group-id="2,7" id="形状结合" node-id="108" stroke="none" target-height="46" target-width="124" target-x="70" target-y="299"></path></g><g node-id="352"><path d="M 858.00 159.00 L 858.00 159.15 L 859.66 159.70 L 861.07 160.55 L 862.28 161.73 L 863.21 163.13 L 863.78 164.71 L 864.00 166.50 L 864.00 167.50 L 863.73 169.51 L 862.98 171.29 L 861.80 172.80 L 860.29 173.98 L 858.51 174.73 L 856.50 175.00 L 777.50 175.00 L 775.49 174.73 L 773.71 173.98 L 772.20 172.80 L 771.02 171.29 L 770.27 169.51 L 770.00 167.50 L 770.00 166.50 L 770.27 164.49 L 771.02 162.71 L 772.20 161.20 L 773.71 160.02 L 775.49 159.27 L 777.50 159.00 L 809.00 159.00 L 810.86 158.74 L 812.47 158.09 L 813.87 157.03 L 814.97 155.66 L 815.68 154.08 L 816.00 152.24 L 816.00 152.00 L 815.74 150.14 L 815.09 148.53 L 814.03 147.13 L 812.66 146.03 L 811.08 145.32 L 809.24 145.00 L 809.00 145.00 L 806.00 145.00 L 806.00 144.85 L 804.34 144.30 L 802.93 143.45 L 801.72 142.28 L 800.79 140.87 L 800.22 139.29 L 800.00 137.50 L 800.00 136.50 L 800.27 134.49 L 801.02 132.71 L 802.20 131.20 L 803.71 130.02 L 805.49 129.27 L 807.50 129.00 L 886.50 129.00 L 888.51 129.27 L 890.29 130.02 L 891.80 131.20 L 892.98 132.71 L 893.73 134.49 L 894.00 136.50 L 894.00 137.50 L 893.73 139.51 L 892.98 141.29 L 891.80 142.80 L 890.29 143.98 L 888.51 144.73 L 886.50 145.00 L 855.00 145.00 L 853.14 145.26 L 851.53 145.91 L 850.13 146.97 L 849.03 148.34 L 848.32 149.92 L 848.00 151.76 L 848.00 152.00 L 848.26 153.86 L 848.91 155.47 L 849.97 156.87 L 851.34 157.97 L 852.92 158.68 L 854.76 159.00 L 855.00 159.00 L 858.00 159.00 Z" fill="url(#linearGradient-1)" fill-opacity="0.1" fill-rule="nonzero" group-id="2,8" id="形状结合" node-id="109" stroke="none" target-height="46" target-width="124" target-x="770" target-y="129"></path></g><path d="M 514.52 712.00 L 547.37 712.23 L 579.21 712.89 L 610.06 713.95 L 640.94 715.46 L 670.45 717.33 L 698.63 719.55 L 726.81 722.21 L 753.27 725.16 L 778.08 728.37 L 802.87 732.07 L 825.57 735.96 L 846.30 740.01 L 859.80 740.35 L 872.74 741.09 L 885.14 742.23 L 897.51 743.80 L 909.11 745.69 L 919.97 747.90 L 930.76 750.55 L 940.56 753.43 L 949.44 756.51 L 958.16 760.10 L 965.70 763.79 L 972.17 767.57 L 976.89 770.83 L 980.85 774.09 L 984.13 777.33 L 986.82 780.57 L 989.12 784.18 L 990.72 787.76 L 991.67 791.35 L 992.00 795.00 L 991.69 798.54 L 990.79 802.03 L 989.29 805.52 L 987.11 809.02 L 984.58 812.18 L 981.48 815.34 L 977.74 818.52 L 973.29 821.71 L 967.16 825.42 L 960.02 829.05 L 951.76 832.59 L 943.35 835.66 L 934.04 838.54 L 923.79 841.22 L 913.46 843.47 L 902.42 845.45 L 890.61 847.13 L 877.57 850.71 L 863.22 854.25 L 847.45 857.75 L 847.86 860.86 L 848.00 864.00 L 847.72 868.37 L 846.93 872.68 L 845.63 876.97 L 843.78 881.25 L 841.34 885.55 L 838.62 889.49 L 835.40 893.43 L 831.65 897.38 L 827.33 901.35 L 822.39 905.34 L 816.17 909.76 L 809.18 914.15 L 801.36 918.50 L 792.64 922.79 L 783.98 926.61 L 774.61 930.31 L 764.51 933.89 L 753.61 937.35 L 742.85 940.40 L 731.48 943.27 L 719.48 945.96 L 706.82 948.45 L 690.03 951.24 L 672.36 953.60 L 653.78 955.52 L 635.17 956.87 L 615.92 957.71 L 596.00 958.00 L 580.31 957.82 L 565.05 957.30 L 550.19 956.45 L 535.72 955.29 L 521.12 953.78 L 507.09 951.98 L 493.63 949.92 L 480.69 947.60 L 467.61 944.90 L 455.27 941.99 L 443.62 938.87 L 432.64 935.58 L 421.53 931.83 L 411.30 927.95 L 401.91 923.95 L 393.29 919.85 L 384.63 915.21 L 376.98 910.52 L 370.25 905.81 L 364.36 901.08 L 359.76 896.80 L 355.83 892.55 L 352.52 888.32 L 349.79 884.11 L 347.59 879.89 L 319.63 877.55 L 293.22 874.92 L 268.31 872.02 L 243.41 868.68 L 220.39 865.13 L 199.15 861.41 L 177.96 857.17 L 158.97 852.84 L 142.02 848.43 L 129.15 844.64 L 117.74 840.88 L 107.67 837.15 L 98.84 833.46 L 91.44 829.95 L 85.12 826.54 L 79.76 823.22 L 75.26 819.99 L 71.53 816.86 L 68.41 813.69 L 66.00 810.64 L 64.21 807.66 L 62.98 804.75 L 62.26 801.88 L 62.00 799.00 L 62.25 796.17 L 62.95 793.34 L 64.14 790.48 L 65.86 787.57 L 68.18 784.57 L 71.18 781.47 L 74.78 778.38 L 79.12 775.20 L 84.30 771.94 L 90.39 768.58 L 97.53 765.14 L 106.05 761.50 L 115.77 757.82 L 126.79 754.10 L 139.22 750.36 L 155.59 745.99 L 173.95 741.69 L 194.45 737.48 L 215.00 733.77 L 237.29 730.22 L 261.41 726.86 L 285.55 723.93 L 311.15 721.25 L 338.28 718.84 L 365.40 716.83 L 393.72 715.13 L 423.25 713.77 L 452.77 712.80 L 483.18 712.21 L 514.52 712.00 Z" fill="url(#linearGradient-2)" fill-rule="nonzero" group-id="2" id="形状结合" node-id="110" stroke="none" target-height="246" target-width="930" target-x="62" target-y="712"></path><path d="M 686.61 226.65 L 686.61 226.55 L 685.01 222.93 L 683.00 219.68 L 680.58 216.79 L 677.80 214.22 L 674.75 212.00 L 671.42 210.13 L 667.89 208.62 L 664.26 207.48 L 660.49 206.70 L 656.66 206.29 L 652.90 206.27 L 649.17 206.62 L 652.02 205.05 L 655.10 203.70 L 658.44 202.57 L 661.87 201.75 L 665.32 201.25 L 668.81 201.07 L 672.29 201.26 L 675.58 201.84 L 678.72 202.80 L 681.66 204.21 L 684.28 206.07 L 686.61 208.44 L 686.61 208.53 L 688.93 206.19 L 691.55 204.33 L 694.50 202.93 L 697.65 201.97 L 700.95 201.39 L 704.43 201.20 L 707.93 201.37 L 711.38 201.86 L 714.81 202.68 L 718.15 203.79 L 721.22 205.14 L 724.04 206.71 L 720.32 206.38 L 716.56 206.43 L 712.73 206.85 L 708.97 207.63 L 705.33 208.78 L 701.81 210.29 L 698.47 212.16 L 695.42 214.37 L 692.64 216.93 L 690.22 219.81 L 688.21 223.04 L 686.61 226.64 L 686.61 226.65 Z" fill="url(#linearGradient-3)" fill-rule="nonzero" group-id="2,9" id="路径" node-id="112" stroke="none" target-height="25.579987" target-width="74.869995" target-x="649.17" target-y="201.07"></path><path d="M 770.03 214.11 L 770.03 214.04 L 768.91 211.52 L 767.52 209.27 L 765.87 207.27 L 763.93 205.50 L 761.04 203.50 L 757.92 201.95 L 754.53 200.83 L 751.02 200.16 L 747.55 199.97 L 744.09 200.23 L 747.10 198.65 L 750.51 197.42 L 754.08 196.65 L 757.70 196.39 L 760.11 196.51 L 762.39 196.91 L 764.57 197.58 L 766.61 198.56 L 768.42 199.85 L 770.03 201.49 L 770.03 201.55 L 771.65 199.93 L 773.47 198.64 L 775.51 197.67 L 777.69 197.00 L 779.98 196.60 L 782.39 196.47 L 786.01 196.74 L 789.58 197.50 L 792.98 198.72 L 795.98 200.29 L 792.52 200.05 L 789.05 200.26 L 785.54 200.93 L 782.15 202.06 L 779.03 203.61 L 776.14 205.60 L 773.62 208.01 L 771.59 210.83 L 770.03 214.11 L 770.03 214.11 Z" fill="url(#linearGradient-4)" fill-rule="nonzero" group-id="2,9" id="路径" node-id="113" stroke="none" target-height="17.720001" target-width="51.889954" target-x="744.09" target-y="196.39"></path><path d="M 735.24 179.63 L 735.24 179.57 L 734.12 177.04 L 732.73 174.80 L 731.07 172.79 L 729.14 171.02 L 726.25 169.02 L 723.13 167.47 L 719.74 166.35 L 716.23 165.68 L 712.76 165.49 L 709.29 165.75 L 712.31 164.17 L 715.72 162.95 L 719.29 162.18 L 722.91 161.91 L 725.32 162.03 L 727.60 162.43 L 729.78 163.10 L 731.81 164.08 L 733.63 165.37 L 735.24 167.01 L 735.24 167.07 L 736.86 165.45 L 738.67 164.16 L 740.72 163.19 L 742.90 162.53 L 745.18 162.13 L 747.60 161.99 L 751.22 162.26 L 754.79 163.02 L 758.19 164.24 L 761.19 165.82 L 757.73 165.57 L 754.26 165.78 L 750.75 166.45 L 747.36 167.58 L 744.23 169.13 L 741.35 171.12 L 738.83 173.53 L 736.80 176.35 L 735.24 179.63 L 735.24 179.63 Z" fill="url(#linearGradient-4)" fill-rule="nonzero" group-id="2,9" id="路径" node-id="114" stroke="none" target-height="17.720001" target-width="51.900024" target-x="709.29" target-y="161.91"></path><path d="M 840.72 220.07 L 840.72 220.03 L 839.64 217.74 L 838.24 215.78 L 836.49 214.10 L 834.49 212.72 L 832.33 211.64 L 829.98 210.86 L 827.54 210.40 L 825.13 210.27 L 822.74 210.45 L 825.58 209.05 L 828.83 208.11 L 831.09 207.81 L 833.28 207.83 L 835.42 208.14 L 837.44 208.81 L 839.19 209.87 L 840.72 211.32 L 840.72 211.36 L 842.25 209.92 L 844.01 208.88 L 846.04 208.21 L 848.18 207.89 L 850.37 207.87 L 852.64 208.17 L 855.89 209.09 L 858.71 210.49 L 856.31 210.32 L 853.91 210.47 L 851.47 210.93 L 849.12 211.71 L 846.95 212.79 L 844.95 214.17 L 843.21 215.84 L 841.80 217.80 L 840.72 220.07 Z" fill="url(#linearGradient-5)" fill-rule="nonzero" group-id="2,9" id="路径" node-id="115" stroke="none" target-height="12.26001" target-width="35.97003" target-x="822.74" target-y="207.81"></path><path d="M 54.17 676.40 L 46.31 673.15 L 39.62 670.96 L 33.98 669.65 L 29.22 669.06 L 25.22 669.09 L 21.85 669.63 L 19.01 670.62 L 16.61 672.02 L 14.57 673.84 L 12.87 676.12 L 11.49 678.95 L 10.46 682.41 L 9.83 686.65 L 9.69 691.81 L 10.13 698.04 L 11.38 702.83 L 12.85 706.65 L 14.50 709.65 L 16.30 711.97 L 18.25 713.71 L 20.37 714.95 L 26.36 722.62 L 31.07 729.37 L 34.66 735.30 L 37.29 740.50 L 39.10 745.06 L 40.22 749.05 L 40.74 752.57 L 41.38 756.82 L 42.65 761.06 L 43.86 763.77 L 45.39 766.32 L 47.25 768.71 L 49.40 770.83 L 51.92 772.66 L 54.86 774.21 L 57.99 775.32 L 61.61 776.02 L 65.81 776.27 L 70.00 776.00 L 74.83 775.14 L 80.40 773.58 L 84.89 772.39 L 88.96 771.89 L 92.70 772.01 L 96.17 772.70 L 99.42 773.96 L 102.51 775.81 L 105.46 778.30 L 108.29 781.52 L 111.01 785.58 L 113.59 790.62 L 116.01 796.79 L 118.24 804.26 L 122.58 809.52 L 127.33 814.33 L 132.49 818.70 L 138.10 822.66 L 144.17 826.21 L 150.76 829.34 L 157.88 832.05 L 165.60 834.33 L 173.97 836.14 L 183.02 837.47 L 192.83 838.28 L 203.45 838.53 L 214.94 838.17 L 227.37 837.15 L 236.45 835.90 L 243.77 834.35 L 249.57 832.57 L 254.09 830.61 L 257.56 828.53 L 260.15 826.35 L 262.01 824.07 L 263.25 821.66 L 263.92 819.07 L 264.04 816.24 L 263.54 813.09 L 262.33 809.52 L 260.26 805.46 L 257.15 800.79 L 252.78 795.44 L 246.90 789.30 L 239.25 782.28 L 229.54 774.27 L 217.44 765.15 L 204.81 760.39 L 194.77 757.02 L 186.92 754.79 L 180.90 753.48 L 178.55 752.82 L 176.46 751.73 L 174.61 750.18 L 172.95 748.13 L 171.50 745.46 L 170.27 742.07 L 169.32 737.80 L 168.72 732.49 L 168.54 725.97 L 168.30 722.74 L 167.56 719.75 L 166.34 716.95 L 164.60 714.29 L 162.30 711.76 L 159.36 709.34 L 155.68 707.04 L 151.15 704.87 L 145.62 702.86 L 140.07 700.80 L 135.70 698.61 L 132.32 696.31 L 129.77 693.92 L 127.92 691.44 L 126.69 688.83 L 126.02 686.05 L 125.92 683.03 L 126.42 679.72 L 123.31 675.61 L 120.24 672.42 L 117.22 670.03 L 114.21 668.32 L 111.18 667.22 L 108.10 666.69 L 104.92 666.72 L 101.58 667.32 L 98.02 668.56 L 94.21 670.52 L 90.08 673.31 L 85.35 676.59 L 81.00 679.01 L 76.97 680.69 L 73.23 681.71 L 69.73 682.15 L 66.41 682.06 L 63.24 681.45 L 60.16 680.33 L 57.15 678.67 L 54.17 676.40 Z" fill="url(#linearGradient-6)" fill-rule="nonzero" group-id="2,10,14" id="路径-61" node-id="117" stroke="none" target-height="171.84003" target-width="254.35" target-x="9.69" target-y="666.69"></path><path d="M 52.64 691.51 L 100.91 723.73 L 98.81 713.79 L 96.63 705.35 L 94.38 698.25 L 92.09 692.33 L 91.09 689.81 L 91.12 689.73 L 92.59 692.66 L 95.51 699.39 L 98.87 708.18 L 100.42 712.86 L 101.67 717.31 L 102.56 721.63 L 102.89 725.05 L 143.13 751.91 L 143.02 751.75 L 143.55 740.36 L 143.57 731.42 L 143.20 724.53 L 142.54 719.35 L 141.68 715.55 L 142.40 717.00 L 143.28 720.05 L 144.00 723.56 L 144.70 728.00 L 145.71 737.49 L 146.00 742.32 L 146.10 746.65 L 145.98 750.71 L 145.64 753.59 L 182.66 778.29 L 182.32 777.88 L 182.59 775.54 L 183.06 769.84 L 183.22 762.80 L 183.00 759.30 L 182.54 756.41 L 183.07 757.51 L 183.67 760.01 L 184.50 766.44 L 184.92 773.69 L 184.84 779.75 L 215.39 800.14 L 211.52 804.01 L 179.98 781.68 L 177.03 783.20 L 173.95 784.44 L 170.75 785.40 L 165.90 786.41 L 161.44 786.93 L 157.21 787.09 L 154.12 786.94 L 160.72 786.08 L 166.15 784.88 L 170.59 783.39 L 174.16 781.67 L 177.02 779.75 L 178.31 780.68 L 179.52 781.35 L 90.70 718.45 L 91.26 719.14 L 84.51 719.87 L 78.13 720.12 L 72.10 719.91 L 66.39 719.27 L 60.97 718.21 L 55.82 716.76 L 56.13 716.55 L 56.97 716.48 L 58.76 716.74 L 65.80 718.00 L 70.42 718.54 L 76.13 718.75 L 80.03 718.60 L 84.29 718.10 L 88.93 717.21 L 52.64 691.51 Z M 93.97 768.36 L 97.97 768.19 L 102.46 767.40 L 107.51 765.89 L 113.21 763.55 L 119.65 760.24 L 126.93 755.82 L 135.14 750.09 L 137.36 752.31 L 131.86 756.32 L 126.51 759.68 L 121.29 762.42 L 115.88 764.77 L 110.87 766.51 L 106.24 767.69 L 101.50 768.43 L 97.44 768.63 L 93.97 768.36 Z" fill="url(#linearGradient-7)" fill-rule="nonzero" group-id="2,10,15" id="形状结合" node-id="118" stroke="none" target-height="114.28003" target-width="162.75" target-x="52.64" target-y="689.73"></path><path d="M 89.57 607.28 L 82.12 602.51 L 75.77 599.03 L 70.37 596.62 L 65.80 595.11 L 61.93 594.33 L 58.65 594.17 L 55.86 594.51 L 53.45 595.31 L 51.37 596.55 L 49.55 598.24 L 47.96 600.45 L 46.63 603.29 L 45.57 606.88 L 44.85 611.37 L 44.56 616.95 L 44.79 623.79 L 47.76 635.24 L 50.12 645.00 L 52.02 654.32 L 53.15 662.44 L 53.51 667.75 L 53.45 672.78 L 53.01 677.56 L 52.72 680.49 L 52.68 683.80 L 52.93 687.54 L 53.48 691.23 L 54.40 695.11 L 55.71 699.21 L 57.38 703.18 L 59.52 707.16 L 62.18 711.19 L 65.22 714.94 L 68.87 718.57 L 73.19 722.09 L 76.61 724.41 L 80.45 726.59 L 84.76 728.63 L 89.57 730.51 L 95.67 732.89 L 100.51 735.31 L 104.28 737.72 L 107.14 740.14 L 109.24 742.55 L 110.71 744.98 L 111.60 747.45 L 111.98 750.01 L 111.84 752.72 L 111.13 755.63 L 109.79 758.80 L 107.69 762.30 L 107.18 765.73 L 107.24 768.99 L 107.83 772.13 L 108.96 775.18 L 110.68 778.19 L 113.05 781.20 L 116.17 784.21 L 120.16 787.24 L 125.15 790.27 L 131.31 793.31 L 138.79 796.33 L 147.79 799.31 L 158.50 802.22 L 171.14 805.02 L 185.91 807.68 L 198.13 809.43 L 208.17 810.47 L 216.32 810.92 L 222.64 810.93 L 227.87 810.64 L 232.15 810.10 L 235.60 809.36 L 239.17 808.18 L 241.93 806.84 L 244.03 805.35 L 245.59 803.73 L 246.82 801.79 L 247.65 799.68 L 248.08 797.36 L 248.10 794.78 L 247.61 791.36 L 246.59 787.54 L 244.95 783.26 L 241.91 776.93 L 237.97 769.93 L 228.97 755.52 L 223.45 749.62 L 219.47 744.63 L 217.17 741.24 L 215.38 738.13 L 214.02 735.26 L 212.47 730.83 L 211.56 726.58 L 211.10 722.28 L 210.98 717.80 L 211.18 714.69 L 211.68 711.18 L 212.75 703.81 L 212.93 700.01 L 212.61 696.23 L 212.05 693.77 L 211.08 691.36 L 209.69 688.97 L 207.95 686.82 L 205.56 684.69 L 202.42 682.57 L 199.04 680.84 L 194.70 679.16 L 189.22 677.56 L 185.70 676.49 L 182.51 674.97 L 179.61 673.00 L 176.97 670.54 L 174.56 667.55 L 172.40 663.95 L 170.49 659.68 L 168.87 654.61 L 167.57 648.66 L 166.65 641.69 L 166.16 633.59 L 165.36 630.57 L 164.13 628.02 L 162.48 625.88 L 160.39 624.08 L 157.78 622.61 L 154.55 621.49 L 150.58 620.77 L 145.73 620.53 L 139.84 620.86 L 132.72 621.90 L 124.19 623.79 L 120.64 624.23 L 117.08 624.17 L 113.50 623.61 L 109.84 622.52 L 106.09 620.87 L 102.21 618.61 L 98.18 615.64 L 93.97 611.90 L 89.57 607.28 Z" fill="url(#linearGradient-8)" fill-rule="nonzero" group-id="2,10" id="路径-65" node-id="119" stroke="none" target-height="216.76001" target-width="203.54001" target-x="44.56" target-y="594.17"></path><path d="M 74.94 624.74 L 110.38 669.80 L 110.45 669.63 L 112.15 664.88 L 113.30 660.18 L 113.94 655.50 L 114.07 650.82 L 113.69 646.11 L 112.80 641.35 L 112.72 641.04 L 112.73 641.08 L 114.67 646.87 L 115.51 650.05 L 116.08 653.65 L 116.20 657.44 L 115.67 661.87 L 114.96 664.84 L 113.80 668.21 L 112.12 672.01 L 142.15 710.19 L 142.34 709.92 L 144.95 705.70 L 147.13 701.02 L 148.89 695.81 L 150.20 690.03 L 151.02 683.61 L 151.30 676.46 L 151.71 678.46 L 151.97 682.22 L 151.91 686.42 L 151.45 691.61 L 150.55 696.95 L 149.07 702.49 L 147.74 706.11 L 146.10 709.52 L 144.14 712.73 L 170.75 746.55 L 173.02 742.51 L 174.29 739.67 L 175.48 736.17 L 176.31 732.45 L 176.63 728.40 L 176.98 731.31 L 177.09 734.61 L 176.84 738.01 L 176.10 741.66 L 175.31 744.05 L 174.20 746.52 L 172.74 749.08 L 212.00 799.00 L 205.77 799.00 L 167.82 748.45 L 163.16 750.26 L 159.08 751.56 L 155.50 752.43 L 150.20 753.24 L 145.94 753.38 L 141.97 753.05 L 138.86 752.43 L 136.06 751.55 L 134.01 750.70 L 138.18 751.48 L 142.43 751.78 L 146.77 751.61 L 151.25 750.94 L 155.88 749.76 L 160.70 748.01 L 165.73 745.66 L 136.86 707.22 L 137.36 708.13 L 130.09 710.39 L 123.00 712.07 L 115.94 713.23 L 109.43 713.82 L 103.13 713.88 L 97.74 713.41 L 94.27 712.76 L 91.39 711.90 L 89.00 710.87 L 92.28 711.85 L 96.10 712.49 L 100.56 712.73 L 105.76 712.51 L 111.78 711.76 L 118.75 710.37 L 126.77 708.26 L 135.98 705.31 L 135.55 705.46 L 103.38 662.62 L 103.56 663.14 L 98.17 663.21 L 93.20 662.74 L 88.59 661.78 L 84.31 660.34 L 80.30 658.43 L 76.55 656.02 L 73.03 653.11 L 69.72 649.65 L 70.21 649.61 L 71.49 650.37 L 75.34 653.19 L 78.00 654.89 L 81.52 656.74 L 85.43 658.33 L 90.28 659.67 L 93.67 660.26 L 97.51 660.58 L 101.86 660.61 L 74.94 624.74 Z" fill="url(#linearGradient-9)" fill-rule="nonzero" group-id="2,10,16" id="形状结合" node-id="120" stroke="none" target-height="174.26001" target-width="142.28" target-x="69.72" target-y="624.74"></path><path d="M 199.20 608.75 L 202.76 604.29 L 205.99 601.10 L 208.92 598.96 L 211.62 597.66 L 214.16 597.07 L 216.59 597.08 L 219.00 597.70 L 221.46 598.99 L 224.02 601.05 L 226.71 604.09 L 229.55 608.32 L 232.55 614.01 L 233.68 619.31 L 234.29 624.01 L 235.21 632.61 L 235.70 635.21 L 236.44 637.65 L 237.45 639.95 L 238.77 642.06 L 240.63 644.14 L 243.12 646.20 L 245.87 647.92 L 249.56 649.70 L 254.37 651.51 L 258.45 653.12 L 261.68 654.90 L 264.19 656.83 L 266.10 658.90 L 267.48 661.13 L 268.38 663.55 L 268.82 666.22 L 268.75 669.19 L 268.13 672.54 L 266.85 676.35 L 264.79 680.69 L 261.81 685.66 L 260.43 689.47 L 259.82 692.72 L 259.83 695.50 L 260.38 697.91 L 261.45 700.06 L 263.07 701.98 L 265.34 703.72 L 268.38 705.26 L 272.39 706.57 L 275.08 707.52 L 277.09 708.76 L 278.58 710.27 L 279.60 712.08 L 280.18 714.27 L 280.28 716.94 L 279.77 720.24 L 278.52 724.30 L 276.32 729.29 L 272.94 735.39 L 268.12 742.79 L 265.93 748.48 L 264.73 753.10 L 264.31 756.84 L 264.52 759.86 L 265.25 762.32 L 266.44 764.33 L 268.12 765.99 L 270.46 767.98 L 273.22 770.93 L 274.92 773.15 L 276.55 775.79 L 278.11 778.91 L 279.33 782.15 L 280.26 785.88 L 280.87 790.15 L 281.00 794.45 L 280.60 799.34 L 279.59 804.90 L 278.06 810.31 L 275.71 816.44 L 272.39 823.38 L 270.25 826.95 L 268.03 829.95 L 265.73 832.44 L 263.35 834.47 L 259.79 836.76 L 256.15 838.39 L 252.38 839.40 L 248.48 839.88 L 244.54 839.88 L 240.53 839.40 L 236.57 838.52 L 232.69 837.29 L 228.86 835.72 L 223.40 832.87 L 218.44 829.59 L 213.95 825.93 L 210.32 822.27 L 208.21 819.63 L 206.65 817.21 L 205.56 814.98 L 204.55 811.71 L 203.94 808.32 L 203.73 804.78 L 203.96 799.43 L 204.65 793.97 L 206.48 783.35 L 207.18 778.26 L 207.40 773.74 L 207.18 770.83 L 206.56 768.26 L 205.56 765.99 L 204.30 764.32 L 202.54 762.64 L 200.18 760.95 L 196.34 758.62 L 191.83 756.10 L 187.25 753.44 L 182.68 750.43 L 179.81 748.18 L 177.21 745.69 L 174.89 742.94 L 172.98 739.92 L 171.55 736.51 L 170.61 732.62 L 170.33 729.69 L 170.44 726.40 L 170.98 722.68 L 172.01 718.47 L 174.60 714.63 L 177.14 711.33 L 179.63 708.15 L 181.78 705.12 L 183.01 703.02 L 183.98 700.81 L 184.68 698.45 L 185.05 696.03 L 185.03 693.23 L 184.58 689.97 L 183.76 686.79 L 182.34 682.94 L 180.22 678.31 L 177.38 672.97 L 175.21 669.25 L 171.88 663.77 L 170.88 661.72 L 170.47 660.09 L 170.55 658.44 L 171.23 656.43 L 172.38 654.25 L 174.39 651.03 L 180.22 642.12 L 183.51 638.32 L 187.04 633.31 L 190.83 626.88 L 194.88 618.79 L 199.20 608.75 Z" fill="url(#linearGradient-10)" fill-rule="nonzero" group-id="2,10" id="路径-96" node-id="121" stroke="none" target-height="242.81" target-width="110.67" target-x="170.33" target-y="597.07"></path><path d="M 216.11 638.51 L 227.46 695.42 L 233.00 686.91 L 237.42 679.40 L 240.85 672.79 L 243.42 666.99 L 244.50 664.50 L 244.57 664.46 L 243.54 667.58 L 240.85 674.40 L 237.01 682.99 L 234.79 687.39 L 232.53 691.42 L 230.11 695.11 L 227.92 697.76 L 237.38 745.21 L 237.42 745.02 L 245.84 737.34 L 252.18 731.03 L 256.79 725.90 L 259.99 721.76 L 262.07 718.47 L 261.54 720.00 L 260.01 722.78 L 258.04 725.77 L 255.40 729.40 L 249.40 736.83 L 246.20 740.45 L 243.20 743.59 L 240.24 746.37 L 237.97 748.17 L 246.68 791.81 L 246.73 791.28 L 248.58 789.82 L 252.94 786.12 L 258.03 781.25 L 260.35 778.62 L 262.07 776.25 L 261.66 777.41 L 260.32 779.60 L 256.36 784.74 L 251.53 790.16 L 247.19 794.39 L 254.37 830.40 L 248.90 830.40 L 242.39 792.31 L 239.23 791.30 L 236.18 790.00 L 233.23 788.41 L 229.08 785.70 L 225.57 782.92 L 222.47 780.04 L 220.38 777.75 L 225.65 781.81 L 230.35 784.80 L 234.53 786.88 L 238.28 788.20 L 241.66 788.86 L 241.92 790.42 L 242.29 791.75 L 223.96 684.47 L 223.87 685.35 L 218.58 681.10 L 213.90 676.76 L 209.79 672.35 L 206.20 667.86 L 203.11 663.29 L 200.50 658.61 L 200.87 658.69 L 201.50 659.23 L 202.59 660.68 L 206.68 666.55 L 209.57 670.20 L 213.45 674.38 L 216.32 677.04 L 219.68 679.69 L 223.60 682.34 L 216.11 638.51 Z M 190.99 722.08 L 193.94 724.79 L 197.67 727.40 L 202.31 729.90 L 207.99 732.28 L 214.89 734.50 L 223.17 736.51 L 233.02 738.27 L 233.02 741.41 L 226.29 740.36 L 220.14 738.94 L 214.51 737.20 L 209.01 735.03 L 204.25 732.72 L 200.14 730.27 L 196.26 727.45 L 193.25 724.72 L 190.99 722.08 Z" fill="url(#linearGradient-7)" fill-rule="nonzero" group-id="2,10" id="形状结合" node-id="122" stroke="none" target-height="191.89001" target-width="71.08" target-x="190.99" target-y="638.51"></path><path d="M 938.40 787.52 L 938.95 781.38 L 938.93 776.07 L 938.44 771.49 L 937.51 767.55 L 936.21 764.15 L 934.55 761.23 L 932.54 758.73 L 930.16 756.60 L 927.38 754.81 L 924.14 753.38 L 920.38 752.30 L 916.00 751.63 L 920.95 751.41 L 925.50 751.63 L 929.69 752.27 L 933.56 753.29 L 937.14 754.69 L 940.61 756.53 L 943.72 758.70 L 946.51 761.19 L 948.98 764.04 L 951.16 767.26 L 952.93 770.65 L 954.34 774.33 L 955.40 778.35 L 956.09 782.73 L 956.38 787.52 L 948.50 787.65 L 938.40 787.52 Z" fill="url(#linearGradient-11)" fill-rule="nonzero" group-id="2,11" id="路径-38" node-id="124" stroke="none" target-height="36.24005" target-width="40.380005" target-x="916" target-y="751.41"></path><path d="M 950.12 787.65 L 951.21 781.17 L 951.68 775.22 L 951.58 769.76 L 950.96 764.72 L 949.84 760.06 L 948.24 755.73 L 946.18 751.69 L 943.62 747.92 L 940.56 744.39 L 936.95 741.08 L 932.73 738.00 L 937.89 739.74 L 942.70 741.69 L 947.18 743.86 L 951.44 746.39 L 955.38 749.38 L 959.04 752.83 L 961.47 755.66 L 963.76 758.90 L 965.90 762.60 L 967.90 766.80 L 969.51 771.00 L 970.97 775.83 L 972.27 781.35 L 973.37 787.65 L 967.00 787.95 L 959.31 787.97 L 950.12 787.65 Z" fill="url(#linearGradient-12)" fill-rule="nonzero" group-id="2,11" id="路径-39" node-id="125" stroke="none" target-height="49.96997" target-width="40.640015" target-x="932.73" target-y="738"></path><path d="M 977.07 788.00 L 976.73 781.72 L 976.99 776.27 L 977.76 771.55 L 978.98 767.46 L 980.63 763.91 L 982.67 760.84 L 985.13 758.18 L 988.03 755.92 L 991.43 754.02 L 995.39 752.50 L 1000.00 751.39 L 995.13 751.29 L 990.16 751.39 L 986.86 751.67 L 983.55 752.24 L 980.22 753.13 L 977.02 754.38 L 973.78 756.16 L 970.49 758.54 L 967.52 761.30 L 964.47 764.91 L 961.33 769.53 L 958.63 774.39 L 955.86 780.48 L 953.05 788.00 L 968.31 787.74 L 977.07 788.00 Z" fill="none" group-id="2,11" id="路径-40" node-id="126" stroke="none" target-height="36.710022" target-width="46.950012" target-x="953.05" target-y="751.29"></path><path d="M 927.41 802.00 L 933.64 801.98 L 939.14 801.82 L 942.72 801.51 L 945.83 800.97 L 948.52 800.23 L 951.03 799.11 L 953.09 797.60 L 954.75 795.68 L 955.66 794.05 L 956.36 792.05 L 956.82 789.60 L 957.00 786.61 L 956.71 782.68 L 955.91 778.99 L 954.60 775.47 L 952.83 772.16 L 950.66 769.14 L 948.07 766.38 L 945.15 763.97 L 941.92 761.92 L 938.37 760.25 L 934.64 759.03 L 930.70 758.27 L 926.50 758.00 L 922.30 758.27 L 918.36 759.03 L 914.63 760.25 L 911.08 761.92 L 907.85 763.97 L 904.93 766.38 L 902.34 769.14 L 900.17 772.16 L 898.40 775.47 L 897.09 778.99 L 896.29 782.68 L 896.00 786.61 L 896.20 789.58 L 896.72 792.02 L 897.51 794.03 L 898.54 795.68 L 900.37 797.58 L 902.63 799.10 L 905.39 800.23 L 908.32 800.98 L 911.64 801.51 L 915.40 801.82 L 921.13 801.98 L 927.41 802.00 Z" fill="url(#linearGradient-14)" fill-rule="nonzero" group-id="2,11" id="椭圆形" node-id="127" stroke="none" target-height="44" target-width="61" target-x="896" target-y="758"></path><path d="M 960.57 802.00 L 967.88 801.89 L 971.11 801.55 L 973.72 800.91 L 975.28 800.22 L 976.56 799.30 L 977.60 798.12 L 978.32 796.74 L 978.81 794.92 L 979.00 792.56 L 978.68 789.36 L 977.82 786.43 L 976.41 783.69 L 974.53 781.25 L 972.27 779.15 L 969.59 777.40 L 966.66 776.10 L 963.48 775.30 L 960.00 775.00 L 956.52 775.30 L 953.34 776.10 L 950.41 777.40 L 947.73 779.15 L 945.47 781.25 L 943.59 783.69 L 942.18 786.43 L 941.32 789.36 L 941.00 792.56 L 941.21 794.91 L 941.76 796.73 L 942.58 798.12 L 943.72 799.29 L 945.13 800.22 L 946.85 800.91 L 949.68 801.55 L 953.08 801.89 L 960.57 802.00 Z" fill="url(#linearGradient-15)" fill-rule="nonzero" group-id="2,11" id="椭圆形备份-6" node-id="128" stroke="none" target-height="27" target-width="38" target-x="941" target-y="775"></path></g><g node-id="347"><path d="M 354.09 771.39 L 364.86 773.16 L 371.93 774.61 L 377.80 776.24 L 380.69 777.48 L 382.06 778.51 L 382.47 779.32 L 382.31 780.06 L 381.70 780.76 L 380.57 781.54 L 378.68 782.42 L 375.64 783.49 L 371.75 784.63 L 363.41 786.76 L 357.29 788.45 L 352.82 789.95 L 349.68 791.27 L 346.72 792.93 L 345.02 794.34 L 344.18 795.54 L 343.85 796.89 L 344.08 798.21 L 344.95 799.59 L 346.95 801.44 L 350.06 803.45 L 353.56 805.28 L 357.56 807.15 L 360.62 808.29 L 365.89 809.75 L 374.22 811.58 L 387.45 813.93 L 405.84 816.58 L 425.91 818.92 L 450.39 821.22 L 476.28 823.08 L 505.86 824.59 L 526.00 825.26 L 547.43 825.66 L 570.21 825.76 L 592.95 825.52 L 616.68 824.87 L 641.42 823.82 L 666.10 822.34 L 691.45 820.35 L 717.47 817.84 L 738.58 815.40 L 756.83 812.95 L 772.49 810.52 L 788.08 807.71 L 801.13 804.98 L 811.92 802.34 L 822.62 799.26 L 831.10 796.36 L 837.69 793.65 L 842.67 791.19 L 846.56 788.90 L 849.53 786.78 L 851.74 784.80 L 853.77 782.41 L 855.09 780.21 L 855.81 778.14 L 856.02 776.15 L 855.79 774.12 L 855.14 772.11 L 854.06 770.09 L 852.46 768.04 L 849.99 765.63 L 846.87 763.22 L 843.01 760.83 L 838.98 758.73 L 834.52 756.74 L 829.61 754.86 L 821.91 752.48 L 809.45 749.35 L 795.38 746.35 L 777.07 742.94 L 757.36 739.73 L 733.93 736.41 L 709.30 733.41 L 681.48 730.56 L 652.66 728.16 L 621.17 726.17 L 599.89 725.18 L 577.66 724.46 L 554.47 724.04 L 531.30 723.97 L 507.42 724.27 L 482.82 724.96 L 445.44 726.66 L 415.70 728.59 L 396.72 730.19 L 380.98 731.78 L 368.11 733.36 L 355.28 735.25 L 345.42 737.00 L 338.03 738.62 L 330.67 740.66 L 326.07 742.36 L 323.44 743.75 L 318.71 747.05 L 315.34 750.00 L 313.55 752.16 L 312.60 754.11 L 312.31 755.91 L 312.52 757.20 L 313.18 758.52 L 314.41 759.93 L 316.39 761.45 L 319.23 763.02 L 323.51 764.74 L 329.63 766.62 L 335.82 768.13 L 343.87 769.72 L 354.09 771.39 Z" fill="url(#linearGradient-16)" fill-opacity="0.4" fill-rule="nonzero" group-id="3" id="路径" node-id="129" stroke="none" target-height="101.79004" target-width="543.71" target-x="312.31" target-y="723.97"></path></g><g node-id="348"><g node-id="356"><path d="M 396.04 541.17 L 604.38 514.96 L 604.38 618.90 L 399.37 642.85 Z" fill="url(#linearGradient-17)" fill-rule="nonzero" group-id="4,12" id="路径" node-id="132" stroke="none" target-height="127.88995" target-width="208.34" target-x="396.04" target-y="514.96"></path><path d="M 769.40 548.88 L 604.41 514.96 L 604.38 631.83 L 769.40 665.54 Z" fill="url(#linearGradient-18)" fill-rule="nonzero" group-id="4,12" id="路径" node-id="133" stroke="none" target-height="150.57996" target-width="165.02002" target-x="604.38" target-y="514.96"></path><path d="M 575.50 593.70 L 398.10 547.96 L 398.10 764.20 L 575.50 809.94 Z" fill="url(#linearGradient-19)" fill-rule="nonzero" group-id="4,12" id="路径" node-id="134" stroke="none" target-height="261.97998" target-width="177.4" target-x="398.1" target-y="547.96"></path><path d="M 767.34 554.15 L 573.44 592.82 L 574.57 809.94 L 767.34 766.87 Z" fill="url(#linearGradient-20)" fill-rule="nonzero" group-id="4,12" id="路径" node-id="135" stroke="none" target-height="255.78998" target-width="193.90002" target-x="573.44" target-y="554.15"></path><path d="M 573.44 593.71 L 769.06 552.09 L 810.66 628.76 L 611.72 675.86 Z" fill="url(#linearGradient-21)" fill-rule="nonzero" group-id="4,12" id="路径" node-id="136" stroke="none" target-height="123.76996" target-width="237.21997" target-x="573.44" target-y="552.09"></path><path d="M 573.44 592.76 L 395.86 543.84 L 350.66 619.98 L 520.74 675.86 Z" fill="url(#linearGradient-22)" fill-rule="nonzero" group-id="4,12" id="路径" node-id="137" stroke="none" target-height="132.01996" target-width="222.78" target-x="350.66" target-y="543.84"></path></g><g node-id="357"><g node-id="361"><path d="M 806.41 625.96 L 808.19 622.77 L 809.51 620.44 L 810.27 619.59 L 811.26 618.95 L 812.58 618.62 L 814.47 618.65 L 816.44 619.03 L 818.37 619.72 L 820.08 620.72 L 821.20 621.90 L 823.62 625.91 L 826.04 630.15 L 827.68 633.03 L 829.22 635.91 L 831.50 640.87 L 832.54 643.65 L 833.24 646.23 L 833.49 647.95 L 833.43 649.27 L 833.13 650.30 L 832.31 651.34 L 831.26 651.94 L 829.90 652.12 L 828.48 651.91 L 826.85 651.32 L 824.96 650.25 L 822.32 648.16 L 819.53 645.13 L 815.45 639.73 L 811.57 634.28 L 808.68 630.07 L 807.54 628.39 L 806.41 625.96 Z" fill="#333333" fill-rule="nonzero" group-id="4,13,17" id="路径" node-id="139" stroke="none" target-height="33.5" target-width="27.080017" target-x="806.41" target-y="618.62"></path></g><g node-id="362"><path d="M 813.41 591.96 L 815.19 588.77 L 816.51 586.44 L 817.27 585.59 L 818.26 584.95 L 819.58 584.62 L 821.47 584.65 L 823.44 585.03 L 825.37 585.72 L 827.08 586.72 L 828.20 587.90 L 830.62 591.91 L 833.04 596.15 L 834.68 599.03 L 836.22 601.91 L 838.50 606.87 L 839.54 609.65 L 840.24 612.23 L 840.49 613.95 L 840.43 615.27 L 840.13 616.30 L 839.31 617.34 L 838.26 617.94 L 836.90 618.12 L 835.48 617.91 L 833.85 617.32 L 831.96 616.25 L 829.32 614.16 L 826.53 611.13 L 822.45 605.73 L 818.57 600.28 L 815.68 596.07 L 814.54 594.39 L 813.41 591.96 Z" fill="#333333" fill-rule="nonzero" group-id="4,13,18" id="路径" node-id="140" stroke="none" target-height="33.5" target-width="27.080017" target-x="813.41" target-y="584.62"></path></g><path d="M 723.89 554.77 L 729.09 555.53 L 733.86 556.77 L 738.25 558.46 L 742.28 560.58 L 746.00 563.16 L 749.44 566.21 L 752.60 569.76 L 755.50 573.85 L 758.13 578.55 L 760.48 583.92 L 762.53 590.02 L 764.24 596.94 L 765.21 598.56 L 765.95 600.33 L 767.34 603.94 L 768.27 605.58 L 769.58 607.01 L 770.65 607.75 L 772.05 608.36 L 773.88 608.81 L 776.92 609.01 L 781.42 608.59 L 786.58 606.36 L 792.51 603.12 L 799.34 598.68 L 807.17 592.84 L 816.13 585.37 L 818.79 586.58 L 820.86 588.04 L 822.44 589.73 L 823.58 591.68 L 824.31 593.95 L 824.60 596.61 L 824.40 599.74 L 820.67 603.40 L 812.99 609.94 L 799.37 620.67 L 777.40 637.17 L 772.80 639.43 L 768.65 640.93 L 764.90 641.76 L 761.49 642.01 L 758.35 641.74 L 755.43 640.97 L 752.68 639.71 L 750.07 637.93 L 747.57 635.56 L 745.17 632.52 L 742.87 628.71 L 740.70 624.00 L 739.55 620.81 L 737.61 617.06 L 734.70 612.63 L 730.60 607.41 L 725.09 601.29 L 717.89 594.14 L 708.74 585.83 L 697.32 576.22 L 723.89 554.77 Z" fill="url(#linearGradient-23)" fill-rule="nonzero" group-id="4,13" id="路径-114" node-id="141" stroke="none" target-height="87.23999" target-width="127.27997" target-x="697.32" target-y="554.77"></path><path d="M 709.40 552.79 L 713.86 553.45 L 718.11 554.66 L 722.18 556.44 L 726.11 558.79 L 729.92 561.78 L 733.62 565.46 L 737.23 569.90 L 740.73 575.21 L 744.13 581.48 L 747.40 588.83 L 750.51 597.39 L 753.44 607.28 L 755.25 614.34 L 756.09 617.32 L 756.97 619.68 L 758.16 621.70 L 759.71 623.23 L 760.95 623.96 L 762.54 624.53 L 764.57 624.91 L 770.14 624.01 L 783.71 622.32 L 810.66 619.43 L 813.12 620.76 L 814.93 622.23 L 816.20 623.82 L 817.01 625.57 L 817.38 627.53 L 817.30 629.76 L 816.69 632.35 L 815.43 635.38 L 813.29 636.73 L 809.17 638.67 L 802.19 641.39 L 791.26 645.09 L 775.14 650.04 L 768.96 651.37 L 763.41 652.02 L 758.42 652.07 L 753.91 651.58 L 749.83 650.59 L 746.11 649.13 L 742.71 647.19 L 739.60 644.77 L 736.74 641.82 L 734.14 638.29 L 728.91 632.81 L 719.64 624.09 L 704.76 610.98 L 682.44 592.17 L 709.40 552.79 Z" fill="url(#linearGradient-24)" fill-rule="nonzero" group-id="4,13" id="路径-113" node-id="142" stroke="none" target-height="99.28003" target-width="134.94" target-x="682.44" target-y="552.79"></path><path d="M 735.92 551.84 L 726.28 546.35 L 717.12 541.81 L 708.39 538.14 L 700.05 535.28 L 692.09 533.17 L 684.45 531.76 L 677.11 531.02 L 670.04 530.90 L 663.19 531.39 L 656.55 532.47 L 650.08 534.14 L 643.75 536.41 L 637.55 539.29 L 631.44 542.81 L 625.41 546.99 L 619.45 551.90 L 613.55 557.56 L 607.71 564.06 L 605.36 567.33 L 602.64 572.32 L 599.51 579.53 L 595.93 589.52 L 606.55 586.25 L 616.36 583.84 L 625.42 582.23 L 633.79 581.33 L 641.54 581.09 L 648.72 581.46 L 655.39 582.40 L 661.59 583.87 L 667.37 585.86 L 672.77 588.36 L 677.82 591.37 L 682.57 594.91 L 690.69 593.80 L 697.90 592.25 L 704.28 590.30 L 709.92 588.01 L 714.88 585.38 L 719.24 582.43 L 723.05 579.17 L 726.35 575.59 L 729.18 571.67 L 731.55 567.37 L 733.47 562.67 L 734.94 557.51 L 735.92 551.84 Z" fill="url(#linearGradient-25)" fill-rule="nonzero" group-id="4,13" id="路径-112" node-id="143" stroke="none" target-height="64.00995" target-width="139.98999" target-x="595.93" target-y="530.9"></path></g></g><g node-id="349"><path d="M 640.89 409.02 L 637.33 407.74 L 634.11 407.13 L 631.15 407.11 L 628.38 407.63 L 625.75 408.70 L 623.20 410.36 L 620.72 412.69 L 618.29 415.81 L 615.91 419.87 L 613.60 425.05 L 611.40 431.52 L 609.35 439.52 L 607.50 449.26 L 615.22 446.50 L 621.66 443.67 L 626.99 440.80 L 631.34 437.90 L 634.83 434.98 L 637.58 432.05 L 639.67 429.08 L 641.19 426.07 L 642.18 422.98 L 642.65 419.77 L 642.62 416.41 L 642.05 412.84 L 640.89 409.02 Z" fill="url(#linearGradient-26)" fill-rule="nonzero" group-id="5" id="路径-15" node-id="145" stroke="none" target-height="42.150024" target-width="35.150024" target-x="607.5" target-y="407.11"></path><path d="M 652.52 398.66 L 645.07 404.70 L 638.99 410.24 L 634.09 415.31 L 630.23 419.96 L 627.27 424.22 L 625.10 428.15" fill="none" group-id="5" id="路径-16" node-id="146" stroke="url(#linearGradient-27)" stroke-linecap="round" stroke-width="2" target-height="29.48999" target-width="27.420044" target-x="625.1" target-y="398.66"></path><path d="M 813.31 269.03 L 805.11 281.90 L 797.47 293.04 L 790.35 302.59 L 783.73 310.71 L 777.57 317.55 L 771.83 323.23 L 766.50 327.87 L 761.53 331.60 L 756.89 334.52 L 752.55 336.73 L 748.79 338.64 L 745.14 339.99 L 741.58 340.83 L 737.94 341.24 L 734.56 341.21 L 731.40 340.76 L 728.33 339.90 L 725.67 338.72 L 723.36 337.22 L 721.36 335.36 L 719.86 333.26 L 718.82 330.89 L 718.38 328.36 L 718.31 325.55 L 718.65 322.72 L 719.44 320.06 L 720.24 318.41 L 721.24 317.00 L 722.47 315.81 L 723.90 314.91 L 725.60 314.35 L 727.66 314.16 L 729.72 314.37 L 732.22 315.10 L 735.27 316.48 L 737.41 318.12 L 739.07 319.94 L 740.31 321.95 L 741.20 324.16 L 741.76 326.48 L 742.01 328.96 L 741.86 332.72 L 741.19 336.54 L 740.08 340.25 L 738.66 343.70 L 736.98 346.89 L 735.27 349.46 L 732.47 352.53 L 728.59 356.04 L 724.27 359.43 L 719.31 362.86 L 714.11 366.06 L 708.77 368.95 L 703.35 371.44 L 698.31 373.31 L 694.90 374.26 L 691.90 374.80 L 689.26 374.99" fill="none" group-id="5" id="路径-2" node-id="147" stroke="url(#linearGradient-28)" stroke-linecap="round" stroke-width="2" target-height="105.95999" target-width="124.04999" target-x="689.26" target-y="269.03"></path><path d="M 340.42 490.13 L 340.45 497.63 L 339.96 504.57 L 338.99 510.99 L 337.55 516.93 L 335.68 522.45 L 333.38 527.57 L 330.66 532.34 L 327.51 536.77 L 323.91 540.89 L 319.85 544.72 L 315.29 548.26 L 310.19 551.52 L 304.51 554.50" fill="none" group-id="5" id="路径-17" node-id="148" stroke="url(#linearGradient-29)" stroke-linecap="round" stroke-width="2" target-height="64.369995" target-width="35.940002" target-x="304.51" target-y="490.13"></path><path d="M 284.94 568.66 L 282.41 565.84 L 279.89 563.85 L 277.35 562.56 L 274.76 561.89 L 272.05 561.80 L 269.15 562.33 L 265.98 563.55 L 262.49 565.61 L 258.59 568.66 L 256.60 570.72 L 254.70 572.95 L 250.91 577.34 L 248.85 579.25 L 246.61 580.75 L 245.00 581.49 L 243.22 581.95 L 241.22 582.13 L 248.75 584.45 L 255.20 585.87 L 260.72 586.53 L 265.43 586.54 L 269.46 585.99 L 272.90 584.97 L 275.85 583.50 L 278.39 581.59 L 280.56 579.23 L 282.38 576.34 L 283.85 572.85 L 284.94 568.66 Z" fill="url(#linearGradient-30)" fill-rule="nonzero" group-id="5" id="路径-18" node-id="149" stroke="none" target-height="24.73999" target-width="43.72" target-x="241.22" target-y="561.8"></path><path d="M 296.02 561.77 L 294.91 563.39 L 293.06 565.16 L 290.23 567.13 L 286.16 569.30 L 280.52 571.69 L 272.96 574.31 L 263.08 577.16" fill="none" group-id="5" id="路径-19" node-id="150" stroke="url(#linearGradient-31)" stroke-linecap="round" stroke-width="2" target-height="15.389954" target-width="32.940002" target-x="263.08" target-y="561.77"></path></g></svg>