<?xml version="1.0" standalone="no"?><!DOCTYPE svg PUBLIC "-//W3C//DTD SVG 1.1//EN" "http://www.w3.org/Graphics/SVG/1.1/DTD/svg11.dtd"><svg height="1024" node-id="1" sillyvg="true" template-height="1024" template-width="1024" version="1.1" viewBox="0 0 1024 1024" width="1024" xmlns="http://www.w3.org/2000/svg" xmlns:xlink="http://www.w3.org/1999/xlink"><defs node-id="130"><linearGradient gradientUnits="userSpaceOnUse" id="未命名的渐变_37" node-id="5" spreadMethod="pad" x1="26305.36" x2="26384.72" y1="-42886.72" y2="-42888.098"><stop offset="0" stop-color="#98d6fa"></stop><stop offset="1" stop-color="#47b0f1"></stop></linearGradient><linearGradient gradientUnits="userSpaceOnUse" id="未命名的渐变_37-2" node-id="8" spreadMethod="pad" x1="26305.36" x2="26384.72" y1="-42886.72" y2="-42888.098"><stop offset="0" stop-color="#98d6fa"></stop><stop offset="1" stop-color="#47b0f1"></stop></linearGradient><linearGradient gradientUnits="userSpaceOnUse" id="未命名的渐变_3" node-id="9" spreadMethod="pad" x1="198806.11" x2="199736.11" y1="-228966.97" y2="-228966.97"><stop offset="0" stop-color="#fff5de"></stop><stop offset="1" stop-color="#fbd2ac"></stop></linearGradient><linearGradient gradientUnits="userSpaceOnUse" id="未命名的渐变_37-3" node-id="12" spreadMethod="pad" x1="15798.319" x2="15845.487" y1="-23888.906" y2="-23889.418"><stop offset="0" stop-color="#98d6fa"></stop><stop offset="1" stop-color="#47b0f1"></stop></linearGradient><linearGradient gradientUnits="userSpaceOnUse" id="未命名的渐变_37-4" node-id="13" spreadMethod="pad" x1="10883.409" x2="10916.618" y1="-16576.174" y2="-16576.527"><stop offset="0" stop-color="#98d6fa"></stop><stop offset="1" stop-color="#47b0f1"></stop></linearGradient><linearGradient gradientUnits="userSpaceOnUse" id="未命名的渐变_37-5" node-id="14" spreadMethod="pad" x1="10883.409" x2="10916.618" y1="-16576.174" y2="-16576.527"><stop offset="0" stop-color="#98d6fa"></stop><stop offset="1" stop-color="#47b0f1"></stop></linearGradient><linearGradient gradientUnits="userSpaceOnUse" id="未命名的渐变_37-6" node-id="15" spreadMethod="pad" x1="7478.883" x2="7501.544" y1="-11524.333" y2="-11524.578"><stop offset="0" stop-color="#98d6fa"></stop><stop offset="1" stop-color="#47b0f1"></stop></linearGradient><linearGradient gradientTransform="matrix(269.22 47.47 27.01 -153.15 -82548.68 133303.42)" gradientUnits="userSpaceOnUse" id="未命名的渐变_37-7" node-id="16" spreadMethod="pad" x1="213.04" x2="213.68" y1="931.65" y2="931.72"><stop offset="0" stop-color="#98d6fa"></stop><stop offset="1" stop-color="#47b0f1"></stop></linearGradient><linearGradient gradientTransform="matrix(50.26 -50.26 -135.69 -135.69 115943.22 138005.55)" gradientUnits="userSpaceOnUse" id="未命名的渐变_13" node-id="17" spreadMethod="pad" x1="213.03" x2="213.21" y1="932.64" y2="932.57"><stop offset="0.03" stop-color="#afdef9"></stop><stop offset="1" stop-color="#7cc9f9"></stop></linearGradient><linearGradient gradientUnits="userSpaceOnUse" id="未命名的渐变_37-8" node-id="20" spreadMethod="pad" x1="43370.684" x2="43480.617" y1="-201779.2" y2="-201831.23"><stop offset="0" stop-color="#98d6fa"></stop><stop offset="1" stop-color="#47b0f1"></stop></linearGradient><linearGradient gradientTransform="matrix(64.64 -31.53 -95 -194.77 74960.15 188980.58)" gradientUnits="userSpaceOnUse" id="未命名的渐变_13-2" node-id="21" spreadMethod="pad" x1="212.15" x2="212.28" y1="932.39" y2="932.32"><stop offset="0.03" stop-color="#afdef9"></stop><stop offset="1" stop-color="#7cc9f9"></stop></linearGradient><linearGradient gradientUnits="userSpaceOnUse" id="未命名的渐变_37-9" node-id="22" spreadMethod="pad" x1="23507.504" x2="23531.85" y1="-226021.66" y2="-226160.14"><stop offset="0" stop-color="#98d6fa"></stop><stop offset="1" stop-color="#47b0f1"></stop></linearGradient><linearGradient gradientUnits="userSpaceOnUse" id="未命名的渐变_13-3" node-id="23" spreadMethod="pad" x1="15016.36" x2="15028.444" y1="-178656.97" y2="-178643.53"><stop offset="0.03" stop-color="#afdef9"></stop><stop offset="1" stop-color="#7cc9f9"></stop></linearGradient><linearGradient gradientUnits="userSpaceOnUse" id="未命名的渐变_37-10" node-id="24" spreadMethod="pad" x1="8457.1875" x2="8441.035" y1="-33805.3" y2="-33833.215"><stop offset="0" stop-color="#98d6fa"></stop><stop offset="1" stop-color="#47b0f1"></stop></linearGradient><linearGradient gradientUnits="userSpaceOnUse" id="未命名的渐变_37-11" node-id="25" spreadMethod="pad" x1="8490.103" x2="8512.86" y1="-46595" y2="-46620.5"><stop offset="0" stop-color="#98d6fa"></stop><stop offset="1" stop-color="#47b0f1"></stop></linearGradient><linearGradient gradientUnits="userSpaceOnUse" id="未命名的渐变_37-12" node-id="26" spreadMethod="pad" x1="9834.147" x2="9874.055" y1="-34236.848" y2="-34247.86"><stop offset="0" stop-color="#98d6fa"></stop><stop offset="1" stop-color="#47b0f1"></stop></linearGradient><linearGradient gradientUnits="userSpaceOnUse" id="未命名的渐变_37-13" node-id="27" spreadMethod="pad" x1="12840.5" x2="12892.351" y1="-41019.44" y2="-41030.883"><stop offset="0" stop-color="#98d6fa"></stop><stop offset="1" stop-color="#47b0f1"></stop></linearGradient><linearGradient gradientUnits="userSpaceOnUse" id="未命名的渐变_37-14" node-id="28" spreadMethod="pad" x1="7918.4404" x2="7950.7397" y1="-25205.85" y2="-25212.6"><stop offset="0" stop-color="#98d6fa"></stop><stop offset="1" stop-color="#47b0f1"></stop></linearGradient><linearGradient gradientTransform="matrix(-249.25 35.03 -15.45 -109.92 68487.27 95754.85)" gradientUnits="userSpaceOnUse" id="未命名的渐变_19" node-id="29" spreadMethod="pad" x1="214.79" x2="215.79" y1="932.46" y2="932.46"><stop offset="0" stop-color="#f5dda7"></stop><stop offset="1" stop-color="#fa9a41"></stop></linearGradient><linearGradient gradientUnits="userSpaceOnUse" id="未命名的渐变_37-15" node-id="32" spreadMethod="pad" x1="62525.113" x2="62782.902" y1="-349707.47" y2="-349970.6"><stop offset="0" stop-color="#98d6fa"></stop><stop offset="1" stop-color="#47b0f1"></stop></linearGradient><linearGradient gradientUnits="userSpaceOnUse" id="未命名的渐变_37-16" node-id="33" spreadMethod="pad" x1="60236.55" x2="60428.55" y1="-346669.03" y2="-346419.53"><stop offset="0" stop-color="#98d6fa"></stop><stop offset="1" stop-color="#47b0f1"></stop></linearGradient><linearGradient gradientUnits="userSpaceOnUse" id="未命名的渐变_37-17" node-id="34" spreadMethod="pad" x1="24355.229" x2="24451.584" y1="-95323.67" y2="-95301.16"><stop offset="0" stop-color="#98d6fa"></stop><stop offset="1" stop-color="#47b0f1"></stop></linearGradient><linearGradient gradientUnits="userSpaceOnUse" id="未命名的渐变_37-18" node-id="35" spreadMethod="pad" x1="29921.688" x2="30068.514" y1="-9942.846" y2="-9942.846"><stop offset="0" stop-color="#98d6fa"></stop><stop offset="1" stop-color="#47b0f1"></stop></linearGradient><linearGradient gradientUnits="userSpaceOnUse" id="未命名的渐变_37-19" node-id="36" spreadMethod="pad" x1="29921.688" x2="30068.514" y1="-9942.846" y2="-9942.846"><stop offset="0" stop-color="#98d6fa"></stop><stop offset="1" stop-color="#47b0f1"></stop></linearGradient><linearGradient gradientUnits="userSpaceOnUse" id="未命名的渐变_37-20" node-id="37" spreadMethod="pad" x1="14854.252" x2="14927.667" y1="-9942.739" y2="-9942.846"><stop offset="0" stop-color="#98d6fa"></stop><stop offset="1" stop-color="#47b0f1"></stop></linearGradient><linearGradient gradientUnits="userSpaceOnUse" id="未命名的渐变_37-21" node-id="38" spreadMethod="pad" x1="2047.3647" x2="2058.3782" y1="-9937.339" y2="-9943.269"><stop offset="0" stop-color="#98d6fa"></stop><stop offset="1" stop-color="#47b0f1"></stop></linearGradient><linearGradient gradientTransform="matrix(141.09 4.93 0.37 -10.58 -29743.9 9454.28)" gradientUnits="userSpaceOnUse" id="未命名的渐变_37-22" node-id="39" spreadMethod="pad" x1="211.92" x2="212.96" y1="939.18" y2="939.18"><stop offset="0" stop-color="#98d6fa"></stop><stop offset="1" stop-color="#47b0f1"></stop></linearGradient><linearGradient gradientTransform="matrix(140.83 9.85 0.74 -10.56 -30042.92 8416.02)" gradientUnits="userSpaceOnUse" id="未命名的渐变_37-23" node-id="40" spreadMethod="pad" x1="211.9" x2="212.94" y1="938.46" y2="938.46"><stop offset="0" stop-color="#98d6fa"></stop><stop offset="1" stop-color="#47b0f1"></stop></linearGradient><linearGradient gradientTransform="matrix(70.06 8.6 1.29 -10.51 -15424.15 8667.68)" gradientUnits="userSpaceOnUse" id="未命名的渐变_37-24" node-id="41" spreadMethod="pad" x1="210.29" x2="211.34" y1="937.35" y2="937.36"><stop offset="0" stop-color="#98d6fa"></stop><stop offset="1" stop-color="#47b0f1"></stop></linearGradient><linearGradient gradientTransform="matrix(10.51 1.29 1.29 -10.51 -2599.28 10242.36)" gradientUnits="userSpaceOnUse" id="未命名的渐变_37-25" node-id="42" spreadMethod="pad" x1="192.44" x2="193.49" y1="936.84" y2="937.41"><stop offset="0" stop-color="#98d6fa"></stop><stop offset="1" stop-color="#47b0f1"></stop></linearGradient><linearGradient gradientUnits="userSpaceOnUse" id="未命名的渐变_32" node-id="43" spreadMethod="pad" x1="19783.492" x2="19696.984" y1="-104446.31" y2="-104495.67"><stop offset="0" stop-color="#1d181c"></stop><stop offset="0.3" stop-color="#2c2422"></stop><stop offset="0.5" stop-color="#42352c"></stop><stop offset="0.7" stop-color="#57352c"></stop><stop offset="1" stop-color="#923629"></stop></linearGradient><linearGradient gradientUnits="userSpaceOnUse" id="未命名的渐变_32-2" node-id="49" spreadMethod="pad" x1="8444.522" x2="8441.698" y1="-156800.7" y2="-156874.81"><stop offset="0" stop-color="#1d181c"></stop><stop offset="0.3" stop-color="#2c2422"></stop><stop offset="0.5" stop-color="#42352c"></stop><stop offset="0.7" stop-color="#57352c"></stop><stop offset="1" stop-color="#923629"></stop></linearGradient><linearGradient gradientUnits="userSpaceOnUse" id="未命名的渐变_34" node-id="50" spreadMethod="pad" x1="8289.284" x2="8249.734" y1="-103745" y2="-103745"><stop offset="0" stop-color="#ffb859"></stop><stop offset="1" stop-color="#f97b61"></stop></linearGradient><linearGradient gradientUnits="userSpaceOnUse" id="未命名的渐变_34-2" node-id="53" spreadMethod="pad" x1="17286.918" x2="17206.332" y1="-109782.586" y2="-109782.586"><stop offset="0" stop-color="#ffb859"></stop><stop offset="1" stop-color="#f97b61"></stop></linearGradient><linearGradient gradientUnits="userSpaceOnUse" id="未命名的渐变_37-26" node-id="54" spreadMethod="pad" x1="2475.1453" x2="2476.274" y1="-40415.426" y2="-40439.707"><stop offset="0" stop-color="#98d6fa"></stop><stop offset="1" stop-color="#47b0f1"></stop></linearGradient><linearGradient gradientUnits="userSpaceOnUse" id="未命名的渐变_36" node-id="55" spreadMethod="pad" x1="13461.552" x2="13490.955" y1="-67295.89" y2="-67302.4"><stop offset="0" stop-color="#f97b61"></stop><stop offset="1" stop-color="#ffb859"></stop></linearGradient><linearGradient gradientTransform="matrix(-38.36 0 -0 -35.65 8844.46 33823.33)" gradientUnits="userSpaceOnUse" id="未命名的渐变_37-27" node-id="58" spreadMethod="pad" x1="219.13" x2="220.17" y1="933.41" y2="933.9"><stop offset="0" stop-color="#98d6fa"></stop><stop offset="1" stop-color="#47b0f1"></stop></linearGradient><mask height="30.51" id="mask" maskUnits="userSpaceOnUse" node-id="59" width="24.4" x="399.39" y="506.69"><path d="M 421.36 507.00 C 424.86 508.85 424.45 518.54 420.95 525.54 C 417.44 532.35 409.82 538.73 406.31 536.88 C 402.80 535.03 403.63 525.96 406.31 519.77 C 409.82 512.15 417.85 505.14 421.36 507.00 Z" fill="#ffffff" fill-rule="evenodd" id="path-30" node-id="61" stroke="none" target-height="33.589966" target-width="22.059998" target-x="402.8" target-y="505.14"></path></mask></defs><g node-id="458"><g node-id="459"><path d="M 0.00 0.00 L 1024.00 0.00 L 1024.00 1024.00 L 0.00 1024.00 Z" fill="#ffffff" fill-opacity="0" fill-rule="nonzero" group-id="1,2" id="矩形" node-id="65" stroke="none" target-height="1024" target-width="1024" target-x="0" target-y="0"></path><g node-id="460"><g node-id="465"><path d="M 76.80 581.77 C 69.12 548.67 19.18 333.15 160.40 303.51 C 301.62 273.87 385.05 308.39 447.10 248.05 C 509.15 187.71 524.62 197.61 575.59 201.60 C 626.56 205.59 685.63 162.00 705.47 149.00 C 725.31 136.00 904.53 51.69 950.35 303.51 C 957.59 412.38 963.61 530.51 912.91 575.24 C 862.21 619.97 913.84 660.15 950.35 664.62 C 986.86 669.09 933.28 745.53 849.00 778.90 C 792.88 804.06 430.19 876.18 213.00 802.00 C 108.11 757.12 84.47 614.86 76.80 581.77 Z" fill="#47b0f1" fill-opacity="0.05" fill-rule="nonzero" group-id="1,2,3,8" id="路径-58" node-id="67" stroke="none" target-height="824.49" target-width="967.68" target-x="19.18" target-y="51.69"></path></g><g node-id="466"><path d="M 158.00 329.00 L 158.00 329.15 C 161.49 329.87 164.00 332.94 164.00 336.50 L 164.00 337.50 C 164.00 341.64 160.64 345.00 156.50 345.00 L 77.50 345.00 C 73.36 345.00 70.00 341.64 70.00 337.50 L 70.00 336.50 C 70.00 332.36 73.36 329.00 77.50 329.00 L 109.00 329.00 C 112.77 329.00 115.87 326.01 116.00 322.24 L 116.00 322.00 C 116.00 318.23 113.01 315.13 109.24 315.00 L 106.00 315.00 L 106.00 314.85 C 102.51 314.14 100.00 311.06 100.00 307.50 L 100.00 306.50 C 100.00 302.36 103.36 299.00 107.50 299.00 L 186.50 299.00 C 190.64 299.00 194.00 302.36 194.00 306.50 L 194.00 307.50 C 194.00 311.64 190.64 315.00 186.50 315.00 L 155.00 315.00 C 151.23 315.00 148.13 317.99 148.00 321.76 L 148.00 322.00 C 148.00 325.77 150.99 328.87 154.76 329.00 L 158.00 329.00 Z" fill="url(#未命名的渐变_37)" fill-opacity="0.1" fill-rule="nonzero" group-id="1,2,3,9" id="形状结合" node-id="68" stroke="none" target-height="46" target-width="124" target-x="70" target-y="299"></path></g><g node-id="467"><path d="M 858.00 159.00 L 858.00 159.15 C 861.49 159.87 864.00 162.94 864.00 166.50 L 864.00 167.50 C 864.00 171.64 860.64 175.00 856.50 175.00 L 777.50 175.00 C 773.36 175.00 770.00 171.64 770.00 167.50 L 770.00 166.50 C 770.00 162.36 773.36 159.00 777.50 159.00 L 809.00 159.00 C 812.77 159.00 815.87 156.01 816.00 152.24 L 816.00 152.00 C 816.00 148.23 813.01 145.13 809.24 145.00 L 806.00 145.00 L 806.00 144.85 C 802.51 144.14 800.00 141.06 800.00 137.50 L 800.00 136.50 C 800.00 132.36 803.36 129.00 807.50 129.00 L 886.50 129.00 C 890.64 129.00 894.00 132.36 894.00 136.50 L 894.00 137.50 C 894.00 141.64 890.64 145.00 886.50 145.00 L 855.00 145.00 C 851.23 145.00 848.13 147.99 848.00 151.76 L 848.00 152.00 C 848.00 155.77 850.99 158.87 854.76 159.00 L 858.00 159.00 Z" fill="url(#未命名的渐变_37-2)" fill-opacity="0.1" fill-rule="nonzero" group-id="1,2,3,10" id="形状结合-2" node-id="69" stroke="none" target-height="46" target-width="124" target-x="770" target-y="129"></path></g><path d="M 514.52 712.00 C 645.62 712.00 763.78 722.79 846.30 740.00 C 927.06 740.65 992.00 765.00 992.00 795.00 C 992.00 819.23 949.55 839.80 890.61 847.13 C 877.61 850.88 863.20 854.43 847.45 857.75 C 847.82 859.81 848.00 861.90 848.00 864.00 C 848.00 915.91 735.18 958.00 596.00 958.00 C 471.35 958.00 367.83 924.24 347.59 879.89 C 180.20 867.13 62.00 835.72 62.00 799.00 C 62.00 751.00 264.37 712.00 514.52 712.00 Z" fill="url(#未命名的渐变_3)" fill-rule="nonzero" group-id="1,2,3" id="形状结合-3" node-id="70" stroke="none" target-height="246" target-width="930" target-x="62" target-y="712"></path><path d="M 686.61 226.65 L 686.61 226.55 C 681.28 211.55 663.91 204.44 649.17 206.62 C 660.10 199.83 678.17 198.02 686.61 208.44 L 686.61 208.53 C 695.07 198.20 713.20 199.92 724.04 206.71 C 709.32 204.63 691.95 211.71 686.61 226.64 Z" fill="url(#未命名的渐变_37-3)" fill-rule="nonzero" group-id="1,2,3,11" id="路径" node-id="72" stroke="none" target-height="28.62999" target-width="74.869995" target-x="649.17" target-y="198.02"></path><path d="M 770.00 214.11 L 770.00 214.00 C 766.30 203.58 754.27 198.69 744.06 200.19 C 751.63 195.48 764.13 194.19 770.00 201.45 L 770.00 201.51 C 775.87 194.35 788.44 195.51 796.00 200.25 C 785.79 198.81 773.76 203.71 770.00 214.07 Z" fill="url(#未命名的渐变_37-4)" fill-rule="nonzero" group-id="1,2,3,11" id="路径-2" node-id="73" stroke="none" target-height="19.919998" target-width="51.940002" target-x="744.06" target-y="194.19"></path><path d="M 735.24 179.63 L 735.24 179.57 C 731.54 169.14 719.51 164.25 709.24 165.75 C 716.82 161.04 729.32 159.75 735.24 167.01 L 735.24 167.07 C 741.11 159.92 753.67 161.07 761.24 165.82 C 751.02 164.37 739.00 169.27 735.24 179.63 Z" fill="url(#未命名的渐变_37-5)" fill-rule="nonzero" group-id="1,2,3,11" id="路径-3" node-id="74" stroke="none" target-height="19.880005" target-width="52" target-x="709.24" target-y="159.75"></path><path d="M 840.72 220.07 L 840.72 220.07 C 838.16 212.84 829.82 209.44 822.72 210.49 C 827.97 207.23 836.63 206.35 840.72 211.36 L 840.72 211.36 C 844.80 206.36 853.50 207.23 858.72 210.49 C 851.63 209.49 843.29 212.89 840.72 220.07 Z" fill="url(#未命名的渐变_37-6)" fill-rule="nonzero" group-id="1,2,3,11" id="路径-4" node-id="75" stroke="none" target-height="13.720001" target-width="36" target-x="822.72" target-y="206.35"></path><path d="M 54.17 676.40 C 21.50 661.73 6.84 668.95 10.17 698.04 C 12.06 707.07 15.46 712.73 20.37 715.00 C 33.21 730.65 40.00 743.19 40.74 752.62 C 41.85 766.76 52.85 782.78 80.40 773.62 C 98.77 767.51 111.38 777.73 118.24 804.30 C 138.95 831.74 175.32 842.70 227.37 837.19 C 279.42 831.68 276.11 807.68 217.44 765.19 C 201.49 758.89 189.31 755.00 180.90 753.52 C 172.49 752.04 168.37 742.87 168.54 726.00 C 168.54 715.45 160.90 707.74 145.62 702.89 C 130.34 698.04 123.94 690.32 126.42 679.75 C 116.27 664.80 104.15 662.66 90.08 673.34 C 76.01 684.02 64.04 685.04 54.17 676.40 Z" fill="url(#未命名的渐变_37-7)" fill-rule="nonzero" group-id="1,2,3,12" id="路径-61" node-id="77" stroke="none" target-height="180.97003" target-width="272.58002" target-x="6.84" target-y="661.73"></path><path d="M 52.64 691.51 L 100.91 723.73 C 98.45 710.81 95.51 700.34 92.09 692.33 C 87.02 680.46 102.68 712.12 102.89 725.05 L 143.13 751.91 L 143.02 751.75 C 144.13 734.46 143.68 722.40 141.68 715.55 C 144.37 719.14 147.24 744.92 145.68 753.55 L 182.68 778.25 C 182.47 778.01 182.34 777.84 182.34 777.84 C 182.34 777.84 184.25 763.56 182.56 756.37 C 184.23 758.37 185.35 773.37 184.86 779.71 L 215.41 800.10 L 211.52 804.00 L 180.00 781.68 C 171.48 786.68 159.79 787.47 154.14 786.94 C 164.59 785.99 172.22 783.59 177.04 779.75 C 177.81 780.38 178.65 780.91 179.54 781.35 L 90.70 718.45 C 90.90 718.68 91.08 718.90 91.26 719.14 C 78.10 721.00 66.29 720.21 55.82 716.76 C 56.66 715.09 70.57 721.59 88.93 717.21 Z M 94.00 768.36 C 104.54 768.67 118.26 762.58 135.17 750.09 C 135.86 750.88 136.60 751.62 137.39 752.31 C 121.39 764.93 104.24 769.90 94.00 768.36 Z" fill="url(#未命名的渐变_13)" fill-rule="nonzero" group-id="1,2,3,12" id="形状结合-4" node-id="78" stroke="none" target-height="123.53998" target-width="162.77" target-x="52.64" target-y="680.46"></path><path d="M 89.57 607.28 C 57.40 585.39 42.48 590.89 44.79 623.79 C 51.00 647.36 55.00 663.12 53.00 677.56 C 51.00 692.00 57.31 719.31 89.56 730.56 C 111.06 738.03 117.10 748.63 107.68 762.35 C 102.95 783.43 129.03 798.56 185.90 807.73 C 271.23 821.49 250.90 789.86 228.96 755.57 C 213.09 739.69 210.96 729.99 210.96 717.85 C 210.96 705.71 222.57 685.85 189.20 677.61 C 174.53 674.28 166.85 659.61 166.14 633.61 C 163.84 620.55 149.84 617.28 124.14 623.81 C 112.75 626.00 101.23 620.49 89.57 607.28 Z" fill="url(#未命名的渐变_37-8)" fill-rule="nonzero" group-id="1,2,3,12" id="路径-65" node-id="79" stroke="none" target-height="236.09998" target-width="228.75002" target-x="42.48" target-y="585.39"></path><path d="M 74.94 624.74 L 110.38 669.80 L 110.45 669.63 C 114.28 660.71 115.11 650.78 112.80 641.35 L 112.72 641.04 L 112.72 641.04 C 115.06 648.31 119.53 656.98 112.11 671.97 L 142.11 710.15 L 142.30 709.88 C 148.30 701.40 151.30 690.25 151.30 676.42 C 152.68 680.72 152.71 700.42 144.14 712.69 L 170.75 746.51 C 172.43 743.90 176.63 736.56 176.63 728.36 C 177.52 734.01 177.63 741.58 172.74 749.04 L 212.00 799.00 L 205.77 799.00 L 167.77 748.45 C 149.39 756.29 139.07 753.01 133.96 750.70 C 143.96 753.14 154.53 751.47 165.68 745.70 L 136.81 707.26 C 136.97 707.55 137.13 707.86 137.31 708.17 C 118.10 714.90 98.16 715.70 88.95 710.91 C 98.81 714.63 114.48 712.78 135.95 705.35 L 135.52 705.50 L 103.35 662.66 C 103.42 662.84 103.48 663.01 103.53 663.18 C 89.40 664.05 78.12 659.55 69.69 649.69 C 71.03 648.39 80.04 661.50 101.83 660.69 Z" fill="url(#未命名的渐变_13-2)" fill-rule="nonzero" group-id="1,2,3,12" id="形状结合-5" node-id="80" stroke="none" target-height="174.26001" target-width="142.31" target-x="69.69" target-y="624.74"></path><path d="M 199.20 608.75 C 211.62 591.49 222.74 593.24 232.55 614.01 C 237.31 631.95 229.80 643.35 254.37 651.51 C 270.76 656.95 273.24 668.33 261.81 685.66 C 257.04 696.56 260.57 703.53 272.39 706.57 C 284.21 709.61 282.79 721.68 268.12 742.79 C 263.04 754.36 263.04 762.10 268.12 765.99 C 275.75 771.82 290.40 789.34 272.39 823.38 C 254.38 857.42 211.93 830.98 205.56 814.98 C 199.19 798.98 211.93 776.92 205.56 765.98 C 199.19 755.04 162.10 751.28 172.00 718.47 C 180.25 705.04 191.74 701.16 180.21 678.31 C 168.68 655.46 165.75 664.63 180.21 642.12 C 186.53 635.65 192.86 624.53 199.20 608.75 Z" fill="url(#未命名的渐变_37-9)" fill-rule="nonzero" group-id="1,2,3,12" id="路径-96" node-id="81" stroke="none" target-height="265.93" target-width="128.29999" target-x="162.1" target-y="591.49"></path><path d="M 216.11 638.51 L 227.46 695.42 C 234.85 684.56 240.18 675.08 243.46 666.99 C 248.27 654.99 236.96 688.47 227.96 697.76 L 237.42 745.21 C 237.41 745.15 237.41 745.08 237.42 745.02 C 250.43 733.58 258.65 724.73 262.07 718.47 C 261.43 722.91 245.22 743.17 237.97 748.17 L 246.68 791.81 L 246.68 791.28 C 246.68 791.28 258.12 782.53 262.02 776.28 C 261.77 778.90 252.02 790.28 247.14 794.42 L 254.32 830.42 L 248.90 830.42 L 242.39 792.33 C 232.80 789.87 224.00 782.14 220.39 777.77 C 228.45 784.48 235.54 788.19 241.67 788.88 C 241.77 789.86 241.98 790.83 242.30 791.77 L 224.00 684.47 C 223.99 684.77 223.96 685.06 223.91 685.35 C 213.29 677.35 205.50 668.44 200.54 658.61 C 202.31 658.03 207.54 672.46 223.64 682.34 Z M 191.00 722.08 C 198.23 729.75 212.23 735.14 233.00 738.27 C 232.93 739.32 232.93 740.36 233.00 741.41 C 212.80 739.00 197.16 730.42 191.00 722.08 Z" fill="url(#未命名的渐变_13-3)" fill-rule="nonzero" group-id="1,2,3,12" id="形状结合-6" node-id="82" stroke="none" target-height="191.90997" target-width="71.07001" target-x="191" target-y="638.51"></path><path d="M 938.40 787.52 C 941.30 765.31 933.83 753.34 916.00 751.63 C 940.14 749.33 956.12 764.02 956.38 787.52 C 951.38 787.69 945.39 787.69 938.40 787.52 Z" fill="url(#未命名的渐变_37-10)" fill-rule="nonzero" group-id="1,2,3,13" id="路径-38" node-id="84" stroke="none" target-height="38.359985" target-width="40.380005" target-x="916" target-y="749.33"></path><path d="M 950.12 787.65 C 954.83 765.22 949.04 748.67 932.73 738.00 C 953.55 744.57 968.51 754.44 973.37 787.65 C 965.63 788.12 957.86 788.12 950.12 787.65 Z" fill="url(#未命名的渐变_37-11)" fill-rule="nonzero" group-id="1,2,3,13" id="路径-39" node-id="85" stroke="none" target-height="50.119995" target-width="40.640015" target-x="932.73" target-y="738"></path><path d="M 977.07 788.00 C 974.98 766.70 982.62 754.50 1000.00 751.39 C 983.89 750.99 965.91 749.91 953.00 788.00 C 963.93 787.65 971.96 787.65 977.07 788.00 Z" fill="url(#未命名的渐变_37-12)" fill-rule="nonzero" group-id="1,2,3,13" id="路径-40" node-id="86" stroke="none" target-height="38.090027" target-width="47" target-x="953" target-y="749.91"></path><path d="M 927.41 802.00 C 944.26 802.00 957.00 802.41 957.00 786.61 C 957.00 770.81 943.34 758.00 926.50 758.00 C 909.66 758.00 896.00 770.81 896.00 786.61 C 896.00 802.41 910.57 802.00 927.41 802.00 Z" fill="url(#未命名的渐变_37-13)" fill-rule="nonzero" group-id="1,2,3,13" id="椭圆形" node-id="87" stroke="none" target-height="44.409973" target-width="61" target-x="896" target-y="758"></path><path d="M 960.57 802.00 C 971.06 802.00 979.00 802.25 979.00 792.56 C 979.00 782.87 970.49 775.00 960.00 775.00 C 949.51 775.00 941.00 782.86 941.00 792.56 C 941.00 802.26 950.07 802.00 960.57 802.00 Z" fill="url(#未命名的渐变_37-14)" fill-rule="nonzero" group-id="1,2,3,13" id="椭圆形备份-6" node-id="88" stroke="none" target-height="27.26001" target-width="38" target-x="941" target-y="775"></path></g><g node-id="461"><path d="M 313.08 798.50 C 335.41 805.50 326.52 809.68 319.08 813.79 C 305.44 821.33 311.57 827.93 318.50 834.00 C 328.77 843.00 405.43 864.63 488.55 846.22 C 566.06 829.06 554.38 798.22 534.46 784.22 C 518.43 773.00 448.50 747.49 368.54 753.00 C 320.42 756.30 299.76 764.56 295.75 770.93 C 289.11 781.47 288.21 790.71 313.08 798.50 Z" fill="url(#未命名的渐变_19)" fill-opacity="0.4" fill-rule="nonzero" group-id="1,2,4" id="路径-5" node-id="89" stroke="none" target-height="117.140015" target-width="277.85" target-x="288.21" target-y="747.49"></path></g><path d="M 777.20 747.12 L 547.85 747.12 C 539.43 747.14 531.35 743.81 525.39 737.87 C 519.43 731.92 516.07 723.86 516.06 715.44 L 516.06 402.91 C 516.07 394.49 519.43 386.43 525.39 380.49 C 531.36 374.55 539.43 371.22 547.85 371.24 L 777.20 371.24 C 785.62 371.22 793.70 374.54 799.66 380.48 C 805.63 386.42 808.99 394.49 809.00 402.91 L 809.00 715.44 C 808.99 723.86 805.63 731.93 799.66 737.87 C 793.70 743.81 785.62 747.14 777.20 747.12 Z" fill="url(#未命名的渐变_37-15)" fill-rule="nonzero" group-id="1,2" id="路径-6" node-id="90" stroke="none" target-height="375.92" target-width="292.94" target-x="516.06" target-y="371.22"></path><path d="M 763.20 755.94 L 544.20 755.94 C 535.78 755.92 527.72 752.56 521.77 746.60 C 515.83 740.64 512.50 732.56 512.52 724.14 L 512.52 415.39 C 512.50 406.97 515.83 398.89 521.77 392.93 C 527.71 386.96 535.78 383.60 544.20 383.59 L 763.20 383.59 C 771.62 383.60 779.69 386.96 785.63 392.93 C 791.57 398.89 794.90 406.97 794.88 415.39 L 794.88 724.15 C 794.91 741.68 780.73 755.91 763.20 755.94 Z" fill="url(#未命名的渐变_37-16)" fill-rule="nonzero" group-id="1,2" id="路径-7" node-id="91" stroke="none" target-height="372.35" target-width="282.40997" target-x="512.5" target-y="383.59"></path><path d="M 760.40 717.12 L 550.54 717.12 C 549.35 717.12 548.21 716.65 547.37 715.81 C 546.53 714.98 546.06 713.84 546.06 712.65 L 546.06 412.76 C 546.06 411.57 546.53 410.43 547.37 409.60 C 548.21 408.76 549.35 408.29 550.54 408.29 L 760.40 408.29 C 761.59 408.29 762.73 408.76 763.57 409.60 C 764.41 410.43 764.88 411.57 764.88 412.76 L 764.88 712.65 C 764.87 715.12 762.87 717.12 760.40 717.12 Z" fill="#98d6fa" fill-rule="evenodd" group-id="1,2" id="路径-8" node-id="92" stroke="none" target-height="308.83" target-width="218.82" target-x="546.06" target-y="408.29"></path><path d="M 644.41 715.35 C 624.86 714.00 517.35 705.87 450.78 652.00 C 449.28 650.78 448.65 648.77 449.19 646.91 C 449.73 645.05 451.33 643.69 453.25 643.46 C 556.57 634.10 543.99 449.18 544.71 413.72 C 544.77 410.72 546.71 408.32 549.71 408.32 L 758.31 408.32 C 760.97 408.33 763.13 410.50 763.12 413.16 L 752.19 611.71 C 751.74 613.16 751.09 614.54 750.27 615.81 L 668.36 704.65 C 667.38 705.81 645.92 715.46 644.41 715.35 Z" fill="#ffffff" fill-rule="nonzero" group-id="1,2" id="路径-9" node-id="93" stroke="none" target-height="307.14" target-width="314.48" target-x="448.65" target-y="408.32"></path><path d="M 674.12 646.45 C 686.12 647.21 721.83 647.45 752.53 613.00 C 745.25 649.28 698.53 714.90 637.82 715.35 C 672.71 697.35 671.37 664.05 670.27 649.11 C 670.14 647.36 672.37 646.34 674.12 646.45 Z" fill="url(#未命名的渐变_37-17)" fill-rule="nonzero" group-id="1,2" id="路径-10" node-id="94" stroke="none" target-height="102.349976" target-width="114.71002" target-x="637.82" target-y="613"></path><path d="M 594.94 454.18 L 730.12 454.18 C 731.78 454.18 733.12 455.52 733.12 457.18 L 733.12 461.77 C 733.12 463.43 731.78 464.77 730.12 464.77 L 594.94 464.77 C 593.28 464.77 591.94 463.43 591.94 461.77 L 591.94 457.18 C 591.94 455.52 593.28 454.18 594.94 454.18 Z" fill="url(#未命名的渐变_37-18)" fill-rule="nonzero" group-id="1,2,5" id="矩形-2" node-id="96" stroke="none" target-height="10.589996" target-width="141.18" target-x="591.94" target-y="454.18"></path><path d="M 591.41 489.47 L 726.59 489.47 C 728.25 489.47 729.59 490.81 729.59 492.47 L 729.59 497.06 C 729.59 498.72 728.25 500.06 726.59 500.06 L 591.41 500.06 C 589.75 500.06 588.41 498.72 588.41 497.06 L 588.41 492.47 C 588.41 490.81 589.75 489.47 591.41 489.47 Z" fill="url(#未命名的渐变_37-19)" fill-rule="nonzero" group-id="1,2,5" id="矩形备份" node-id="97" stroke="none" target-height="10.589996" target-width="141.18005" target-x="588.41" target-y="489.47"></path><path d="M 587.88 524.76 L 652.47 524.76 C 654.13 524.76 655.47 526.10 655.47 527.76 L 655.47 532.35 C 655.47 534.01 654.13 535.35 652.47 535.35 L 587.88 535.35 C 586.22 535.35 584.88 534.01 584.88 532.35 L 584.88 527.76 C 584.88 526.10 586.22 524.76 587.88 524.76 Z" fill="url(#未命名的渐变_37-20)" fill-rule="nonzero" group-id="1,2,5" id="矩形备份-2" node-id="98" stroke="none" target-height="10.589966" target-width="70.589966" target-x="584.88" target-y="524.76"></path><path d="M 669.06 524.76 L 673.65 524.76 C 675.31 524.76 676.65 526.10 676.65 527.76 L 676.65 532.35 C 676.65 534.01 675.31 535.35 673.65 535.35 L 669.06 535.35 C 667.40 535.35 666.06 534.01 666.06 532.35 L 666.06 527.76 C 666.06 526.10 667.40 524.76 669.06 524.76 Z" fill="url(#未命名的渐变_37-21)" fill-rule="nonzero" group-id="1,2,5" id="矩形备份-3" node-id="99" stroke="none" target-height="10.589966" target-width="10.590027" target-x="666.06" target-y="524.76"></path><path d="M 582.81 557.70 L 717.91 562.42 C 719.56 562.48 720.86 563.87 720.80 565.52 L 720.64 570.11 C 720.58 571.76 719.19 573.06 717.54 573.00 L 582.44 568.29 C 581.64 568.26 580.89 567.92 580.35 567.33 C 579.81 566.75 579.52 565.98 579.55 565.18 L 579.71 560.60 C 579.74 559.80 580.08 559.05 580.66 558.51 C 581.24 557.96 582.01 557.67 582.81 557.70 Z" fill="url(#未命名的渐变_37-22)" fill-rule="nonzero" group-id="1,2,5" id="矩形备份-7" node-id="100" stroke="none" target-height="15.390015" target-width="141.33997" target-x="579.52" target-y="557.67"></path><path d="M 572.53 590.65 L 707.38 600.08 C 709.03 600.20 710.27 601.63 710.16 603.28 L 709.84 607.86 C 709.72 609.51 708.29 610.75 706.64 610.64 L 571.80 601.21 C 571.00 601.16 570.26 600.79 569.73 600.19 C 569.21 599.59 568.94 598.80 569.00 598.00 L 569.32 593.42 C 569.44 591.77 570.88 590.53 572.53 590.65 Z" fill="url(#未命名的渐变_37-23)" fill-rule="nonzero" group-id="1,2,5" id="矩形备份-6" node-id="101" stroke="none" target-height="20.21997" target-width="141.33002" target-x="568.94" target-y="590.53"></path><path d="M 560.61 625.46 L 624.72 633.33 C 625.51 633.43 626.23 633.84 626.72 634.46 C 627.21 635.09 627.43 635.89 627.33 636.68 L 626.77 641.23 C 626.57 642.87 625.07 644.04 623.43 643.84 L 559.32 636.00 C 557.68 635.80 556.51 634.30 556.71 632.66 L 557.27 628.10 C 557.36 627.31 557.76 626.58 558.39 626.08 C 559.02 625.59 559.82 625.36 560.61 625.46 Z" fill="url(#未命名的渐变_37-24)" fill-rule="nonzero" group-id="1,2,5" id="矩形备份-5" node-id="102" stroke="none" target-height="18.679993" target-width="70.91998" target-x="556.51" target-y="625.36"></path><path d="M 641.18 635.35 L 645.74 635.91 C 646.53 636.01 647.25 636.42 647.74 637.04 C 648.23 637.67 648.45 638.47 648.35 639.26 L 647.79 643.81 C 647.59 645.45 646.09 646.62 644.45 646.42 L 639.89 645.86 C 638.25 645.66 637.08 644.16 637.28 642.52 L 637.84 637.97 C 637.94 637.18 638.34 636.46 638.97 635.97 C 639.59 635.48 640.39 635.25 641.18 635.35 Z" fill="url(#未命名的渐变_37-25)" fill-rule="nonzero" group-id="1,2,5" id="矩形备份-4" node-id="103" stroke="none" target-height="11.369995" target-width="11.369995" target-x="637.08" target-y="635.25"></path><path d="M 611.35 383.59 L 703.11 383.59 L 703.11 415.35 L 611.35 415.35 Z" fill="#64afde" fill-rule="nonzero" group-id="1,2,6" id="矩形-3" node-id="105" stroke="none" target-height="31.76001" target-width="91.76001" target-x="611.35" target-y="383.59"></path><path d="M 618.41 371.24 L 710.18 371.24 L 703.12 383.59 L 611.35 383.59 L 618.41 371.24 Z" fill="#64afde" fill-rule="evenodd" group-id="1,2,6" id="矩形-4" node-id="106" stroke="none" target-height="12.350006" target-width="98.83002" target-x="611.35" target-y="371.24"></path><path d="M 660.76 343.00 C 669.53 343.00 676.64 350.11 676.64 358.88 C 676.64 367.65 669.53 374.76 660.76 374.76 C 651.99 374.76 644.88 367.65 644.88 358.88 C 644.88 350.11 651.99 343.00 660.76 343.00 Z M 660.76 350.06 C 657.19 350.06 653.97 352.21 652.60 355.51 C 651.24 358.81 651.99 362.61 654.52 365.14 C 657.05 367.66 660.85 368.41 664.15 367.04 C 667.45 365.68 669.59 362.45 669.59 358.88 C 669.59 356.54 668.66 354.29 667.00 352.64 C 665.35 350.99 663.10 350.06 660.76 350.06 Z" fill="#64afde" fill-rule="evenodd" group-id="1,2,6" id="形状结合-7" node-id="107" stroke="none" target-height="31.76001" target-width="31.76001" target-x="644.88" target-y="343"></path><path d="M 360.22 794.51 C 356.67 797.77 354.15 798.51 353.42 801.25 C 352.69 803.99 355.34 810.25 358.61 811.65 C 362.76 813.37 370.11 815.88 372.17 816.65 C 374.23 817.42 388.47 822.21 392.30 819.31 C 396.13 816.41 392.30 809.81 383.94 805.31 C 375.58 800.81 363.11 795.31 363.11 795.31 Z" fill="#333333" fill-rule="nonzero" group-id="1,2,7" id="路径-11" node-id="109" stroke="none" target-height="27.700012" target-width="43.440002" target-x="352.69" target-y="794.51"></path><path d="M 438.31 739.68 C 438.31 744.49 437.11 746.85 438.60 749.24 C 440.09 751.63 446.52 754.00 449.75 752.53 C 453.84 750.67 460.69 747.01 462.64 746.02 C 464.59 745.03 477.82 737.89 478.31 733.11 C 478.80 728.33 471.31 726.65 462.37 729.67 C 453.43 732.69 440.86 738.09 440.86 738.09 Z" fill="#333333" fill-rule="nonzero" group-id="1,2,7" id="路径-12" node-id="110" stroke="none" target-height="27.349976" target-width="41.690002" target-x="437.11" target-y="726.65"></path><path d="M 451.00 734.20 C 451.77 689.30 444.00 655.39 434.00 649.08 C 421.59 634.76 399.14 628.82 399.14 628.82 L 358.00 649.08 C 358.00 649.08 395.54 665.31 419.21 681.57 C 421.07 697.49 422.06 700.18 426.44 712.67 C 431.90 728.19 437.10 734.57 438.64 739.00 C 440.18 743.43 451.85 739.87 451.00 734.20 Z" fill="url(#未命名的渐变_32)" fill-rule="nonzero" group-id="1,2,7" id="路径-13" node-id="111" stroke="none" target-height="114.609985" target-width="93.850006" target-x="358" target-y="628.82"></path><path d="M 390.00 658.30 C 391.43 688.67 388.34 701.79 386.26 725.00 C 384.18 748.21 373.70 786.11 371.00 799.55 C 369.19 808.69 354.34 803.04 355.11 795.00 C 355.88 786.96 356.28 739.00 354.56 725.06 C 352.84 711.12 350.00 640.54 350.00 640.54 L 387.77 635.83 Z" fill="url(#未命名的渐变_32-2)" fill-rule="nonzero" group-id="1,2,7" id="路径-14" node-id="112" stroke="none" target-height="172.85999" target-width="41.429993" target-x="350" target-y="635.83"></path><path d="M 365.79 502.08 C 369.34 502.43 372.63 504.12 374.98 506.81 C 375.69 507.59 376.29 508.46 376.76 509.40 L 376.85 509.58 L 376.75 509.09 C 377.87 509.41 378.35 511.39 378.39 513.80 L 378.39 514.00 C 381.10 513.26 383.04 521.54 377.14 521.76 C 376.96 522.25 376.73 522.72 376.45 523.15 C 374.96 525.32 373.33 528.15 371.02 529.78 L 371.02 535.86 L 359.00 536.00 L 359.00 528.86 C 358.01 528.05 357.17 527.07 356.52 525.96 C 355.64 524.63 354.91 523.21 354.34 521.73 L 354.58 521.73 C 347.58 522.22 349.90 512.57 352.87 514.09 C 352.87 513.77 352.87 513.44 352.87 513.09 C 353.15 510.41 354.24 507.87 356.00 505.82 C 358.43 503.02 362.11 501.61 365.79 502.08 Z" fill="#ebb0b0" fill-rule="nonzero" group-id="1,2,7" id="形状结合-8" node-id="113" stroke="none" target-height="34.390015" target-width="35.460022" target-x="347.58" target-y="501.61"></path><path d="M 377.61 515.00 C 381.74 511.08 383.24 498.00 375.42 494.66 C 374.54 493.61 372.68 493.34 370.18 493.30 C 368.37 493.25 368.18 493.93 367.24 493.77 C 366.30 493.61 364.95 491.46 361.42 491.03 C 359.51 490.77 353.74 492.17 352.49 493.77 C 348.96 496.74 346.69 500.93 346.12 505.51 C 345.38 511.05 348.29 513.80 350.71 518.00 C 352.95 516.61 353.49 513.41 355.07 511.33 C 357.28 508.79 360.04 506.80 363.15 505.51 C 369.85 504.51 373.06 504.51 376.08 510.51 Z" fill="#131322" fill-rule="nonzero" group-id="1,2,7" id="路径-15" node-id="114" stroke="none" target-height="27.230011" target-width="37.859985" target-x="345.38" target-y="490.77"></path><path d="M 386.53 447.33 C 385.02 443.24 384.39 438.87 384.67 434.52 C 385.78 431.72 386.45 432.66 386.29 434.27 C 387.29 433.01 391.23 427.07 398.88 434.36 C 400.26 438.17 400.88 446.27 396.00 450.83 C 392.85 453.02 389.70 451.86 386.53 447.33 Z" fill="#efba9e" fill-rule="nonzero" group-id="1,2,7" id="路径-109" node-id="115" stroke="none" target-height="25.949982" target-width="16.48999" target-x="384.39" target-y="427.07"></path><path d="M 368.00 539.39 C 368.00 539.39 387.00 513.92 386.21 449.73 C 387.77 439.73 396.04 440.94 400.52 443.06 C 400.52 443.06 416.00 539.00 401.00 553.00" fill="url(#未命名的渐变_34)" fill-rule="nonzero" group-id="1,2,7" id="路径-16" node-id="116" stroke="none" target-height="113.26999" target-width="48" target-x="368" target-y="439.73"></path><path d="M 358.19 531.00 C 364.78 534.33 369.06 534.44 371.04 531.31 C 373.83 531.41 392.04 529.68 401.04 545.59 C 406.75 562.76 411.04 604.16 406.04 624.94 C 401.04 648.00 374.87 650.51 349.04 648.22 C 338.37 635.43 322.33 581.55 328.04 561.00 C 332.19 546.56 342.24 536.56 358.19 531.00 Z" fill="url(#未命名的渐变_34-2)" fill-rule="nonzero" group-id="1,2,7" id="路径-2-2" node-id="117" stroke="none" target-height="120.83002" target-width="88.71002" target-x="322.33" target-y="529.68"></path><path d="M 398.00 581.00 L 394.00 579.20 C 391.48 578.09 389.73 575.73 389.40 573.00 L 385.48 540.92 C 385.31 539.31 386.45 537.86 388.05 537.64 C 388.34 537.60 388.62 537.60 388.91 537.64 C 391.23 538.04 393.02 539.92 393.30 542.26 L 398.00 581.00 Z" fill="url(#未命名的渐变_37-26)" fill-rule="nonzero" group-id="1,2,7" id="路径-17" node-id="118" stroke="none" target-height="43.400024" target-width="12.690002" target-x="385.31" target-y="537.6"></path><path d="M 380.86 561.55 C 381.83 557.30 383.67 553.29 386.28 549.79 C 388.74 548.05 388.79 549.20 387.78 550.46 C 389.26 549.93 395.84 547.12 398.29 557.39 C 397.37 561.39 393.46 568.46 386.90 569.64 C 383.07 569.76 381.06 567.06 380.86 561.55 Z" fill="#efba9e" fill-rule="nonzero" group-id="1,2,7" id="路径-109-2" node-id="119" stroke="none" target-height="22.640015" target-width="17.430023" target-x="380.86" target-y="547.12"></path><path d="M 341.22 553.30 C 341.22 553.30 358.00 558.00 355.87 594.74 L 382.00 560.38 C 392.00 563.46 388.60 572.79 387.00 579.02 L 370.00 616.24 C 363.50 627.46 353.41 624.76 349.00 623.92 C 344.59 623.08 339.13 617.92 337.43 613.70 C 329.43 602.03 324.84 589.54 324.95 568.70 C 324.92 568.74 325.06 548.55 341.22 553.30 Z" fill="url(#未命名的渐变_36)" fill-rule="nonzero" group-id="1,2,7" id="路径-18" node-id="120" stroke="none" target-height="78.910034" target-width="67.16" target-x="324.84" target-y="548.55"></path><path d="M 406.41 507.00 L 394.87 526.16 L 383.74 533.00 C 382.70 535.28 382.94 537.94 384.36 540.00 C 386.22 542.27 388.90 542.47 389.31 542.68 C 393.16 540.89 396.94 539.04 400.64 537.12 L 421.46 536.91 Z" fill="url(#未命名的渐变_37-27)" fill-rule="nonzero" group-id="1,2,7" id="_Path_" node-id="121" stroke="none" target-height="35.679993" target-width="38.75998" target-x="382.7" target-y="507"></path><path d="M 406.41 507.00 C 402.91 508.85 403.32 518.54 406.83 525.54 C 410.33 532.35 417.96 538.73 421.46 536.88 C 424.96 535.03 424.14 525.96 421.46 519.77 C 417.96 512.15 409.92 505.14 406.46 507.00 Z" fill="#98d6fa" fill-rule="evenodd" group-id="1,2,7,14,15" id="path-30-2" node-id="124" stroke="none" target-height="33.589966" target-width="22.049988" target-x="402.91" target-y="505.14"></path><path d="M 401.51 524.71 L 408.57 520.96 C 410.52 519.92 412.94 520.66 413.98 522.61 L 413.98 522.61 C 415.02 524.56 414.28 526.98 412.33 528.02 L 405.27 531.78 C 404.33 532.28 403.24 532.38 402.22 532.07 C 401.21 531.76 400.36 531.06 399.86 530.12 L 399.86 530.12 C 398.82 528.17 399.56 525.75 401.51 524.71 Z" fill="#ffffff" fill-rule="evenodd" group-id="1,2,7,14,16" node-id="456" stroke="none" target-height="12.460022" target-width="16.199982" target-x="398.82" target-y="519.92"></path><path d="M 417.74 509.38 L 422.26 500.87 L 424.52 504.91 L 435.12 495.25 L 423.28 508.24 L 422.10 504.99 L 417.74 509.38 Z" fill="#98d6fa" fill-rule="evenodd" group-id="1,2,7" id="路径-110" node-id="127" stroke="none" target-height="14.130005" target-width="17.380005" target-x="417.74" target-y="495.25"></path><path d="M 425.26 523.11 L 433.84 518.74 L 433.38 523.35 L 447.60 521.52 L 430.45 525.36 L 431.35 522.02 L 425.26 523.11 Z" fill="#98d6fa" fill-rule="evenodd" group-id="1,2,7" id="路径-110-2" node-id="128" stroke="none" target-height="6.619995" target-width="22.339996" target-x="425.26" target-y="518.74"></path></g></g></svg>