<?xml version="1.0" standalone="no"?><!DOCTYPE svg PUBLIC "-//W3C//DTD SVG 1.1//EN" "http://www.w3.org/Graphics/SVG/1.1/DTD/svg11.dtd"><svg height="1024" node-id="1" sillyvg="true" template-height="1024" template-width="1024" version="1.1" viewBox="0 0 1024 1024" width="1024" xmlns="http://www.w3.org/2000/svg" xmlns:xlink="http://www.w3.org/1999/xlink"><defs node-id="166"><linearGradient gradientUnits="objectBoundingBox" id="linearGradient-1" node-id="5" spreadMethod="pad" x1="-0.1358235" x2="0.5" y1="0.5" y2="0.47203198"><stop offset="0" stop-color="#98d6fa"></stop><stop offset="1" stop-color="#47b0f1"></stop></linearGradient><linearGradient gradientUnits="objectBoundingBox" id="linearGradient-2" node-id="8" spreadMethod="pad" x1="-0.0000000000000009337728" x2="1" y1="-0.031055901" y2="-0.031055901"><stop offset="0" stop-color="#fff5de"></stop><stop offset="1" stop-color="#fbd2ac"></stop></linearGradient><linearGradient gradientUnits="objectBoundingBox" id="linearGradient-3" node-id="11" spreadMethod="pad" x1="-0.1358235" x2="0.5" y1="0.5" y2="0.47628444"><stop offset="0" stop-color="#98d6fa"></stop><stop offset="1" stop-color="#47b0f1"></stop></linearGradient><linearGradient gradientUnits="objectBoundingBox" id="linearGradient-4" node-id="14" spreadMethod="pad" x1="-0.1358235" x2="0.5" y1="0.5" y2="0.47629464"><stop offset="0" stop-color="#98d6fa"></stop><stop offset="1" stop-color="#47b0f1"></stop></linearGradient><linearGradient gradientUnits="objectBoundingBox" id="linearGradient-5" node-id="17" spreadMethod="pad" x1="-0.1358235" x2="0.5" y1="0.5" y2="0.47629884"><stop offset="0" stop-color="#98d6fa"></stop><stop offset="1" stop-color="#47b0f1"></stop></linearGradient><linearGradient gradientUnits="objectBoundingBox" id="linearGradient-6" node-id="20" spreadMethod="pad" x1="-0.13582349" x2="0.49999997" y1="0.49999997" y2="0.43423018"><stop offset="0" stop-color="#98d6fa"></stop><stop offset="1" stop-color="#47b0f1"></stop></linearGradient><linearGradient gradientUnits="objectBoundingBox" id="linearGradient-7" node-id="23" spreadMethod="pad" x1="0.4313989" x2="0.6033656" y1="-0.06451612" y2="0"><stop offset="0.031572677" stop-color="#afdef9"></stop><stop offset="1" stop-color="#7cc9f9"></stop></linearGradient><linearGradient gradientUnits="objectBoundingBox" id="linearGradient-8" node-id="26" spreadMethod="pad" x1="0.05920258" x2="0.5996637" y1="0.60857147" y2="0.3705422"><stop offset="0" stop-color="#98d6fa"></stop><stop offset="1" stop-color="#47b0f1"></stop></linearGradient><linearGradient gradientUnits="objectBoundingBox" id="linearGradient-9" node-id="29" spreadMethod="pad" x1="0.44492638" x2="0.58298296" y1="-0.06451613" y2="0"><stop offset="0.031572677" stop-color="#afdef9"></stop><stop offset="1" stop-color="#7cc9f9"></stop></linearGradient><linearGradient gradientUnits="objectBoundingBox" id="linearGradient-10" node-id="32" spreadMethod="pad" x1="0.28403884" x2="0.5" y1="0.8700849" y2="0.30481097"><stop offset="0" stop-color="#98d6fa"></stop><stop offset="1" stop-color="#47b0f1"></stop></linearGradient><linearGradient gradientUnits="objectBoundingBox" id="linearGradient-11" node-id="35" spreadMethod="pad" x1="0.8017669" x2="0.40161258" y1="0.7812446" y2="0.012035674"><stop offset="0" stop-color="#98d6fa"></stop><stop offset="1" stop-color="#47b0f1"></stop></linearGradient><linearGradient gradientUnits="objectBoundingBox" id="linearGradient-12" node-id="38" spreadMethod="pad" x1="0.1696366" x2="0.73110634" y1="0.776033" y2="0.27310416"><stop offset="0" stop-color="#98d6fa"></stop><stop offset="1" stop-color="#47b0f1"></stop></linearGradient><linearGradient gradientUnits="objectBoundingBox" id="linearGradient-14" node-id="44" spreadMethod="pad" x1="0" x2="0.84977597" y1="0.6436173" y2="0.3819483"><stop offset="0" stop-color="#98d6fa"></stop><stop offset="1" stop-color="#47b0f1"></stop></linearGradient><linearGradient gradientUnits="objectBoundingBox" id="linearGradient-15" node-id="47" spreadMethod="pad" x1="0" x2="0.84977597" y1="0.63935465" y2="0.38545215"><stop offset="0" stop-color="#98d6fa"></stop><stop offset="1" stop-color="#47b0f1"></stop></linearGradient><linearGradient gradientUnits="objectBoundingBox" id="linearGradient-16" node-id="50" spreadMethod="pad" x1="1.1292181" x2="-0.38265255" y1="0.2957528" y2="0.76002806"><stop offset="0" stop-color="#b6dcf2" stop-opacity="0"></stop><stop offset="1" stop-color="#64afde"></stop></linearGradient><linearGradient gradientUnits="objectBoundingBox" id="linearGradient-17" node-id="53" spreadMethod="pad" x1="1" x2="0.15171328" y1="0.33790517" y2="0.55564094"><stop offset="0" stop-color="#98d6fa"></stop><stop offset="1" stop-color="#47b0f1"></stop></linearGradient><linearGradient gradientUnits="objectBoundingBox" id="linearGradient-18" node-id="56" spreadMethod="pad" x1="0.5062831" x2="0.4937169" y1="0.15451613" y2="0.84235436"><stop offset="0" stop-color="#98d6fa"></stop><stop offset="1" stop-color="#47b0f1"></stop></linearGradient><linearGradient gradientUnits="objectBoundingBox" id="linearGradient-19" node-id="59" spreadMethod="pad" x1="0.51607555" x2="0.5847933" y1="0.26852235" y2="0.9019171"><stop offset="0" stop-color="#98d6fa"></stop><stop offset="1" stop-color="#47b0f1"></stop></linearGradient><linearGradient gradientUnits="objectBoundingBox" id="linearGradient-20" node-id="62" spreadMethod="pad" x1="-0.17157803" x2="0.6504205" y1="0.2646741" y2="0.6335096"><stop offset="0" stop-color="#98d6fa"></stop><stop offset="1" stop-color="#47b0f1"></stop></linearGradient><linearGradient gradientUnits="objectBoundingBox" id="linearGradient-21" node-id="65" spreadMethod="pad" x1="-0.20406061" x2="0.5" y1="0.8700849" y2="0.30481097"><stop offset="0" stop-color="#98d6fa"></stop><stop offset="1" stop-color="#47b0f1"></stop></linearGradient><linearGradient gradientUnits="objectBoundingBox" id="linearGradient-22" node-id="68" spreadMethod="pad" x1="-0.21596745" x2="1.4361762" y1="0.09018941" y2="1.1789938"><stop offset="0" stop-color="#98d6fa"></stop><stop offset="1" stop-color="#47b0f1"></stop></linearGradient><linearGradient gradientUnits="objectBoundingBox" id="linearGradient-23" node-id="71" spreadMethod="pad" x1="-0.54080534" x2="0.5" y1="0.6197295" y2="0.43685263"><stop offset="0" stop-color="#98d6fa"></stop><stop offset="1" stop-color="#47b0f1"></stop></linearGradient><linearGradient gradientUnits="objectBoundingBox" id="linearGradient-24" node-id="74" spreadMethod="pad" x1="1.1691269" x2="0.44771245" y1="0.6842913" y2="0.36164665"><stop offset="0" stop-color="#98d6fa"></stop><stop offset="1" stop-color="#47b0f1"></stop></linearGradient><linearGradient gradientUnits="objectBoundingBox" id="linearGradient-25" node-id="77" spreadMethod="pad" x1="0.99999994" x2="0" y1="-0.11764705" y2="-0.11764705"><stop offset="0" stop-color="#f5dda7"></stop><stop offset="1" stop-color="#fa9a41"></stop></linearGradient><linearGradient gradientUnits="objectBoundingBox" id="linearGradient-26" node-id="80" spreadMethod="pad" x1="0.13965733" x2="0.875197" y1="0.07491416" y2="1.0750235"><stop offset="0" stop-color="#ffb859"></stop><stop offset="1" stop-color="#f97b61"></stop></linearGradient><linearGradient gradientUnits="objectBoundingBox" id="linearGradient-27" node-id="83" spreadMethod="pad" x1="0.020751635" x2="0.5" y1="0.8700849" y2="0.30481097"><stop offset="0" stop-color="#98d6fa"></stop><stop offset="1" stop-color="#47b0f1"></stop></linearGradient><linearGradient gradientUnits="objectBoundingBox" id="linearGradient-28" node-id="86" spreadMethod="pad" x1="1" x2="0.0058146594" y1="-0.029698754" y2="-0.029698754"><stop offset="0" stop-color="#f97b61"></stop><stop offset="1" stop-color="#ffb859"></stop></linearGradient><linearGradient gradientUnits="objectBoundingBox" id="linearGradient-29" node-id="89" spreadMethod="pad" x1="1" x2="0.0058146594" y1="-0.029698754" y2="-0.029698754"><stop offset="0" stop-color="#f97b61"></stop><stop offset="1" stop-color="#ffb859"></stop></linearGradient><linearGradient gradientUnits="objectBoundingBox" id="linearGradient-30" node-id="92" spreadMethod="pad" x1="0" x2="0.9941853" y1="-0.029698754" y2="-0.029698754"><stop offset="0" stop-color="#ffb859"></stop><stop offset="1" stop-color="#f97b61"></stop></linearGradient><linearGradient gradientUnits="objectBoundingBox" id="linearGradient-31" node-id="95" spreadMethod="pad" x1="0" x2="0.9941853" y1="-0.029698754" y2="-0.029698754"><stop offset="0" stop-color="#ffb859"></stop><stop offset="1" stop-color="#f97b61"></stop></linearGradient><linearGradient gradientUnits="objectBoundingBox" id="linearGradient-32" node-id="98" spreadMethod="pad" x1="0.86275023" x2="-0.000000000000027057475" y1="-0.028050492" y2="-0.028050492"><stop offset="0" stop-color="#1d181c"></stop><stop offset="0.3" stop-color="#2c2422"></stop><stop offset="0.5" stop-color="#42352c"></stop><stop offset="0.7" stop-color="#57352c"></stop><stop offset="1" stop-color="#923629"></stop></linearGradient><linearGradient gradientUnits="objectBoundingBox" id="linearGradient-33" node-id="104" spreadMethod="pad" x1="0" x2="1" y1="-0.14288197" y2="0.86125"><stop offset="0" stop-color="#98d6fa"></stop><stop offset="1" stop-color="#47b0f1"></stop></linearGradient><linearGradient gradientUnits="objectBoundingBox" id="linearGradient-34" node-id="107" spreadMethod="pad" x1="0.39457908" x2="0.54744923" y1="-0.29083106" y2="0.8301304"><stop offset="0" stop-color="#98d6fa"></stop><stop offset="1" stop-color="#47b0f1"></stop></linearGradient></defs><g node-id="371"><path d="M 0.00 0.00 L 1024.00 0.00 L 1024.00 1024.00 L 0.00 1024.00 Z" fill="#ffffff" fill-opacity="0" fill-rule="evenodd" group-id="1" id="矩形" node-id="111" stroke="none" target-height="1024" target-width="1024" target-x="0" target-y="0"></path></g><g node-id="372"><g node-id="377"><path d="M 76.80 581.77 L 73.83 568.49 L 71.97 559.38 L 69.82 547.84 L 67.80 535.55 L 65.82 521.45 L 64.17 506.83 L 62.88 491.00 L 62.32 480.31 L 62.04 469.36 L 62.05 458.15 L 62.42 446.95 L 63.20 435.75 L 64.39 424.55 L 66.06 413.42 L 68.25 402.53 L 70.95 391.87 L 73.38 383.98 L 76.16 376.33 L 79.29 368.94 L 82.78 361.77 L 86.68 354.81 L 91.00 348.19 L 95.75 341.89 L 100.92 335.90 L 106.51 330.33 L 112.60 325.15 L 119.24 320.35 L 126.45 315.93 L 132.34 312.86 L 138.66 310.07 L 145.42 307.58 L 152.66 305.39 L 160.40 303.51 L 178.10 300.08 L 194.86 297.29 L 210.72 295.10 L 226.66 293.29 L 241.76 291.87 L 256.05 290.83 L 277.25 289.66 L 296.81 288.85 L 315.85 288.13 L 333.44 287.30 L 344.99 286.55 L 355.96 285.55 L 366.35 284.30 L 376.69 282.65 L 386.56 280.55 L 395.98 278.01 L 402.93 275.71 L 409.70 273.04 L 416.31 269.98 L 422.76 266.54 L 428.94 262.74 L 435.06 258.41 L 441.11 253.52 L 447.10 248.05 L 456.03 239.55 L 464.00 232.33 L 471.08 226.27 L 478.37 220.45 L 484.92 215.65 L 490.79 211.76 L 496.88 208.19 L 502.50 205.35 L 507.67 203.18 L 513.00 201.39 L 518.16 200.08 L 523.16 199.21 L 528.22 198.69 L 533.39 198.46 L 538.68 198.51 L 546.76 198.96 L 555.68 199.75 L 575.59 201.60 L 582.89 201.85 L 590.28 201.53 L 597.79 200.63 L 605.24 199.25 L 612.69 197.44 L 620.16 195.20 L 627.52 192.63 L 634.75 189.78 L 641.86 186.68 L 652.27 181.65 L 662.07 176.43 L 671.50 171.00 L 679.96 165.81 L 694.70 156.20 L 705.47 148.96 L 708.73 147.00 L 714.62 143.93 L 721.41 140.81 L 730.35 137.21 L 736.61 134.98 L 743.59 132.79 L 751.34 130.64 L 759.13 128.82 L 767.44 127.29 L 776.27 126.05 L 785.14 125.28 L 794.32 125.01 L 803.83 125.28 L 810.91 125.87 L 818.07 126.88 L 825.33 128.30 L 832.69 130.15 L 839.85 132.42 L 847.04 135.22 L 854.26 138.58 L 861.53 142.51 L 868.42 146.86 L 875.30 151.89 L 882.17 157.65 L 889.04 164.20 L 894.08 169.58 L 899.09 175.53 L 904.06 182.06 L 909.00 189.21 L 913.89 197.03 L 918.24 204.72 L 922.51 213.10 L 926.70 222.22 L 930.79 232.13 L 934.77 242.86 L 938.20 253.22 L 941.49 264.41 L 944.62 276.49 L 947.58 289.51 L 950.35 303.51 L 951.86 326.93 L 953.22 350.50 L 954.29 374.03 L 954.96 397.17 L 955.14 412.56 L 955.02 427.53 L 954.62 442.08 L 953.86 456.63 L 952.72 470.53 L 951.21 483.79 L 949.74 493.77 L 948.00 503.26 L 946.01 512.28 L 943.77 520.85 L 941.11 529.43 L 938.14 537.43 L 934.87 544.88 L 931.33 551.81 L 928.10 557.25 L 924.65 562.30 L 920.97 566.96 L 917.06 571.27 L 912.91 575.24 L 907.58 580.33 L 903.24 585.14 L 899.78 589.70 L 897.11 594.04 L 894.81 598.79 L 893.19 603.30 L 892.20 607.60 L 891.78 611.74 L 891.86 615.97 L 892.40 620.04 L 893.40 623.97 L 894.87 627.79 L 896.71 631.46 L 898.90 634.98 L 901.43 638.38 L 904.32 641.65 L 908.52 645.67 L 913.11 649.38 L 918.09 652.77 L 923.32 655.79 L 928.66 658.40 L 934.12 660.61 L 939.72 662.43 L 945.12 663.75 L 950.35 664.62 L 953.51 665.26 L 956.01 666.20 L 957.99 667.41 L 959.51 668.87 L 960.66 670.60 L 961.58 673.06 L 961.99 675.94 L 961.82 679.34 L 960.97 683.39 L 959.71 687.14 L 957.90 691.28 L 955.47 695.88 L 952.32 700.96 L 947.83 707.28 L 942.35 714.05 L 935.76 721.31 L 928.84 728.20 L 921.05 735.24 L 912.32 742.43 L 903.29 749.20 L 893.54 755.83 L 883.04 762.30 L 874.99 766.81 L 866.64 771.08 L 857.96 775.11 L 848.95 778.90 L 843.66 781.07 L 836.30 783.68 L 826.40 786.78 L 810.77 791.13 L 790.68 796.12 L 769.11 800.94 L 743.83 806.04 L 717.35 810.87 L 687.89 815.68 L 657.52 820.08 L 624.90 824.17 L 602.89 826.57 L 580.23 828.73 L 556.89 830.63 L 533.55 832.18 L 509.89 833.37 L 485.91 834.19 L 461.93 834.59 L 437.96 834.52 L 413.99 833.98 L 390.06 832.93 L 366.45 831.31 L 343.18 829.14 L 325.71 827.08 L 308.62 824.67 L 291.88 821.90 L 275.50 818.78 L 259.09 815.19 L 243.22 811.19 L 227.86 806.81 L 212.99 802.04 L 204.36 798.02 L 196.16 793.63 L 188.36 788.88 L 180.95 783.75 L 173.79 778.21 L 166.99 772.40 L 160.52 766.31 L 154.39 759.94 L 146.65 751.04 L 139.45 741.84 L 132.78 732.32 L 126.55 722.51 L 120.82 712.60 L 115.56 702.60 L 110.67 692.40 L 106.23 682.36 L 102.22 672.46 L 96.77 657.57 L 92.21 643.60 L 88.21 629.92 L 84.99 617.74 L 82.19 606.11 L 80.04 596.56 L 76.80 581.77 Z" fill="#47b0f1" fill-opacity="0.05" fill-rule="nonzero" group-id="2,7" id="路径-58" node-id="113" stroke="none" target-height="709.58" target-width="899.95" target-x="62.04" target-y="125.01"></path></g><g node-id="378"><path d="M 158.00 329.00 L 158.00 329.15 L 159.66 329.70 L 161.07 330.55 L 162.28 331.73 L 163.21 333.13 L 163.78 334.71 L 164.00 336.50 L 164.00 337.50 L 163.73 339.51 L 162.98 341.29 L 161.80 342.80 L 160.29 343.98 L 158.51 344.73 L 156.50 345.00 L 77.50 345.00 L 75.49 344.73 L 73.71 343.98 L 72.20 342.80 L 71.02 341.29 L 70.27 339.51 L 70.00 337.50 L 70.00 336.50 L 70.27 334.49 L 71.02 332.71 L 72.20 331.20 L 73.71 330.02 L 75.49 329.27 L 77.50 329.00 L 109.00 329.00 L 110.86 328.74 L 112.47 328.09 L 113.87 327.03 L 114.97 325.66 L 115.68 324.08 L 116.00 322.24 L 116.00 322.00 L 115.74 320.14 L 115.09 318.53 L 114.03 317.13 L 112.66 316.03 L 111.08 315.32 L 109.24 315.00 L 109.00 315.00 L 106.00 315.00 L 106.00 314.85 L 104.34 314.30 L 102.93 313.45 L 101.72 312.28 L 100.79 310.87 L 100.22 309.29 L 100.00 307.50 L 100.00 306.50 L 100.27 304.49 L 101.02 302.71 L 102.20 301.20 L 103.71 300.02 L 105.49 299.27 L 107.50 299.00 L 186.50 299.00 L 188.51 299.27 L 190.29 300.02 L 191.80 301.20 L 192.98 302.71 L 193.73 304.49 L 194.00 306.50 L 194.00 307.50 L 193.73 309.51 L 192.98 311.29 L 191.80 312.80 L 190.29 313.98 L 188.51 314.73 L 186.50 315.00 L 155.00 315.00 L 153.14 315.26 L 151.53 315.91 L 150.13 316.97 L 149.03 318.34 L 148.32 319.92 L 148.00 321.76 L 148.00 322.00 L 148.26 323.86 L 148.91 325.47 L 149.97 326.87 L 151.34 327.97 L 152.92 328.68 L 154.76 329.00 L 155.00 329.00 L 158.00 329.00 Z" fill="url(#linearGradient-1)" fill-opacity="0.1" fill-rule="nonzero" group-id="2,8" id="形状结合" node-id="114" stroke="none" target-height="46" target-width="124" target-x="70" target-y="299"></path></g><g node-id="379"><path d="M 858.00 159.00 L 858.00 159.15 L 859.66 159.70 L 861.07 160.55 L 862.28 161.73 L 863.21 163.13 L 863.78 164.71 L 864.00 166.50 L 864.00 167.50 L 863.73 169.51 L 862.98 171.29 L 861.80 172.80 L 860.29 173.98 L 858.51 174.73 L 856.50 175.00 L 777.50 175.00 L 775.49 174.73 L 773.71 173.98 L 772.20 172.80 L 771.02 171.29 L 770.27 169.51 L 770.00 167.50 L 770.00 166.50 L 770.27 164.49 L 771.02 162.71 L 772.20 161.20 L 773.71 160.02 L 775.49 159.27 L 777.50 159.00 L 809.00 159.00 L 810.86 158.74 L 812.47 158.09 L 813.87 157.03 L 814.97 155.66 L 815.68 154.08 L 816.00 152.24 L 816.00 152.00 L 815.74 150.14 L 815.09 148.53 L 814.03 147.13 L 812.66 146.03 L 811.08 145.32 L 809.24 145.00 L 809.00 145.00 L 806.00 145.00 L 806.00 144.85 L 804.34 144.30 L 802.93 143.45 L 801.72 142.28 L 800.79 140.87 L 800.22 139.29 L 800.00 137.50 L 800.00 136.50 L 800.27 134.49 L 801.02 132.71 L 802.20 131.20 L 803.71 130.02 L 805.49 129.27 L 807.50 129.00 L 886.50 129.00 L 888.51 129.27 L 890.29 130.02 L 891.80 131.20 L 892.98 132.71 L 893.73 134.49 L 894.00 136.50 L 894.00 137.50 L 893.73 139.51 L 892.98 141.29 L 891.80 142.80 L 890.29 143.98 L 888.51 144.73 L 886.50 145.00 L 855.00 145.00 L 853.14 145.26 L 851.53 145.91 L 850.13 146.97 L 849.03 148.34 L 848.32 149.92 L 848.00 151.76 L 848.00 152.00 L 848.26 153.86 L 848.91 155.47 L 849.97 156.87 L 851.34 157.97 L 852.92 158.68 L 854.76 159.00 L 855.00 159.00 L 858.00 159.00 Z" fill="url(#linearGradient-1)" fill-opacity="0.1" fill-rule="nonzero" group-id="2,9" id="形状结合" node-id="115" stroke="none" target-height="46" target-width="124" target-x="770" target-y="129"></path></g><path d="M 514.52 712.00 L 547.37 712.23 L 579.21 712.89 L 610.06 713.95 L 640.94 715.46 L 670.45 717.33 L 698.63 719.55 L 726.81 722.21 L 753.27 725.16 L 778.08 728.37 L 802.87 732.07 L 825.57 735.96 L 846.30 740.01 L 859.80 740.35 L 872.74 741.09 L 885.14 742.23 L 897.51 743.80 L 909.11 745.69 L 919.97 747.90 L 930.76 750.55 L 940.56 753.43 L 949.44 756.51 L 958.16 760.10 L 965.70 763.79 L 972.17 767.57 L 976.89 770.83 L 980.85 774.09 L 984.13 777.33 L 986.82 780.57 L 989.12 784.18 L 990.72 787.76 L 991.67 791.35 L 992.00 795.00 L 991.69 798.54 L 990.79 802.03 L 989.29 805.52 L 987.11 809.02 L 984.58 812.18 L 981.48 815.34 L 977.74 818.52 L 973.29 821.71 L 967.16 825.42 L 960.02 829.05 L 951.76 832.59 L 943.35 835.66 L 934.04 838.54 L 923.79 841.22 L 913.46 843.47 L 902.42 845.45 L 890.61 847.13 L 877.57 850.71 L 863.22 854.25 L 847.45 857.75 L 847.86 860.86 L 848.00 864.00 L 847.72 868.37 L 846.93 872.68 L 845.63 876.97 L 843.78 881.25 L 841.34 885.55 L 838.62 889.49 L 835.40 893.43 L 831.65 897.38 L 827.33 901.35 L 822.39 905.34 L 816.17 909.76 L 809.18 914.15 L 801.36 918.50 L 792.64 922.79 L 783.98 926.61 L 774.61 930.31 L 764.51 933.89 L 753.61 937.35 L 742.85 940.40 L 731.48 943.27 L 719.48 945.96 L 706.82 948.45 L 690.03 951.24 L 672.36 953.60 L 653.78 955.52 L 635.17 956.87 L 615.92 957.71 L 596.00 958.00 L 580.31 957.82 L 565.05 957.30 L 550.19 956.45 L 535.72 955.29 L 521.12 953.78 L 507.09 951.98 L 493.63 949.92 L 480.69 947.60 L 467.61 944.90 L 455.27 941.99 L 443.62 938.87 L 432.64 935.58 L 421.53 931.83 L 411.30 927.95 L 401.91 923.95 L 393.29 919.85 L 384.63 915.21 L 376.98 910.52 L 370.25 905.81 L 364.36 901.08 L 359.76 896.80 L 355.83 892.55 L 352.52 888.32 L 349.79 884.11 L 347.59 879.89 L 319.63 877.55 L 293.22 874.92 L 268.31 872.02 L 243.41 868.68 L 220.39 865.13 L 199.15 861.41 L 177.96 857.17 L 158.97 852.84 L 142.02 848.43 L 129.15 844.64 L 117.74 840.88 L 107.67 837.15 L 98.84 833.46 L 91.44 829.95 L 85.12 826.54 L 79.76 823.22 L 75.26 819.99 L 71.53 816.86 L 68.41 813.69 L 66.00 810.64 L 64.21 807.66 L 62.98 804.75 L 62.26 801.88 L 62.00 799.00 L 62.25 796.17 L 62.95 793.34 L 64.14 790.48 L 65.86 787.57 L 68.18 784.57 L 71.18 781.47 L 74.78 778.38 L 79.12 775.20 L 84.30 771.94 L 90.39 768.58 L 97.53 765.14 L 106.05 761.50 L 115.77 757.82 L 126.79 754.10 L 139.22 750.36 L 155.59 745.99 L 173.95 741.69 L 194.45 737.48 L 215.00 733.77 L 237.29 730.22 L 261.41 726.86 L 285.55 723.93 L 311.15 721.25 L 338.28 718.84 L 365.40 716.83 L 393.72 715.13 L 423.25 713.77 L 452.77 712.80 L 483.18 712.21 L 514.52 712.00 Z" fill="url(#linearGradient-2)" fill-rule="nonzero" group-id="2" id="形状结合" node-id="116" stroke="none" target-height="246" target-width="930" target-x="62" target-y="712"></path><path d="M 686.61 226.65 L 686.61 226.55 L 685.01 222.93 L 683.00 219.68 L 680.58 216.79 L 677.80 214.22 L 674.75 212.00 L 671.42 210.13 L 667.89 208.62 L 664.26 207.48 L 660.49 206.70 L 656.66 206.29 L 652.90 206.27 L 649.17 206.62 L 652.02 205.05 L 655.10 203.70 L 658.44 202.57 L 661.87 201.75 L 665.32 201.25 L 668.81 201.07 L 672.29 201.26 L 675.58 201.84 L 678.72 202.80 L 681.66 204.21 L 684.28 206.07 L 686.61 208.44 L 686.61 208.53 L 688.93 206.19 L 691.55 204.33 L 694.50 202.93 L 697.65 201.97 L 700.95 201.39 L 704.43 201.20 L 707.93 201.37 L 711.38 201.86 L 714.81 202.68 L 718.15 203.79 L 721.22 205.14 L 724.04 206.71 L 720.32 206.38 L 716.56 206.43 L 712.73 206.85 L 708.97 207.63 L 705.33 208.78 L 701.81 210.29 L 698.47 212.16 L 695.42 214.37 L 692.64 216.93 L 690.22 219.81 L 688.21 223.04 L 686.61 226.64 L 686.61 226.65 Z" fill="url(#linearGradient-3)" fill-rule="nonzero" group-id="2,10" id="路径" node-id="118" stroke="none" target-height="25.579987" target-width="74.869995" target-x="649.17" target-y="201.07"></path><path d="M 770.03 214.11 L 770.03 214.04 L 768.91 211.52 L 767.52 209.27 L 765.87 207.27 L 763.93 205.50 L 761.04 203.50 L 757.92 201.95 L 754.53 200.83 L 751.02 200.16 L 747.55 199.97 L 744.09 200.23 L 747.10 198.65 L 750.51 197.42 L 754.08 196.65 L 757.70 196.39 L 760.11 196.51 L 762.39 196.91 L 764.57 197.58 L 766.61 198.56 L 768.42 199.85 L 770.03 201.49 L 770.03 201.55 L 771.65 199.93 L 773.47 198.64 L 775.51 197.67 L 777.69 197.00 L 779.98 196.60 L 782.39 196.47 L 786.01 196.74 L 789.58 197.50 L 792.98 198.72 L 795.98 200.29 L 792.52 200.05 L 789.05 200.26 L 785.54 200.93 L 782.15 202.06 L 779.03 203.61 L 776.14 205.60 L 773.62 208.01 L 771.59 210.83 L 770.03 214.11 L 770.03 214.11 Z" fill="url(#linearGradient-4)" fill-rule="nonzero" group-id="2,10" id="路径" node-id="119" stroke="none" target-height="17.720001" target-width="51.889954" target-x="744.09" target-y="196.39"></path><path d="M 735.24 179.63 L 735.24 179.57 L 734.12 177.04 L 732.73 174.80 L 731.07 172.79 L 729.14 171.02 L 726.25 169.02 L 723.13 167.47 L 719.74 166.35 L 716.23 165.68 L 712.76 165.49 L 709.29 165.75 L 712.31 164.17 L 715.72 162.95 L 719.29 162.18 L 722.91 161.91 L 725.32 162.03 L 727.60 162.43 L 729.78 163.10 L 731.81 164.08 L 733.63 165.37 L 735.24 167.01 L 735.24 167.07 L 736.86 165.45 L 738.67 164.16 L 740.72 163.19 L 742.90 162.53 L 745.18 162.13 L 747.60 161.99 L 751.22 162.26 L 754.79 163.02 L 758.19 164.24 L 761.19 165.82 L 757.73 165.57 L 754.26 165.78 L 750.75 166.45 L 747.36 167.58 L 744.23 169.13 L 741.35 171.12 L 738.83 173.53 L 736.80 176.35 L 735.24 179.63 L 735.24 179.63 Z" fill="url(#linearGradient-4)" fill-rule="nonzero" group-id="2,10" id="路径" node-id="120" stroke="none" target-height="17.720001" target-width="51.900024" target-x="709.29" target-y="161.91"></path><path d="M 840.72 220.07 L 840.72 220.03 L 839.64 217.74 L 838.24 215.78 L 836.49 214.10 L 834.49 212.72 L 832.33 211.64 L 829.98 210.86 L 827.54 210.40 L 825.13 210.27 L 822.74 210.45 L 825.58 209.05 L 828.83 208.11 L 831.09 207.81 L 833.28 207.83 L 835.42 208.14 L 837.44 208.81 L 839.19 209.87 L 840.72 211.32 L 840.72 211.36 L 842.25 209.92 L 844.01 208.88 L 846.04 208.21 L 848.18 207.89 L 850.37 207.87 L 852.64 208.17 L 855.89 209.09 L 858.71 210.49 L 856.31 210.32 L 853.91 210.47 L 851.47 210.93 L 849.12 211.71 L 846.95 212.79 L 844.95 214.17 L 843.21 215.84 L 841.80 217.80 L 840.72 220.07 Z" fill="url(#linearGradient-5)" fill-rule="nonzero" group-id="2,10" id="路径" node-id="121" stroke="none" target-height="12.26001" target-width="35.97003" target-x="822.74" target-y="207.81"></path><path d="M 54.17 676.40 L 46.31 673.15 L 39.62 670.96 L 33.98 669.65 L 29.22 669.06 L 25.22 669.09 L 21.85 669.63 L 19.01 670.62 L 16.61 672.02 L 14.57 673.84 L 12.87 676.12 L 11.49 678.95 L 10.46 682.41 L 9.83 686.65 L 9.69 691.81 L 10.13 698.04 L 11.38 702.83 L 12.85 706.65 L 14.50 709.65 L 16.30 711.97 L 18.25 713.71 L 20.37 714.95 L 26.36 722.62 L 31.07 729.37 L 34.66 735.30 L 37.29 740.50 L 39.10 745.06 L 40.22 749.05 L 40.74 752.57 L 41.38 756.82 L 42.65 761.06 L 43.86 763.77 L 45.39 766.32 L 47.25 768.71 L 49.40 770.83 L 51.92 772.66 L 54.86 774.21 L 57.99 775.32 L 61.61 776.02 L 65.81 776.27 L 70.00 776.00 L 74.83 775.14 L 80.40 773.58 L 84.89 772.39 L 88.96 771.89 L 92.70 772.01 L 96.17 772.70 L 99.42 773.96 L 102.51 775.81 L 105.46 778.30 L 108.29 781.52 L 111.01 785.58 L 113.59 790.62 L 116.01 796.79 L 118.24 804.26 L 122.58 809.52 L 127.33 814.33 L 132.49 818.70 L 138.10 822.66 L 144.17 826.21 L 150.76 829.34 L 157.88 832.05 L 165.60 834.33 L 173.97 836.14 L 183.02 837.47 L 192.83 838.28 L 203.45 838.53 L 214.94 838.17 L 227.37 837.15 L 236.45 835.90 L 243.77 834.35 L 249.57 832.57 L 254.09 830.61 L 257.56 828.53 L 260.15 826.35 L 262.01 824.07 L 263.25 821.66 L 263.92 819.07 L 264.04 816.24 L 263.54 813.09 L 262.33 809.52 L 260.26 805.46 L 257.15 800.79 L 252.78 795.44 L 246.90 789.30 L 239.25 782.28 L 229.54 774.27 L 217.44 765.15 L 204.81 760.39 L 194.77 757.02 L 186.92 754.79 L 180.90 753.48 L 178.55 752.82 L 176.46 751.73 L 174.61 750.18 L 172.95 748.13 L 171.50 745.46 L 170.27 742.07 L 169.32 737.80 L 168.72 732.49 L 168.54 725.97 L 168.30 722.74 L 167.56 719.75 L 166.34 716.95 L 164.60 714.29 L 162.30 711.76 L 159.36 709.34 L 155.68 707.04 L 151.15 704.87 L 145.62 702.86 L 140.07 700.80 L 135.70 698.61 L 132.32 696.31 L 129.77 693.92 L 127.92 691.44 L 126.69 688.83 L 126.02 686.05 L 125.92 683.03 L 126.42 679.72 L 123.31 675.61 L 120.24 672.42 L 117.22 670.03 L 114.21 668.32 L 111.18 667.22 L 108.10 666.69 L 104.92 666.72 L 101.58 667.32 L 98.02 668.56 L 94.21 670.52 L 90.08 673.31 L 85.35 676.59 L 81.00 679.01 L 76.97 680.69 L 73.23 681.71 L 69.73 682.15 L 66.41 682.06 L 63.24 681.45 L 60.16 680.33 L 57.15 678.67 L 54.17 676.40 Z" fill="url(#linearGradient-6)" fill-rule="nonzero" group-id="2,11,18" id="路径-61" node-id="123" stroke="none" target-height="171.84003" target-width="254.35" target-x="9.69" target-y="666.69"></path><path d="M 52.64 691.51 L 100.91 723.73 L 98.81 713.79 L 96.63 705.35 L 94.38 698.25 L 92.09 692.33 L 91.09 689.81 L 91.12 689.73 L 92.59 692.66 L 95.51 699.39 L 98.87 708.18 L 100.42 712.86 L 101.67 717.31 L 102.56 721.63 L 102.89 725.05 L 143.13 751.91 L 143.02 751.75 L 143.55 740.36 L 143.57 731.42 L 143.20 724.53 L 142.54 719.35 L 141.68 715.55 L 142.40 717.00 L 143.28 720.05 L 144.00 723.56 L 144.70 728.00 L 145.71 737.49 L 146.00 742.32 L 146.10 746.65 L 145.98 750.71 L 145.64 753.59 L 182.66 778.29 L 182.32 777.88 L 182.59 775.54 L 183.06 769.84 L 183.22 762.80 L 183.00 759.30 L 182.54 756.41 L 183.07 757.51 L 183.67 760.01 L 184.50 766.44 L 184.92 773.69 L 184.84 779.75 L 215.39 800.14 L 211.52 804.01 L 179.98 781.68 L 177.03 783.20 L 173.95 784.44 L 170.75 785.40 L 165.90 786.41 L 161.44 786.93 L 157.21 787.09 L 154.12 786.94 L 160.72 786.08 L 166.15 784.88 L 170.59 783.39 L 174.16 781.67 L 177.02 779.75 L 178.31 780.68 L 179.52 781.35 L 90.70 718.45 L 91.26 719.14 L 84.51 719.87 L 78.13 720.12 L 72.10 719.91 L 66.39 719.27 L 60.97 718.21 L 55.82 716.76 L 56.13 716.55 L 56.97 716.48 L 58.76 716.74 L 65.80 718.00 L 70.42 718.54 L 76.13 718.75 L 80.03 718.60 L 84.29 718.10 L 88.93 717.21 L 52.64 691.51 Z M 93.97 768.36 L 97.97 768.19 L 102.46 767.40 L 107.51 765.89 L 113.21 763.55 L 119.65 760.24 L 126.93 755.82 L 135.14 750.09 L 137.36 752.31 L 131.86 756.32 L 126.51 759.68 L 121.29 762.42 L 115.88 764.77 L 110.87 766.51 L 106.24 767.69 L 101.50 768.43 L 97.44 768.63 L 93.97 768.36 Z" fill="url(#linearGradient-7)" fill-rule="nonzero" group-id="2,11,19" id="形状结合" node-id="124" stroke="none" target-height="114.28003" target-width="162.75" target-x="52.64" target-y="689.73"></path><path d="M 89.57 607.28 L 82.12 602.51 L 75.77 599.03 L 70.37 596.62 L 65.80 595.11 L 61.93 594.33 L 58.65 594.17 L 55.86 594.51 L 53.45 595.31 L 51.37 596.55 L 49.55 598.24 L 47.96 600.45 L 46.63 603.29 L 45.57 606.88 L 44.85 611.37 L 44.56 616.95 L 44.79 623.79 L 47.76 635.24 L 50.12 645.00 L 52.02 654.32 L 53.15 662.44 L 53.51 667.75 L 53.45 672.78 L 53.01 677.56 L 52.72 680.49 L 52.68 683.80 L 52.93 687.54 L 53.48 691.23 L 54.40 695.11 L 55.71 699.21 L 57.38 703.18 L 59.52 707.16 L 62.18 711.19 L 65.22 714.94 L 68.87 718.57 L 73.19 722.09 L 76.61 724.41 L 80.45 726.59 L 84.76 728.63 L 89.57 730.51 L 95.67 732.89 L 100.51 735.31 L 104.28 737.72 L 107.14 740.14 L 109.24 742.55 L 110.71 744.98 L 111.60 747.45 L 111.98 750.01 L 111.84 752.72 L 111.13 755.63 L 109.79 758.80 L 107.69 762.30 L 107.18 765.73 L 107.24 768.99 L 107.83 772.13 L 108.96 775.18 L 110.68 778.19 L 113.05 781.20 L 116.17 784.21 L 120.16 787.24 L 125.15 790.27 L 131.31 793.31 L 138.79 796.33 L 147.79 799.31 L 158.50 802.22 L 171.14 805.02 L 185.91 807.68 L 198.13 809.43 L 208.17 810.47 L 216.32 810.92 L 222.64 810.93 L 227.87 810.64 L 232.15 810.10 L 235.60 809.36 L 239.17 808.18 L 241.93 806.84 L 244.03 805.35 L 245.59 803.73 L 246.82 801.79 L 247.65 799.68 L 248.08 797.36 L 248.10 794.78 L 247.61 791.36 L 246.59 787.54 L 244.95 783.26 L 241.91 776.93 L 237.97 769.93 L 228.97 755.52 L 223.45 749.62 L 219.47 744.63 L 217.17 741.24 L 215.38 738.13 L 214.02 735.26 L 212.47 730.83 L 211.56 726.58 L 211.10 722.28 L 210.98 717.80 L 211.18 714.69 L 211.68 711.18 L 212.75 703.81 L 212.93 700.01 L 212.61 696.23 L 212.05 693.77 L 211.08 691.36 L 209.69 688.97 L 207.95 686.82 L 205.56 684.69 L 202.42 682.57 L 199.04 680.84 L 194.70 679.16 L 189.22 677.56 L 185.70 676.49 L 182.51 674.97 L 179.61 673.00 L 176.97 670.54 L 174.56 667.55 L 172.40 663.95 L 170.49 659.68 L 168.87 654.61 L 167.57 648.66 L 166.65 641.69 L 166.16 633.59 L 165.36 630.57 L 164.13 628.02 L 162.48 625.88 L 160.39 624.08 L 157.78 622.61 L 154.55 621.49 L 150.58 620.77 L 145.73 620.53 L 139.84 620.86 L 132.72 621.90 L 124.19 623.79 L 120.64 624.23 L 117.08 624.17 L 113.50 623.61 L 109.84 622.52 L 106.09 620.87 L 102.21 618.61 L 98.18 615.64 L 93.97 611.90 L 89.57 607.28 Z" fill="url(#linearGradient-8)" fill-rule="nonzero" group-id="2,11" id="路径-65" node-id="125" stroke="none" target-height="216.76001" target-width="203.54001" target-x="44.56" target-y="594.17"></path><path d="M 74.94 624.74 L 110.38 669.80 L 110.45 669.63 L 112.15 664.88 L 113.30 660.18 L 113.94 655.50 L 114.07 650.82 L 113.69 646.11 L 112.80 641.35 L 112.72 641.04 L 112.73 641.08 L 114.67 646.87 L 115.51 650.05 L 116.08 653.65 L 116.20 657.44 L 115.67 661.87 L 114.96 664.84 L 113.80 668.21 L 112.12 672.01 L 142.15 710.19 L 142.34 709.92 L 144.95 705.70 L 147.13 701.02 L 148.89 695.81 L 150.20 690.03 L 151.02 683.61 L 151.30 676.46 L 151.71 678.46 L 151.97 682.22 L 151.91 686.42 L 151.45 691.61 L 150.55 696.95 L 149.07 702.49 L 147.74 706.11 L 146.10 709.52 L 144.14 712.73 L 170.75 746.55 L 173.02 742.51 L 174.29 739.67 L 175.48 736.17 L 176.31 732.45 L 176.63 728.40 L 176.98 731.31 L 177.09 734.61 L 176.84 738.01 L 176.10 741.66 L 175.31 744.05 L 174.20 746.52 L 172.74 749.08 L 212.00 799.00 L 205.77 799.00 L 167.82 748.45 L 163.16 750.26 L 159.08 751.56 L 155.50 752.43 L 150.20 753.24 L 145.94 753.38 L 141.97 753.05 L 138.86 752.43 L 136.06 751.55 L 134.01 750.70 L 138.18 751.48 L 142.43 751.78 L 146.77 751.61 L 151.25 750.94 L 155.88 749.76 L 160.70 748.01 L 165.73 745.66 L 136.86 707.22 L 137.36 708.13 L 130.09 710.39 L 123.00 712.07 L 115.94 713.23 L 109.43 713.82 L 103.13 713.88 L 97.74 713.41 L 94.27 712.76 L 91.39 711.90 L 89.00 710.87 L 92.28 711.85 L 96.10 712.49 L 100.56 712.73 L 105.76 712.51 L 111.78 711.76 L 118.75 710.37 L 126.77 708.26 L 135.98 705.31 L 135.55 705.46 L 103.38 662.62 L 103.56 663.14 L 98.17 663.21 L 93.20 662.74 L 88.59 661.78 L 84.31 660.34 L 80.30 658.43 L 76.55 656.02 L 73.03 653.11 L 69.72 649.65 L 70.21 649.61 L 71.49 650.37 L 75.34 653.19 L 78.00 654.89 L 81.52 656.74 L 85.43 658.33 L 90.28 659.67 L 93.67 660.26 L 97.51 660.58 L 101.86 660.61 L 74.94 624.74 Z" fill="url(#linearGradient-9)" fill-rule="nonzero" group-id="2,11,20" id="形状结合" node-id="126" stroke="none" target-height="174.26001" target-width="142.28" target-x="69.72" target-y="624.74"></path><path d="M 199.20 608.75 L 202.76 604.29 L 205.99 601.10 L 208.92 598.96 L 211.62 597.66 L 214.16 597.07 L 216.59 597.08 L 219.00 597.70 L 221.46 598.99 L 224.02 601.05 L 226.71 604.09 L 229.55 608.32 L 232.55 614.01 L 233.68 619.31 L 234.29 624.01 L 235.21 632.61 L 235.70 635.21 L 236.44 637.65 L 237.45 639.95 L 238.77 642.06 L 240.63 644.14 L 243.12 646.20 L 245.87 647.92 L 249.56 649.70 L 254.37 651.51 L 258.45 653.12 L 261.68 654.90 L 264.19 656.83 L 266.10 658.90 L 267.48 661.13 L 268.38 663.55 L 268.82 666.22 L 268.75 669.19 L 268.13 672.54 L 266.85 676.35 L 264.79 680.69 L 261.81 685.66 L 260.43 689.47 L 259.82 692.72 L 259.83 695.50 L 260.38 697.91 L 261.45 700.06 L 263.07 701.98 L 265.34 703.72 L 268.38 705.26 L 272.39 706.57 L 275.08 707.52 L 277.09 708.76 L 278.58 710.27 L 279.60 712.08 L 280.18 714.27 L 280.28 716.94 L 279.77 720.24 L 278.52 724.30 L 276.32 729.29 L 272.94 735.39 L 268.12 742.79 L 265.93 748.48 L 264.73 753.10 L 264.31 756.84 L 264.52 759.86 L 265.25 762.32 L 266.44 764.33 L 268.12 765.99 L 270.46 767.98 L 273.22 770.93 L 274.92 773.15 L 276.55 775.79 L 278.11 778.91 L 279.33 782.15 L 280.26 785.88 L 280.87 790.15 L 281.00 794.45 L 280.60 799.34 L 279.59 804.90 L 278.06 810.31 L 275.71 816.44 L 272.39 823.38 L 270.25 826.95 L 268.03 829.95 L 265.73 832.44 L 263.35 834.47 L 259.79 836.76 L 256.15 838.39 L 252.38 839.40 L 248.48 839.88 L 244.54 839.88 L 240.53 839.40 L 236.57 838.52 L 232.69 837.29 L 228.86 835.72 L 223.40 832.87 L 218.44 829.59 L 213.95 825.93 L 210.32 822.27 L 208.21 819.63 L 206.65 817.21 L 205.56 814.98 L 204.55 811.71 L 203.94 808.32 L 203.73 804.78 L 203.96 799.43 L 204.65 793.97 L 206.48 783.35 L 207.18 778.26 L 207.40 773.74 L 207.18 770.83 L 206.56 768.26 L 205.56 765.99 L 204.30 764.32 L 202.54 762.64 L 200.18 760.95 L 196.34 758.62 L 191.83 756.10 L 187.25 753.44 L 182.68 750.43 L 179.81 748.18 L 177.21 745.69 L 174.89 742.94 L 172.98 739.92 L 171.55 736.51 L 170.61 732.62 L 170.33 729.69 L 170.44 726.40 L 170.98 722.68 L 172.01 718.47 L 174.60 714.63 L 177.14 711.33 L 179.63 708.15 L 181.78 705.12 L 183.01 703.02 L 183.98 700.81 L 184.68 698.45 L 185.05 696.03 L 185.03 693.23 L 184.58 689.97 L 183.76 686.79 L 182.34 682.94 L 180.22 678.31 L 177.38 672.97 L 175.21 669.25 L 171.88 663.77 L 170.88 661.72 L 170.47 660.09 L 170.55 658.44 L 171.23 656.43 L 172.38 654.25 L 174.39 651.03 L 180.22 642.12 L 183.51 638.32 L 187.04 633.31 L 190.83 626.88 L 194.88 618.79 L 199.20 608.75 Z" fill="url(#linearGradient-10)" fill-rule="nonzero" group-id="2,11" id="路径-96" node-id="127" stroke="none" target-height="242.81" target-width="110.67" target-x="170.33" target-y="597.07"></path><path d="M 216.11 638.51 L 227.46 695.42 L 233.00 686.91 L 237.42 679.40 L 240.85 672.79 L 243.42 666.99 L 244.50 664.50 L 244.57 664.46 L 243.54 667.58 L 240.85 674.40 L 237.01 682.99 L 234.79 687.39 L 232.53 691.42 L 230.11 695.11 L 227.92 697.76 L 237.38 745.21 L 237.42 745.02 L 245.84 737.34 L 252.18 731.03 L 256.79 725.90 L 259.99 721.76 L 262.07 718.47 L 261.54 720.00 L 260.01 722.78 L 258.04 725.77 L 255.40 729.40 L 249.40 736.83 L 246.20 740.45 L 243.20 743.59 L 240.24 746.37 L 237.97 748.17 L 246.68 791.81 L 246.73 791.28 L 248.58 789.82 L 252.94 786.12 L 258.03 781.25 L 260.35 778.62 L 262.07 776.25 L 261.66 777.41 L 260.32 779.60 L 256.36 784.74 L 251.53 790.16 L 247.19 794.39 L 254.37 830.40 L 248.90 830.40 L 242.39 792.31 L 239.23 791.30 L 236.18 790.00 L 233.23 788.41 L 229.08 785.70 L 225.57 782.92 L 222.47 780.04 L 220.38 777.75 L 225.65 781.81 L 230.35 784.80 L 234.53 786.88 L 238.28 788.20 L 241.66 788.86 L 241.92 790.42 L 242.29 791.75 L 223.96 684.47 L 223.87 685.35 L 218.58 681.10 L 213.90 676.76 L 209.79 672.35 L 206.20 667.86 L 203.11 663.29 L 200.50 658.61 L 200.87 658.69 L 201.50 659.23 L 202.59 660.68 L 206.68 666.55 L 209.57 670.20 L 213.45 674.38 L 216.32 677.04 L 219.68 679.69 L 223.60 682.34 L 216.11 638.51 Z M 190.99 722.08 L 193.94 724.79 L 197.67 727.40 L 202.31 729.90 L 207.99 732.28 L 214.89 734.50 L 223.17 736.51 L 233.02 738.27 L 233.02 741.41 L 226.29 740.36 L 220.14 738.94 L 214.51 737.20 L 209.01 735.03 L 204.25 732.72 L 200.14 730.27 L 196.26 727.45 L 193.25 724.72 L 190.99 722.08 Z" fill="url(#linearGradient-7)" fill-rule="nonzero" group-id="2,11" id="形状结合" node-id="128" stroke="none" target-height="191.89001" target-width="71.08" target-x="190.99" target-y="638.51"></path><path d="M 938.40 787.52 L 938.95 781.38 L 938.93 776.07 L 938.44 771.49 L 937.51 767.55 L 936.21 764.15 L 934.55 761.23 L 932.54 758.73 L 930.16 756.60 L 927.38 754.81 L 924.14 753.38 L 920.38 752.30 L 916.00 751.63 L 920.95 751.41 L 925.50 751.63 L 929.69 752.27 L 933.56 753.29 L 937.14 754.69 L 940.61 756.53 L 943.72 758.70 L 946.51 761.19 L 948.98 764.04 L 951.16 767.26 L 952.93 770.65 L 954.34 774.33 L 955.40 778.35 L 956.09 782.73 L 956.38 787.52 L 948.50 787.65 L 938.40 787.52 Z" fill="url(#linearGradient-11)" fill-rule="nonzero" group-id="2,12" id="路径-38" node-id="130" stroke="none" target-height="36.24005" target-width="40.380005" target-x="916" target-y="751.41"></path><path d="M 950.12 787.65 L 951.21 781.17 L 951.68 775.22 L 951.58 769.76 L 950.96 764.72 L 949.84 760.06 L 948.24 755.73 L 946.18 751.69 L 943.62 747.92 L 940.56 744.39 L 936.95 741.08 L 932.73 738.00 L 937.89 739.74 L 942.70 741.69 L 947.18 743.86 L 951.44 746.39 L 955.38 749.38 L 959.04 752.83 L 961.47 755.66 L 963.76 758.90 L 965.90 762.60 L 967.90 766.80 L 969.51 771.00 L 970.97 775.83 L 972.27 781.35 L 973.37 787.65 L 967.00 787.95 L 959.31 787.97 L 950.12 787.65 Z" fill="url(#linearGradient-12)" fill-rule="nonzero" group-id="2,12" id="路径-39" node-id="131" stroke="none" target-height="49.96997" target-width="40.640015" target-x="932.73" target-y="738"></path><path d="M 977.07 788.00 L 976.73 781.72 L 976.99 776.27 L 977.76 771.55 L 978.98 767.46 L 980.63 763.91 L 982.67 760.84 L 985.13 758.18 L 988.03 755.92 L 991.43 754.02 L 995.39 752.50 L 1000.00 751.39 L 995.13 751.29 L 990.16 751.39 L 986.86 751.67 L 983.55 752.24 L 980.22 753.13 L 977.02 754.38 L 973.78 756.16 L 970.49 758.54 L 967.52 761.30 L 964.47 764.91 L 961.33 769.53 L 958.63 774.39 L 955.86 780.48 L 953.05 788.00 L 968.31 787.74 L 977.07 788.00 Z" fill="none" group-id="2,12" id="路径-40" node-id="132" stroke="none" target-height="36.710022" target-width="46.950012" target-x="953.05" target-y="751.29"></path><path d="M 927.41 802.00 L 933.64 801.98 L 939.14 801.82 L 942.72 801.51 L 945.83 800.97 L 948.52 800.23 L 951.03 799.11 L 953.09 797.60 L 954.75 795.68 L 955.66 794.05 L 956.36 792.05 L 956.82 789.60 L 957.00 786.61 L 956.71 782.68 L 955.91 778.99 L 954.60 775.47 L 952.83 772.16 L 950.66 769.14 L 948.07 766.38 L 945.15 763.97 L 941.92 761.92 L 938.37 760.25 L 934.64 759.03 L 930.70 758.27 L 926.50 758.00 L 922.30 758.27 L 918.36 759.03 L 914.63 760.25 L 911.08 761.92 L 907.85 763.97 L 904.93 766.38 L 902.34 769.14 L 900.17 772.16 L 898.40 775.47 L 897.09 778.99 L 896.29 782.68 L 896.00 786.61 L 896.20 789.58 L 896.72 792.02 L 897.51 794.03 L 898.54 795.68 L 900.37 797.58 L 902.63 799.10 L 905.39 800.23 L 908.32 800.98 L 911.64 801.51 L 915.40 801.82 L 921.13 801.98 L 927.41 802.00 Z" fill="url(#linearGradient-14)" fill-rule="nonzero" group-id="2,12" id="椭圆形" node-id="133" stroke="none" target-height="44" target-width="61" target-x="896" target-y="758"></path><path d="M 960.57 802.00 L 967.88 801.89 L 971.11 801.55 L 973.72 800.91 L 975.28 800.22 L 976.56 799.30 L 977.60 798.12 L 978.32 796.74 L 978.81 794.92 L 979.00 792.56 L 978.68 789.36 L 977.82 786.43 L 976.41 783.69 L 974.53 781.25 L 972.27 779.15 L 969.59 777.40 L 966.66 776.10 L 963.48 775.30 L 960.00 775.00 L 956.52 775.30 L 953.34 776.10 L 950.41 777.40 L 947.73 779.15 L 945.47 781.25 L 943.59 783.69 L 942.18 786.43 L 941.32 789.36 L 941.00 792.56 L 941.21 794.91 L 941.76 796.73 L 942.58 798.12 L 943.72 799.29 L 945.13 800.22 L 946.85 800.91 L 949.68 801.55 L 953.08 801.89 L 960.57 802.00 Z" fill="url(#linearGradient-15)" fill-rule="nonzero" group-id="2,12" id="椭圆形备份-6" node-id="134" stroke="none" target-height="27" target-width="38" target-x="941" target-y="775"></path></g><g node-id="373"><g node-id="383"><g node-id="391"><path d="M 657.68 731.56 L 916.00 759.20 L 932.73 835.00 L 623.45 759.20 Z" fill="url(#linearGradient-16)" fill-opacity="0.1" fill-rule="evenodd" group-id="3,13,21" id="路径" node-id="137" stroke="none" target-height="103.44" target-width="309.27997" target-x="623.45" target-y="731.56"></path></g><path d="M 619.38 709.77 L 630.03 710.04 L 639.70 710.76 L 648.95 711.97 L 656.70 713.48 L 661.68 714.80 L 665.73 716.16 L 668.97 717.56 L 672.01 719.33 L 673.95 721.01 L 675.06 722.62 L 675.47 722.62 L 675.47 743.76 L 675.47 743.75 L 675.47 743.92 L 675.22 745.27 L 674.50 746.64 L 673.20 748.06 L 671.15 749.56 L 668.23 751.11 L 664.36 752.66 L 659.35 754.18 L 654.29 755.37 L 648.47 756.43 L 641.82 757.33 L 635.16 757.96 L 628.01 758.37 L 620.31 758.55 L 619.38 758.55 L 611.58 758.41 L 604.32 758.02 L 597.55 757.40 L 590.79 756.51 L 584.87 755.45 L 579.72 754.26 L 574.62 752.74 L 570.68 751.18 L 567.70 749.61 L 565.61 748.10 L 564.28 746.66 L 563.55 745.28 L 563.30 743.92 L 563.30 743.76 L 563.30 743.76 L 563.30 722.62 L 563.71 722.62 L 564.82 721.01 L 566.76 719.33 L 569.80 717.56 L 573.04 716.16 L 577.09 714.80 L 582.07 713.48 L 589.82 711.97 L 599.07 710.76 L 608.74 710.04 L 619.38 709.77 Z" fill="url(#linearGradient-17)" fill-rule="nonzero" group-id="3,13" id="形状结合" node-id="138" stroke="none" target-height="48.77997" target-width="112.16998" target-x="563.3" target-y="709.77"></path><path d="M 622.16 720.49 L 629.74 727.17 L 641.33 720.49 L 641.33 556.15 L 622.16 556.15 Z" fill="url(#linearGradient-18)" fill-rule="nonzero" group-id="3,13" id="路径" node-id="139" stroke="none" target-height="171.01996" target-width="19.170044" target-x="622.16" target-y="556.15"></path><path d="M 599.87 560.60 L 629.73 560.60 L 629.73 727.17 L 599.87 727.17 Z" fill="url(#linearGradient-19)" fill-rule="nonzero" group-id="3,13" id="矩形" node-id="140" stroke="none" target-height="166.57" target-width="29.859985" target-x="599.87" target-y="560.6"></path><path d="M 469.00 462.18 L 469.26 456.71 L 469.97 451.44 L 471.13 446.32 L 472.74 441.35 L 474.77 436.51 L 477.18 431.90 L 479.97 427.48 L 483.15 423.25 L 486.65 419.29 L 490.46 415.60 L 494.58 412.17 L 499.03 408.98 L 503.69 406.15 L 508.59 403.65 L 513.75 401.47 L 519.17 399.63 L 524.68 398.19 L 530.37 397.14 L 536.26 396.50 L 542.36 396.27 L 731.48 396.27 L 738.18 396.52 L 744.65 397.23 L 750.89 398.38 L 756.94 399.96 L 762.90 401.98 L 768.56 404.37 L 773.94 407.12 L 779.06 410.23 L 783.95 413.72 L 788.48 417.49 L 792.65 421.55 L 796.50 425.90 L 799.99 430.54 L 803.05 435.39 L 805.70 440.46 L 807.93 445.77 L 809.70 451.23 L 810.98 456.85 L 811.76 462.64 L 812.04 468.64 L 812.04 573.53 L 469.00 573.53 L 469.00 462.18 Z" fill="url(#linearGradient-20)" fill-rule="nonzero" group-id="3,13" id="路径" node-id="141" stroke="none" target-height="177.26004" target-width="343.03998" target-x="469" target-y="396.27"></path><path d="M 740.40 396.26 L 734.34 396.51 L 728.50 397.22 L 722.84 398.38 L 717.36 399.97 L 711.99 402.00 L 706.87 404.40 L 702.00 407.17 L 697.35 410.31 L 692.94 413.80 L 688.85 417.59 L 685.06 421.67 L 681.57 426.07 L 678.42 430.72 L 675.65 435.59 L 673.25 440.70 L 671.22 446.06 L 669.62 451.54 L 668.47 457.19 L 667.76 463.03 L 667.50 469.07 L 667.50 573.51 L 813.29 573.51 L 813.29 469.07 L 813.03 463.03 L 812.32 457.19 L 811.17 451.54 L 809.57 446.06 L 807.54 440.70 L 805.14 435.59 L 802.37 430.72 L 799.23 426.07 L 795.73 421.67 L 791.94 417.59 L 787.85 413.80 L 783.45 410.31 L 778.80 407.17 L 773.92 404.40 L 768.81 402.00 L 763.44 399.97 L 757.95 398.38 L 752.30 397.22 L 746.45 396.51 L 740.40 396.26 Z" fill="url(#linearGradient-21)" fill-rule="nonzero" group-id="3,13" id="路径" node-id="142" stroke="none" target-height="177.25" target-width="145.78998" target-x="667.5" target-y="396.26"></path><path d="M 740.40 407.39 L 735.40 407.60 L 730.57 408.19 L 725.90 409.14 L 721.37 410.46 L 716.94 412.13 L 712.72 414.11 L 708.69 416.40 L 704.85 418.99 L 700.06 422.89 L 695.72 427.22 L 691.82 432.01 L 689.22 435.84 L 686.93 439.87 L 684.95 444.08 L 683.27 448.51 L 681.95 453.04 L 681.00 457.71 L 680.42 462.53 L 680.20 467.52 L 680.20 562.83 L 800.58 562.83 L 800.58 467.52 L 800.37 462.53 L 799.78 457.71 L 798.83 453.04 L 797.52 448.52 L 795.84 444.09 L 793.86 439.87 L 791.57 435.85 L 788.97 432.01 L 785.07 427.23 L 780.73 422.89 L 775.94 418.99 L 772.10 416.40 L 768.08 414.11 L 763.85 412.13 L 759.42 410.46 L 754.89 409.14 L 750.22 408.19 L 745.39 407.60 L 740.40 407.39 Z" fill="url(#linearGradient-22)" fill-rule="nonzero" group-id="3,13" id="路径" node-id="143" stroke="none" target-height="155.44" target-width="120.380005" target-x="680.2" target-y="407.39"></path><path d="M 800.59 573.52 L 803.23 575.21 L 810.23 579.71 L 820.23 586.19 L 831.83 593.83 L 843.68 601.80 L 854.39 609.25 L 857.03 613.15 L 859.21 616.99 L 860.97 620.80 L 862.34 624.58 L 863.36 628.53 L 863.92 632.33 L 864.05 636.02 L 863.77 639.61 L 863.05 643.14 L 861.86 646.49 L 860.21 649.69 L 858.06 652.78 L 855.56 655.50 L 852.52 658.04 L 848.87 660.39 L 844.54 662.55 L 840.17 664.20 L 835.12 665.58 L 829.28 666.66 L 822.58 667.40 L 814.00 667.25 L 805.98 666.70 L 798.46 665.76 L 791.03 664.36 L 783.91 662.50 L 777.09 660.21 L 770.44 657.44 L 763.89 654.15 L 757.41 650.32 L 751.19 646.07 L 744.86 641.19 L 738.41 635.62 L 680.21 573.51 L 680.21 562.83 L 800.59 573.52 Z" fill="url(#linearGradient-23)" fill-rule="nonzero" group-id="3,13" id="路径" node-id="144" stroke="none" target-height="104.57001" target-width="183.83997" target-x="680.21" target-y="562.83"></path><path d="M 848.57 599.48 L 852.01 602.65 L 854.94 605.84 L 857.40 609.06 L 859.43 612.33 L 861.15 615.85 L 862.42 619.29 L 863.25 622.66 L 863.68 626.00 L 863.71 629.39 L 863.32 632.63 L 862.52 635.74 L 861.31 638.75 L 859.71 641.55 L 857.70 644.17 L 855.24 646.60 L 852.28 648.87 L 849.14 650.71 L 845.52 652.30 L 841.36 653.61 L 836.57 654.62 L 829.67 655.47 L 821.52 655.80 L 813.54 655.57 L 805.71 654.78 L 798.00 653.43 L 790.41 651.52 L 782.91 649.04 L 775.73 646.08 L 768.61 642.49 L 761.53 638.25 L 754.48 633.33 L 747.44 627.69 L 740.41 621.29 L 680.21 559.24 L 800.59 559.24 L 848.57 599.48 Z" fill="url(#linearGradient-24)" fill-rule="nonzero" group-id="3,13" id="路径" node-id="145" stroke="none" target-height="96.56" target-width="183.5" target-x="680.21" target-y="559.24"></path></g><path d="M 631.09 548.66 L 599.55 548.66 L 598.59 548.44 L 597.72 547.84 L 596.91 546.76 L 596.12 544.77 L 595.81 542.16 L 595.81 542.16 L 596.12 539.55 L 596.91 537.56 L 597.72 536.48 L 598.59 535.88 L 599.55 535.66 L 631.09 535.66 L 632.05 535.88 L 632.92 536.48 L 633.74 537.56 L 634.52 539.55 L 634.83 542.16 L 634.83 542.16 L 634.52 544.77 L 633.74 546.76 L 632.92 547.84 L 632.05 548.44 L 631.09 548.66 Z" fill="#ffffff" fill-rule="nonzero" group-id="3" id="路径" node-id="146" stroke="none" target-height="13" target-width="39.02002" target-x="595.81" target-y="535.66"></path><path d="M 629.54 514.52 L 584.85 514.52 L 583.43 514.28 L 582.20 513.66 L 581.10 512.62 L 580.28 511.32 L 579.76 509.81 L 579.55 508.02 L 579.55 508.02 L 579.76 506.23 L 580.28 504.71 L 581.10 503.42 L 582.20 502.38 L 583.43 501.76 L 584.85 501.51 L 629.54 501.51 L 630.95 501.76 L 632.18 502.38 L 633.28 503.42 L 634.10 504.71 L 634.62 506.23 L 634.83 508.02 L 634.83 508.02 L 634.62 509.81 L 634.10 511.32 L 633.28 512.62 L 632.18 513.66 L 630.95 514.28 L 629.54 514.52 Z" fill="#ffffff" fill-rule="nonzero" group-id="3" id="路径" node-id="147" stroke="none" target-height="13.01001" target-width="55.28003" target-x="579.55" target-y="501.51"></path><path d="M 627.98 480.38 L 570.15 480.38 L 568.28 480.13 L 566.68 479.49 L 565.30 478.47 L 564.22 477.15 L 563.56 475.64 L 563.30 473.88 L 563.56 472.12 L 564.22 470.60 L 565.30 469.28 L 566.68 468.26 L 568.28 467.62 L 570.15 467.37 L 627.98 467.37 L 629.85 467.62 L 631.44 468.26 L 632.82 469.28 L 633.90 470.60 L 634.57 472.12 L 634.83 473.88 L 634.57 475.64 L 633.90 477.15 L 632.82 478.47 L 631.44 479.49 L 629.85 480.13 L 627.98 480.38 Z" fill="#ffffff" fill-rule="nonzero" group-id="3" id="路径" node-id="148" stroke="none" target-height="13.01001" target-width="71.53003" target-x="563.3" target-y="467.37"></path></g><g node-id="374"><path d="M 340.08 828.50 L 346.26 830.66 L 349.99 832.38 L 352.12 833.71 L 353.36 834.80 L 353.98 835.72 L 354.26 836.74 L 354.14 837.69 L 353.62 838.64 L 352.36 839.93 L 350.47 841.29 L 346.10 843.79 L 342.82 845.85 L 340.63 847.67 L 339.28 849.28 L 338.33 851.11 L 337.96 852.81 L 338.09 854.45 L 338.63 856.05 L 339.51 857.68 L 340.77 859.34 L 342.97 861.67 L 345.52 864.00 L 347.44 865.37 L 350.73 867.11 L 355.91 869.30 L 361.15 871.16 L 367.68 873.14 L 375.70 875.25 L 383.76 877.06 L 392.90 878.78 L 403.23 880.38 L 413.56 881.64 L 424.75 882.59 L 436.83 883.23 L 448.89 883.43 L 461.55 883.14 L 474.83 882.33 L 484.71 881.37 L 494.79 880.04 L 505.07 878.33 L 515.57 876.22 L 525.44 873.83 L 533.92 871.42 L 541.15 869.02 L 547.27 866.64 L 553.58 863.75 L 558.78 860.95 L 562.99 858.24 L 566.35 855.63 L 569.59 852.53 L 572.06 849.58 L 573.85 846.76 L 575.06 844.04 L 575.88 841.08 L 576.23 838.22 L 576.16 835.44 L 575.65 832.71 L 574.44 829.16 L 572.69 825.77 L 570.38 822.49 L 567.69 819.48 L 564.73 816.73 L 561.48 814.23 L 556.83 811.39 L 549.17 807.63 L 540.43 803.99 L 529.09 799.91 L 516.87 796.13 L 502.48 792.33 L 492.59 790.10 L 481.96 788.03 L 470.53 786.15 L 459.08 784.63 L 447.07 783.45 L 434.48 782.62 L 421.88 782.25 L 408.90 782.37 L 395.54 783.00 L 383.52 783.98 L 373.21 785.09 L 364.43 786.30 L 355.68 787.80 L 348.47 789.31 L 342.60 790.82 L 336.79 792.63 L 332.35 794.33 L 329.05 795.91 L 325.90 797.83 L 323.90 799.49 L 322.75 800.93 L 321.16 803.63 L 319.98 806.17 L 319.16 808.59 L 318.75 811.05 L 318.90 813.42 L 319.60 815.74 L 320.83 817.85 L 322.87 820.05 L 325.95 822.39 L 329.32 824.30 L 333.94 826.34 L 340.08 828.50 Z" fill="url(#linearGradient-25)" fill-opacity="0.4" fill-rule="nonzero" group-id="4" id="路径" node-id="149" stroke="none" target-height="101.17999" target-width="257.47998" target-x="318.75" target-y="782.25"></path></g><g node-id="375"><path d="M 452.74 638.99 L 455.51 639.44 L 458.15 640.21 L 460.68 641.32 L 463.05 642.74 L 465.21 644.44 L 467.19 646.45 L 468.78 648.48 L 470.07 650.71 L 470.12 650.82 L 469.97 650.05 L 470.71 650.48 L 471.36 651.26 L 471.89 652.52 L 472.35 654.68 L 472.55 657.47 L 472.55 657.74 L 473.38 657.69 L 474.14 657.95 L 474.87 658.53 L 475.73 659.76 L 476.37 661.45 L 476.64 663.29 L 476.51 665.19 L 475.90 666.97 L 474.75 668.47 L 473.73 669.21 L 472.37 669.72 L 470.58 669.99 L 469.49 672.17 L 465.71 677.70 L 463.49 680.38 L 460.96 682.64 L 460.99 692.23 L 442.04 692.50 L 442.12 681.23 L 440.00 679.16 L 438.21 676.66 L 436.32 673.41 L 434.79 669.99 L 435.17 669.97 L 433.00 669.89 L 431.39 669.47 L 430.19 668.78 L 429.20 667.79 L 428.51 666.67 L 428.10 665.37 L 427.93 663.33 L 428.23 661.35 L 428.94 659.56 L 429.91 658.33 L 430.72 657.81 L 431.55 657.68 L 432.48 657.92 L 432.50 656.38 L 433.06 653.25 L 434.09 650.27 L 435.54 647.48 L 437.42 644.92 L 439.51 642.88 L 441.81 641.26 L 444.35 640.04 L 447.06 639.23 L 449.84 638.88 L 452.74 638.99 Z M 470.54 652.99 L 470.55 653.15 L 470.65 654.27 L 471.00 655.34 L 470.54 652.99 Z M 470.12 650.82 L 470.54 652.99 L 470.54 652.86 L 470.37 651.45 L 470.29 651.17 L 470.12 650.82 Z" fill="#ebb0b0" fill-rule="nonzero" group-id="5" id="形状结合" node-id="151" stroke="none" target-height="53.619995" target-width="48.710022" target-x="427.93" target-y="638.88"></path><path d="M 472.70 659.61 L 473.90 658.22 L 475.02 656.47 L 476.04 654.29 L 477.16 650.81 L 477.86 646.88 L 478.06 642.85 L 477.68 638.86 L 477.08 636.26 L 476.18 633.88 L 474.98 631.69 L 473.45 629.75 L 471.56 628.13 L 469.25 626.84 L 467.99 625.82 L 466.08 625.13 L 463.86 624.78 L 460.99 624.64 L 459.68 624.70 L 458.84 624.86 L 457.56 625.31 L 457.01 625.43 L 456.34 625.41 L 455.62 625.08 L 454.55 624.30 L 453.35 623.40 L 451.69 622.38 L 449.76 621.57 L 447.15 620.99 L 445.88 620.94 L 443.96 621.13 L 439.72 622.07 L 437.56 622.77 L 435.68 623.57 L 434.03 624.52 L 433.06 625.41 L 431.14 627.11 L 428.98 629.63 L 427.04 632.55 L 425.25 636.11 L 423.89 639.98 L 423.01 644.32 L 422.83 647.25 L 423.02 649.79 L 423.52 652.00 L 424.76 655.19 L 426.42 658.20 L 430.25 664.45 L 431.81 663.11 L 433.05 661.41 L 435.03 657.48 L 436.02 655.49 L 437.14 653.70 L 439.90 650.81 L 442.97 648.27 L 446.30 646.10 L 449.88 644.32 L 454.95 643.70 L 458.82 643.59 L 461.22 643.88 L 463.34 644.57 L 465.24 645.67 L 466.88 647.14 L 468.56 649.31 L 470.30 652.35 L 472.70 659.61 Z" fill="#131322" fill-rule="nonzero" group-id="5" id="路径" node-id="152" stroke="none" target-height="43.51001" target-width="55.23001" target-x="422.83" target-y="620.94"></path><path d="M 442.47 684.50 L 445.62 686.64 L 448.97 688.66 L 450.70 689.33 L 452.38 689.59 L 453.67 689.39 L 455.16 688.68 L 458.08 686.54 L 460.65 684.50 L 464.68 684.89 L 469.73 685.79 L 474.99 687.13 L 480.89 689.06 L 486.84 691.47 L 493.08 694.51 L 499.19 698.08 L 505.25 702.32 L 505.15 713.57 L 504.88 722.73 L 504.41 731.27 L 503.82 738.30 L 503.05 744.92 L 502.18 750.62 L 501.15 756.09 L 500.03 761.23 L 497.47 771.70 L 494.60 783.61 L 493.25 786.31 L 489.94 792.23 L 485.53 799.78 L 480.86 807.38 L 476.78 813.43 L 475.04 815.58 L 474.14 816.36 L 469.85 818.31 L 465.84 819.70 L 462.07 820.58 L 458.23 821.11 L 454.33 821.34 L 450.37 821.26 L 444.31 820.79 L 437.49 820.02 L 436.51 819.64 L 434.52 818.41 L 429.74 814.81 L 424.41 810.40 L 419.79 806.39 L 417.15 803.98 L 416.59 803.21 L 415.49 801.27 L 412.88 796.05 L 409.93 789.74 L 407.27 783.72 L 405.50 779.43 L 403.46 773.43 L 401.56 766.45 L 400.90 763.01 L 400.61 760.18 L 400.13 747.89 L 399.61 733.40 L 399.16 718.23 L 398.89 703.89 L 401.40 700.61 L 404.01 697.85 L 406.71 695.59 L 409.63 693.61 L 412.60 691.96 L 415.64 690.63 L 420.33 689.05 L 425.02 687.89 L 434.18 686.23 L 438.55 685.43 L 442.47 684.50 Z" fill="url(#linearGradient-26)" fill-rule="nonzero" group-id="5" id="路径" node-id="153" stroke="none" target-height="136.84003" target-width="106.359985" target-x="398.89" target-y="684.5"></path><path d="M 439.01 695.11 L 462.10 695.11 L 463.67 695.43 L 464.93 696.29 L 465.78 697.55 L 466.10 699.11 L 466.10 736.93 L 465.78 738.50 L 464.93 739.76 L 463.67 740.61 L 462.10 740.93 L 439.01 740.93 L 437.44 740.61 L 436.18 739.76 L 435.33 738.50 L 435.01 736.93 L 435.01 699.11 L 435.33 697.55 L 436.18 696.29 L 437.44 695.43 L 439.01 695.11 Z" fill="url(#linearGradient-27)" fill-rule="nonzero" group-id="5" id="矩形" node-id="154" stroke="none" target-height="45.820007" target-width="31.089996" target-x="435.01" target-y="695.11"></path><g node-id="384"><path d="M 425.43 735.84 L 427.18 731.22 L 429.12 727.28 L 431.23 723.93 L 433.50 721.12 L 435.06 720.31 L 435.79 720.13 L 436.23 720.28 L 436.27 720.72 L 436.01 721.32 L 435.39 722.12 L 437.93 721.53 L 439.72 721.45 L 441.77 721.80 L 443.06 722.34 L 444.35 723.28 L 445.66 724.71 L 446.67 726.36 L 447.58 728.74 L 448.35 732.04 L 447.62 734.00 L 446.43 736.35 L 444.95 738.66 L 443.07 740.99 L 440.90 743.08 L 438.39 744.86 L 436.57 745.79 L 434.61 746.45 L 432.51 746.86 L 430.30 746.49 L 428.57 745.64 L 427.23 744.28 L 426.21 742.34 L 425.58 739.60 L 425.43 735.84 Z" fill="#efba9e" fill-rule="nonzero" group-id="5,14" id="路径-109" node-id="155" stroke="none" target-height="26.72998" target-width="22.920013" target-x="425.43" target-y="720.13"></path></g><path d="M 395.69 704.33 L 398.43 701.37 L 400.96 699.31 L 403.32 697.98 L 405.54 697.25 L 407.70 697.06 L 409.83 697.37 L 412.01 698.21 L 414.27 699.66 L 416.66 701.85 L 417.72 703.25 L 418.73 705.42 L 419.63 708.62 L 420.49 713.74 L 421.06 720.46 L 421.27 727.61 L 421.21 735.77 L 420.89 744.14 L 420.35 752.90 L 419.62 761.69 L 418.74 770.26 L 417.73 778.64 L 416.66 786.20 L 414.53 788.48 L 412.48 790.19 L 410.50 791.41 L 408.56 792.20 L 405.79 792.78 L 403.16 792.77 L 400.62 792.19 L 398.21 791.13 L 396.01 789.68 L 393.98 787.82 L 392.24 785.66 L 390.84 783.31 L 389.76 780.73 L 387.58 770.09 L 386.14 760.28 L 385.40 751.22 L 385.29 742.86 L 385.76 735.14 L 386.76 728.01 L 388.28 721.41 L 390.28 715.29 L 392.75 709.61 L 395.69 704.33 Z" fill="url(#linearGradient-28)" fill-rule="nonzero" group-id="5" id="路径-2" node-id="156" stroke="none" target-height="95.72003" target-width="35.97998" target-x="385.29" target-y="697.06"></path><path d="M 397.72 775.67 L 399.07 770.66 L 400.92 765.73 L 403.30 760.87 L 406.24 756.05 L 409.77 751.26 L 413.93 746.50 L 418.78 741.74 L 424.38 736.99 L 426.21 736.47 L 427.99 736.26 L 429.74 736.36 L 431.43 736.77 L 432.97 737.53 L 434.39 738.64 L 435.54 740.02 L 436.47 741.83 L 437.16 744.16 L 437.34 745.59 L 437.14 748.67 L 436.58 752.16 L 435.54 756.73 L 434.18 761.49 L 432.35 766.76 L 430.16 772.00 L 427.53 777.18 L 424.48 782.07 L 421.06 786.40 L 418.50 788.98 L 415.78 791.12 L 412.91 792.84 L 408.84 793.42 L 405.62 793.39 L 403.08 792.88 L 401.09 791.97 L 399.52 790.68 L 398.32 788.98 L 397.47 786.77 L 397.01 783.94 L 397.05 780.30 L 397.72 775.67 Z" fill="url(#linearGradient-29)" fill-rule="nonzero" group-id="5" id="路径-3" node-id="157" stroke="none" target-height="57.159973" target-width="40.329987" target-x="397.01" target-y="736.26"></path><path d="M 477.12 735.84 L 475.37 731.22 L 473.43 727.28 L 471.32 723.93 L 469.06 721.12 L 467.50 720.31 L 466.76 720.13 L 466.32 720.28 L 466.28 720.72 L 466.55 721.32 L 467.17 722.12 L 464.63 721.53 L 462.84 721.45 L 460.79 721.80 L 459.49 722.34 L 458.20 723.28 L 456.89 724.71 L 455.89 726.36 L 454.97 728.74 L 454.20 732.04 L 454.94 734.00 L 456.12 736.35 L 457.61 738.66 L 459.48 740.99 L 461.66 743.08 L 464.16 744.86 L 465.99 745.79 L 467.94 746.45 L 470.05 746.86 L 472.26 746.49 L 473.98 745.64 L 475.33 744.28 L 476.34 742.34 L 476.98 739.60 L 477.12 735.84 Z" fill="#efba9e" fill-rule="nonzero" group-id="5,15" id="路径-109" node-id="158" stroke="none" target-height="26.72998" target-width="22.919983" target-x="454.2" target-y="720.13"></path><path d="M 506.87 704.33 L 504.13 701.37 L 501.59 699.31 L 499.24 697.98 L 497.01 697.25 L 494.86 697.06 L 492.72 697.37 L 490.55 698.21 L 488.28 699.66 L 485.89 701.85 L 484.83 703.25 L 483.83 705.42 L 482.92 708.62 L 482.07 713.74 L 481.50 720.46 L 481.28 727.61 L 481.35 735.77 L 481.66 744.14 L 482.21 752.90 L 482.94 761.69 L 483.81 770.26 L 484.83 778.64 L 485.89 786.20 L 488.03 788.48 L 490.07 790.19 L 492.06 791.41 L 493.99 792.20 L 496.77 792.78 L 499.39 792.77 L 501.93 792.19 L 504.34 791.13 L 506.55 789.68 L 508.58 787.82 L 510.31 785.66 L 511.71 783.31 L 512.79 780.73 L 514.98 770.09 L 516.41 760.28 L 517.16 751.22 L 517.27 742.86 L 516.80 735.14 L 515.79 728.01 L 514.27 721.41 L 512.27 715.29 L 509.80 709.61 L 506.87 704.33 Z" fill="url(#linearGradient-30)" fill-rule="nonzero" group-id="5,16" id="路径-2" node-id="159" stroke="none" target-height="95.72003" target-width="35.99002" target-x="481.28" target-y="697.06"></path><path d="M 504.83 775.67 L 503.49 770.66 L 501.63 765.73 L 499.25 760.87 L 496.32 756.05 L 492.79 751.26 L 488.62 746.50 L 483.77 741.74 L 478.17 736.99 L 476.35 736.47 L 474.57 736.26 L 472.81 736.36 L 471.12 736.77 L 469.58 737.53 L 468.16 738.64 L 467.01 740.02 L 466.09 741.83 L 465.40 744.16 L 465.21 745.59 L 465.42 748.67 L 465.98 752.16 L 467.01 756.73 L 468.37 761.49 L 470.20 766.76 L 472.40 772.00 L 475.02 777.18 L 478.07 782.07 L 481.49 786.40 L 484.06 788.98 L 486.77 791.12 L 489.64 792.84 L 493.72 793.42 L 496.94 793.39 L 499.47 792.88 L 501.46 791.97 L 503.03 790.68 L 504.24 788.98 L 505.09 786.77 L 505.54 783.94 L 505.50 780.30 L 504.83 775.67 Z" fill="url(#linearGradient-31)" fill-rule="nonzero" group-id="5,17" id="路径-3" node-id="160" stroke="none" target-height="57.159973" target-width="40.330017" target-x="465.21" target-y="736.26"></path><path d="M 506.24 789.72 L 508.49 788.96 L 510.83 788.36 L 514.09 787.84 L 517.55 787.71 L 521.29 788.16 L 523.72 788.86 L 526.07 790.01 L 528.36 791.66 L 530.30 793.70 L 532.04 796.47 L 533.57 800.14 L 534.37 803.56 L 534.59 806.41 L 534.33 808.79 L 533.64 811.10 L 532.67 813.06 L 531.44 814.70 L 529.22 816.81 L 526.90 818.34 L 524.53 819.50 L 522.71 820.17 L 520.87 820.68 L 520.87 820.68 L 507.17 823.21 L 501.21 842.21 L 452.76 833.26 L 404.28 842.21 L 398.30 823.19 L 384.75 820.69 L 382.91 820.18 L 381.10 819.51 L 378.73 818.35 L 376.42 816.82 L 374.19 814.72 L 372.96 813.07 L 372.00 811.12 L 371.31 808.81 L 371.05 806.42 L 371.27 803.58 L 372.07 800.16 L 373.60 796.49 L 375.34 793.72 L 377.27 791.69 L 379.56 790.04 L 381.91 788.88 L 384.33 788.18 L 388.07 787.73 L 391.53 787.87 L 394.78 788.39 L 397.12 788.98 L 399.37 789.74 L 452.74 803.99 L 506.24 789.72 Z" fill="url(#linearGradient-32)" fill-rule="nonzero" group-id="5" id="裤子" node-id="161" stroke="none" target-height="54.5" target-width="163.54004" target-x="371.05" target-y="787.71"></path><path d="M 399.66 827.99 L 393.82 828.37 L 388.38 828.37 L 383.37 828.23 L 381.17 828.21 L 380.06 828.20 L 377.51 828.33 L 374.69 828.83 L 373.49 829.32 L 372.76 829.94 L 371.92 831.52 L 371.39 833.37 L 371.12 835.31 L 371.06 837.18 L 371.25 840.27 L 371.44 841.55 L 371.73 842.44 L 372.58 844.37 L 373.21 845.38 L 373.97 846.22 L 374.74 846.67 L 375.61 846.85 L 377.20 846.72 L 377.92 846.53 L 379.29 846.18 L 382.78 845.33 L 387.43 844.28 L 394.68 842.81 L 396.93 842.40 L 403.93 840.50 L 399.66 827.99 Z M 505.83 827.99 L 511.69 828.37 L 517.17 828.37 L 522.20 828.23 L 524.42 828.21 L 525.53 828.20 L 528.10 828.33 L 530.93 828.84 L 532.13 829.33 L 532.87 829.95 L 533.72 831.54 L 534.25 833.39 L 534.52 835.34 L 534.58 837.22 L 534.38 840.33 L 534.20 841.61 L 533.91 842.50 L 533.06 844.44 L 532.42 845.46 L 531.66 846.30 L 530.88 846.76 L 530.01 846.93 L 528.40 846.81 L 527.69 846.61 L 526.30 846.26 L 522.79 845.41 L 518.12 844.36 L 510.83 842.88 L 508.56 842.46 L 501.52 840.56 L 505.83 827.99 Z" fill="#333333" fill-rule="nonzero" group-id="5" id="脚" node-id="162" stroke="none" target-height="18.940002" target-width="163.52002" target-x="371.06" target-y="827.99"></path></g><g node-id="376"><path d="M 751.11 345.74 L 742.06 354.32 L 724.17 328.20 L 768.53 329.48 L 760.59 337.45 L 729.76 330.55 L 756.80 341.23 L 760.64 349.19 Z" fill="url(#linearGradient-33)" fill-rule="nonzero" group-id="6" id="路径" node-id="163" stroke="none" target-height="26.119995" target-width="44.360046" target-x="724.17" target-y="328.2"></path></g><path d="M 770.68 353.00 C 828.21 390.43 833.37 436.29 786.16 490.60" fill="none" id="路径-26" node-id="164" stroke="url(#linearGradient-34)" stroke-dasharray="2 2" stroke-linecap="butt" stroke-width="1" target-height="137.6" target-width="62.690002" target-x="770.68" target-y="353"></path></svg>